<?xml version="1.0" standalone="no"?>
<!DOCTYPE svg PUBLIC "-//W3C//DTD SVG 1.1//EN" "http://www.w3.org/Graphics/SVG/1.1/DTD/svg11.dtd" >
<svg>
<metadata>
Created by FontForge 20110222 at Thu Sep 18 01:56:58 2014
 By Orthosie Webhosting
Copyright (c) 2010-2012 by Claus Eggers Srensen (es@forthehearts.net), with Reserved Font Name 'Playfair'.
</metadata>
<defs>
<font id="PlayfairDisplay-Black" horiz-adv-x="1030" >
  <font-face 
    font-family="Playfair Display Black"
    font-weight="900"
    font-stretch="normal"
    units-per-em="2048"
    panose-1="0 0 10 0 0 0 0 0 0 0"
    ascent="1638"
    descent="-410"
    x-height="1063"
    cap-height="1450"
    bbox="-557 -502 2666 2089"
    underline-thickness="41"
    underline-position="-165"
    stemh="41"
    stemv="47"
    unicode-range="U+000D-FB02"
  />
<missing-glyph horiz-adv-x="1151" 
d="M1028 0h-905v1581h905v-1581zM197 1520v-1459h757v1459h-757z" />
    <glyph glyph-name="uni00660062.liga" unicode="fb" horiz-adv-x="1958" 
d="M1536 1092c203 0 356 -166 356 -514c0 -465 -221 -607 -477 -607c-78 0 -142 3 -201 29c-48 18 -99 26 -146 26c-85 0 -161 -24 -198 -59l-28 21c12 37 14 73 14 112v1321c0 60 -10 88 -29 109c-12 14 -36 31 -75 31c-78 0 -119 -23 -160 -74c-51 -64 -57 -152 -57 -363
v-63h186v-41h-186v-830c0 -116 57 -147 155 -147v-43c-67 2 -203 8 -330 8c-135 0 -266 -6 -329 -8v43c98 0 135 33 135 147v830h-143v41h143c0 207 61 334 160 418c106 90 249 123 379 123c90 0 184 -11 294 -11c64 0 154 8 226 15v-668c63 104 172 154 311 154zM1321 12
c127 0 188 172 188 518c0 363 -61 455 -137 455s-147 -61 -147 -147v-802c31 -16 66 -24 96 -24z" />
    <glyph glyph-name="f_f" unicode="ff" horiz-adv-x="1427" 
d="M1532 1526c39 -31 76 -90 76 -170c0 -84 -70 -166 -170 -166c-113 0 -185 63 -185 170c0 78 45 151 142 182c-8 10 -27 19 -56 19c-47 0 -75 -15 -96 -39c-24 -31 -39 -78 -39 -187v-274h219v-41h-219v-809c0 -133 66 -168 176 -168v-43c-75 2 -225 8 -376 8
c-111 0 -228 -6 -283 -8v43c84 0 115 33 115 147v830h-281v-830c0 -114 31 -147 115 -147v-43c-60 2 -189 8 -308 8c-126 0 -268 -6 -331 -8v43c98 0 135 33 135 147v830h-143v41h143c0 141 55 274 158 356c79 64 200 103 348 103c98 0 187 -28 250 -83c17 22 36 42 59 62
c64 55 180 103 305 103c109 0 185 -29 246 -76zM555 1061h281c0 161 17 261 60 337c-44 44 -105 70 -175 70c-115 0 -166 -71 -166 -231v-176z" />
    <glyph glyph-name="uni006600660062.liga" unicode="ffb" horiz-adv-x="2669" 
d="M2247 1092c202 0 356 -166 356 -514c0 -465 -221 -607 -477 -607c-77 0 -140 3 -199 28c-49 19 -101 27 -149 27c-85 0 -160 -24 -197 -59l-29 21c13 37 15 73 15 112v1321c0 60 -11 88 -29 109c-12 14 -37 31 -76 31c-78 0 -119 -23 -159 -74c-52 -66 -58 -158 -58 -379
v-47h187v-41h-187v-830c0 -116 58 -147 156 -147v-43c-68 2 -203 8 -330 8c-135 0 -266 -6 -330 -8v43c99 0 136 33 136 147v830h-322v-830c0 -114 31 -147 115 -147v-43c-60 2 -189 8 -308 8c-126 0 -268 -6 -331 -8v43c98 0 135 33 135 147v830h-143v41h143
c0 141 57 270 158 356c92 86 233 123 389 123c134 0 223 -35 297 -86c8 9 17 17 26 25c107 90 250 123 379 123c90 0 184 -11 295 -11c64 0 154 8 225 15v-668c64 104 172 154 312 154zM555 1061h322c0 165 39 280 105 362c-55 37 -130 68 -232 68
c-132 0 -195 -78 -195 -274v-156zM2032 12c127 0 188 172 188 518c0 363 -61 455 -137 455s-148 -61 -148 -147v-801c31 -17 66 -25 97 -25z" />
    <glyph glyph-name="uni006600660068.liga" unicode="ffh" horiz-adv-x="2689" 
d="M2552 745v-555c0 -114 31 -147 114 -147v-43c-55 2 -180 8 -286 8c-115 0 -236 -6 -291 -8v43c70 0 94 33 94 147v666c0 86 -29 129 -100 129c-76 0 -148 -61 -148 -147v-648c0 -114 25 -147 95 -147v-43c-52 2 -164 8 -271 8c-114 0 -248 -6 -307 -8v43
c84 0 115 33 115 147v1231c0 60 -11 88 -29 109c-12 14 -37 31 -76 31c-78 0 -119 -23 -159 -74c-50 -62 -58 -148 -58 -346v-80h187v-41h-187v-830c0 -116 58 -147 156 -147v-43c-68 2 -203 8 -330 8c-135 0 -266 -6 -330 -8v43c99 0 136 33 136 147v830h-322v-830
c0 -114 31 -147 115 -147v-43c-60 2 -189 8 -308 8c-126 0 -268 -6 -331 -8v43c98 0 135 33 135 147v830h-143v41h143c0 141 57 270 158 356c92 86 233 123 389 123c134 0 223 -35 297 -86c8 9 17 17 26 25c107 90 250 123 379 123c90 0 184 -11 295 -11c64 0 154 8 225 15
v-668c66 109 179 154 326 154c125 0 193 -35 231 -82c41 -49 60 -125 60 -265zM555 1061h322c0 165 39 280 105 362c-55 37 -130 68 -232 68c-132 0 -195 -78 -195 -274v-156z" />
    <glyph glyph-name="f_f_i" unicode="ffi" horiz-adv-x="2087" 
d="M1935 1085v-895c0 -114 37 -147 136 -147v-43c-60 2 -191 8 -310 8s-250 -6 -309 -8v43c84 0 115 33 115 147v650c0 123 -33 180 -135 180h-187v-830c0 -116 58 -147 156 -147v-43c-68 2 -203 8 -330 8c-135 0 -266 -6 -330 -8v43c99 0 136 33 136 147v830h-322v-830
c0 -114 31 -147 115 -147v-43c-60 2 -189 8 -308 8c-126 0 -268 -6 -331 -8v43c98 0 135 33 135 147v830h-143v41h143c0 141 57 270 158 356c92 86 233 123 389 123c145 0 238 -41 315 -99l21 19c112 99 288 142 477 142c170 0 260 -37 338 -84c47 -29 88 -86 88 -154
c0 -113 -74 -174 -234 -174c-153 0 -233 61 -233 170c0 88 65 151 180 178c-20 10 -70 23 -121 23c-88 0 -153 -39 -190 -72c-99 -92 -109 -197 -109 -428h187c243 0 364 4 503 24zM555 1061h322c0 141 42 258 122 349c-55 43 -136 81 -249 81c-132 0 -195 -78 -195 -274
v-156z" />
    <glyph glyph-name="uni00660066006A.liga" unicode="ffj" horiz-adv-x="2058" 
d="M1245 1061h187c243 0 364 4 503 24v-921c0 -242 -43 -350 -145 -447c-61 -57 -158 -102 -393 -102c-92 0 -172 14 -217 29c-76 24 -125 69 -125 131c0 71 71 149 213 149c118 0 213 -45 213 -133c0 -70 -58 -110 -138 -129c25 -4 48 -4 62 -4c70 0 113 41 137 100
c23 53 25 191 25 312v94v676c0 123 -33 180 -135 180h-187v-830c0 -116 58 -147 156 -147v-43c-68 2 -203 8 -330 8c-135 0 -266 -6 -330 -8v43c99 0 136 33 136 147v830h-322v-830c0 -114 31 -147 115 -147v-43c-60 2 -189 8 -308 8c-126 0 -268 -6 -331 -8v43
c98 0 135 33 135 147v830h-143v41h143c0 141 59 268 158 356c94 84 233 123 389 123c146 0 238 -41 316 -99l20 19c108 103 288 142 448 142c207 0 285 -35 363 -82c47 -29 92 -90 92 -156c0 -113 -74 -174 -234 -174c-153 0 -233 61 -233 170c0 88 65 151 180 178
c-20 10 -70 23 -121 23c-119 0 -194 -58 -244 -148c-38 -70 -55 -153 -55 -352zM555 1061h322c0 141 45 255 123 348c-55 43 -136 82 -250 82c-132 0 -195 -78 -195 -274v-156z" />
    <glyph glyph-name="uni00660066006B.liga" unicode="ffk" horiz-adv-x="2660" 
d="M2259 768l326 -618c22 -41 43 -87 81 -107v-43c-47 2 -153 8 -247 8c-111 0 -234 -6 -289 -8v43c40 0 60 14 60 38c0 9 -3 20 -9 32l-180 381c-17 32 -38 43 -66 45v-349c0 -114 37 -147 136 -147v-43c-60 2 -191 8 -310 8s-250 -6 -309 -8v43c84 0 115 33 115 147v1231
c0 60 -11 88 -29 109c-12 14 -37 31 -76 31c-78 0 -119 -23 -159 -74c-52 -64 -58 -154 -58 -363v-63h187v-41h-187v-830c0 -116 58 -147 156 -147v-43c-68 2 -203 8 -330 8c-135 0 -266 -6 -330 -8v43c99 0 136 33 136 147v830h-322v-830c0 -114 31 -147 115 -147v-43
c-60 2 -189 8 -308 8c-126 0 -268 -6 -331 -8v43c98 0 135 33 135 147v830h-143v41h143c0 141 57 270 158 356c92 86 233 123 389 123c134 0 223 -35 297 -86c8 9 17 17 26 25c107 90 250 123 379 123c90 0 184 -11 295 -11c64 0 154 8 225 15v-1028c33 1 64 6 88 30
l158 148c50 47 72 93 72 133c0 72 -70 125 -164 133v41c78 -4 180 -6 246 -6c84 0 227 2 280 6v-41c-98 -27 -200 -98 -303 -201zM555 1061h322c0 165 39 280 105 362c-55 37 -130 68 -232 68c-132 0 -195 -78 -195 -274v-156z" />
    <glyph glyph-name="f_f_l" unicode="ffl" horiz-adv-x="2095" 
d="M1935 1606v-1416c0 -114 37 -147 136 -147v-43c-60 2 -191 8 -310 8s-250 -6 -309 -8v43c84 0 115 33 115 147v1231c0 60 -11 88 -29 109c-12 14 -37 31 -76 31c-78 0 -119 -23 -159 -74c-50 -64 -58 -152 -58 -357v-69h187v-41h-187v-830c0 -116 58 -147 156 -147v-43
c-68 2 -203 8 -330 8c-135 0 -266 -6 -330 -8v43c99 0 136 33 136 147v830h-322v-830c0 -114 31 -147 115 -147v-43c-60 2 -189 8 -308 8c-126 0 -268 -6 -331 -8v43c98 0 135 33 135 147v830h-143v41h143c0 141 57 270 158 356c92 86 233 123 389 123
c134 0 223 -35 297 -86c8 9 17 17 26 25c107 90 250 123 379 123c90 0 184 -11 295 -11c64 0 154 8 225 15zM555 1061h322c0 165 39 280 105 362c-55 37 -130 68 -232 68c-132 0 -195 -78 -195 -274v-156z" />
    <glyph glyph-name="uni00660068.liga" unicode="fh" horiz-adv-x="1978" 
d="M1225 1606v-668c65 109 178 154 325 154c125 0 193 -35 232 -82c41 -49 59 -125 59 -265v-555c0 -114 31 -147 115 -147v-43c-55 2 -180 8 -287 8c-115 0 -235 -6 -291 -8v43c70 0 95 33 95 147v666c0 86 -29 129 -101 129c-76 0 -147 -61 -147 -147v-648
c0 -114 24 -147 94 -147v-43c-51 2 -164 8 -270 8c-115 0 -248 -6 -308 -8v43c84 0 115 33 115 147v1231c0 60 -10 88 -29 109c-12 14 -36 31 -75 31c-78 0 -119 -23 -160 -74c-51 -66 -57 -156 -57 -379v-47h186v-41h-186v-830c0 -116 57 -147 155 -147v-43
c-67 2 -203 8 -330 8c-135 0 -266 -6 -329 -8v43c98 0 135 33 135 147v830h-143v41h143c0 207 61 334 160 418c106 90 249 123 379 123c90 0 184 -11 294 -11c64 0 154 8 226 15z" />
    <glyph glyph-name="uni006600EF.liga" unicode="f&#xef;" horiz-adv-x="1376" 
d="M1225 1085v-895c0 -114 37 -147 135 -147v-43c-60 2 -191 8 -309 8c-119 0 -250 -6 -310 -8v43c84 0 115 33 115 147v650c0 123 -33 180 -135 180h-186v-830c0 -116 57 -147 155 -147v-43c-67 2 -203 8 -330 8c-135 0 -266 -6 -329 -8v43c98 0 135 33 135 147v830h-143
v41h143c0 168 33 311 129 403c100 97 229 138 371 138c274 0 319 -115 319 -199c0 -98 -84 -178 -178 -178c-99 0 -179 80 -179 178c0 68 42 131 103 161c-10 1 -22 1 -33 1c-141 0 -163 -70 -163 -291v-213h186c244 0 364 4 504 24zM1294 1581c94 0 178 -84 178 -178
c0 -98 -84 -178 -178 -178c-98 0 -178 80 -178 178c0 94 80 178 178 178z" />
    <glyph glyph-name="uni006600EC.liga" unicode="f&#xec;" horiz-adv-x="1376" 
d="M1225 1085v-895c0 -114 37 -147 135 -147v-43c-60 2 -191 8 -309 8c-119 0 -250 -6 -310 -8v43c84 0 115 33 115 147v650c0 123 -33 180 -135 180h-186v-830c0 -116 57 -147 155 -147v-43c-67 2 -203 8 -330 8c-135 0 -266 -6 -329 -8v43c98 0 135 33 135 147v830h-143
v41h143c0 151 37 276 129 362c90 86 205 105 315 105c58 0 107 -10 150 -25c-17 25 -26 54 -26 83c0 35 13 69 42 93c26 24 57 34 88 34c44 0 88 -21 113 -50c73 -82 57 -186 174 -418l-23 -18c-120 101 -205 148 -268 189c-59 36 -104 57 -168 57c-51 0 -92 -21 -119 -64
c-24 -39 -38 -98 -38 -176v-172h186c244 0 364 4 504 24z" />
    <glyph glyph-name="uni0066006A.liga" unicode="fj" horiz-adv-x="1348" 
d="M786 1602c207 0 285 -35 363 -82c47 -29 92 -90 92 -156c0 -113 -74 -174 -233 -174c-154 0 -234 61 -234 170c0 88 66 151 180 178c-20 10 -69 23 -120 23c-119 0 -195 -58 -244 -148c-39 -70 -55 -153 -55 -352h186c244 0 364 4 504 24v-921c0 -242 -43 -350 -146 -447
c-61 -57 -157 -102 -393 -102c-92 0 -172 14 -217 29c-76 24 -125 69 -125 131c0 71 72 149 213 149c119 0 213 -45 213 -133c0 -70 -57 -110 -137 -129c24 -4 47 -4 61 -4c70 0 113 41 137 100c23 53 25 191 25 312v94v676c0 123 -33 180 -135 180h-186v-830
c0 -116 57 -147 155 -147v-43c-67 2 -203 8 -330 8c-135 0 -266 -6 -329 -8v43c98 0 135 33 135 147v830h-143v41h143c0 168 63 297 172 399c108 103 289 142 448 142z" />
    <glyph glyph-name="uni0066006B.liga" unicode="fk" horiz-adv-x="1950" 
d="M1548 768l326 -618c22 -41 43 -87 82 -107v-43c-47 2 -154 8 -248 8c-111 0 -233 -6 -289 -8v43c40 0 60 14 60 38c0 9 -3 20 -9 32l-180 381c-16 32 -37 43 -65 45v-349c0 -114 37 -147 135 -147v-43c-60 2 -191 8 -309 8c-119 0 -250 -6 -310 -8v43
c84 0 115 33 115 147v1231c0 60 -10 88 -29 109c-12 14 -36 31 -75 31c-78 0 -119 -23 -160 -74c-51 -64 -57 -154 -57 -371v-55h186v-41h-186v-830c0 -116 57 -147 155 -147v-43c-67 2 -203 8 -330 8c-135 0 -266 -6 -329 -8v43c98 0 135 33 135 147v830h-143v41h143
c0 207 61 334 160 418c106 90 249 123 379 123c90 0 184 -11 294 -11c64 0 154 8 226 15v-1028c33 1 64 7 88 30l157 148c51 47 72 93 72 133c0 72 -69 125 -164 133v41c78 -4 181 -6 246 -6c84 0 227 2 281 6v-41c-99 -27 -201 -98 -303 -201z" />
    <glyph glyph-name="fi" unicode="fi" horiz-adv-x="1376" 
d="M786 1602c207 0 285 -35 363 -82c47 -29 92 -90 92 -156c0 -113 -74 -174 -233 -174c-154 0 -234 61 -234 170c0 88 66 151 180 178c-20 10 -69 23 -120 23c-119 0 -195 -58 -244 -148c-39 -70 -55 -153 -55 -352h186c244 0 364 4 504 24v-895c0 -114 37 -147 135 -147
v-43c-60 2 -191 8 -309 8c-119 0 -250 -6 -310 -8v43c84 0 115 33 115 147v650c0 123 -33 180 -135 180h-186v-830c0 -116 57 -147 155 -147v-43c-67 2 -203 8 -330 8c-135 0 -266 -6 -329 -8v43c98 0 135 33 135 147v830h-143v41h143c0 168 63 297 172 399
c108 103 289 142 448 142z" />
    <glyph glyph-name="fl" unicode="fl" horiz-adv-x="1384" 
d="M1225 1606v-1416c0 -114 37 -147 135 -147v-43c-60 2 -191 8 -309 8c-119 0 -250 -6 -310 -8v43c84 0 115 33 115 147v1231c0 60 -10 88 -29 109c-12 14 -36 31 -75 31c-78 0 -119 -23 -160 -74c-51 -64 -57 -154 -57 -367v-59h186v-41h-186v-830
c0 -116 57 -147 155 -147v-43c-67 2 -203 8 -330 8c-135 0 -266 -6 -329 -8v43c98 0 135 33 135 147v830h-143v41h143c0 207 61 334 160 418c106 90 249 123 379 123c90 0 184 -11 294 -11c64 0 154 8 226 15z" />
    <glyph glyph-name=".notdef" horiz-adv-x="1151" 
d="M1028 0h-905v1581h905v-1581zM197 1520v-1459h757v1459h-757z" />
    <glyph glyph-name="A" unicode="A" horiz-adv-x="1417" 
d="M815 1450l496 -1278c37 -94 84 -129 121 -131v-41c-99 4 -238 6 -373 6c-139 0 -271 -2 -344 -6v41c97 4 144 19 144 75c0 24 -9 55 -25 97l-122 336h-413l-35 -92c-46 -120 -66 -206 -66 -267c0 -120 76 -145 185 -149v-41c-102 4 -174 6 -268 6c-54 0 -117 -2 -158 -6
v41c63 10 123 70 188 240l455 1169c33 -3 71 -4 108 -4s75 1 107 4zM698 590l-186 512l-197 -512h383z" />
    <glyph glyph-name="Aacute" unicode="&#xc1;" horiz-adv-x="1417" 
d="M996 1686c-95 -50 -197 -31 -437 -105l-14 25c199 168 223 270 324 317c18 9 40 14 63 14c50 0 103 -24 129 -77c8 -18 12 -36 12 -54c0 -49 -29 -97 -77 -120zM815 1450l496 -1278c37 -94 84 -129 121 -131v-41c-99 4 -238 6 -373 6c-139 0 -271 -2 -344 -6v41
c97 4 144 19 144 75c0 24 -9 55 -25 97l-122 336h-413l-35 -92c-46 -120 -66 -206 -66 -267c0 -120 76 -145 185 -149v-41c-102 4 -174 6 -268 6c-54 0 -117 -2 -158 -6v41c63 10 123 70 188 240l455 1169c33 -3 71 -4 108 -4s75 1 107 4zM698 590l-186 512l-197 -512h383z
" />
    <glyph glyph-name="Abreve" unicode="&#x102;" horiz-adv-x="1417" 
d="M690 1563c-278 0 -436 161 -489 299l24 22c80 -51 228 -119 465 -119c238 0 385 68 465 119l25 -22c-54 -138 -211 -299 -490 -299zM815 1450l496 -1278c37 -94 84 -129 121 -131v-41c-99 4 -238 6 -373 6c-139 0 -271 -2 -344 -6v41c97 4 144 19 144 75
c0 24 -9 55 -25 97l-122 336h-413l-35 -92c-46 -120 -66 -206 -66 -267c0 -120 76 -145 185 -149v-41c-102 4 -174 6 -268 6c-54 0 -117 -2 -158 -6v41c63 10 123 70 188 240l455 1169c33 -3 71 -4 108 -4s75 1 107 4zM698 590l-186 512l-197 -512h383z" />
    <glyph glyph-name="Acircumflex" unicode="&#xc2;" horiz-adv-x="1417" 
d="M670 1700c-90 -45 -256 -96 -411 -125l-11 31c178 84 344 221 445 352h37c96 -129 264 -266 444 -352l-10 -31c-189 29 -387 80 -494 125zM815 1450l496 -1278c37 -94 84 -129 121 -131v-41c-99 4 -238 6 -373 6c-139 0 -271 -2 -344 -6v41c97 4 144 19 144 75
c0 24 -9 55 -25 97l-122 336h-413l-35 -92c-46 -120 -66 -206 -66 -267c0 -120 76 -145 185 -149v-41c-102 4 -174 6 -268 6c-54 0 -117 -2 -158 -6v41c63 10 123 70 188 240l455 1169c33 -3 71 -4 108 -4s75 1 107 4zM698 590l-186 512l-197 -512h383z" />
    <glyph glyph-name="Adieresis" unicode="&#xc4;" horiz-adv-x="1417" 
d="M447 1561c-98 0 -178 79 -178 178c0 94 80 178 178 178c94 0 178 -84 178 -178c0 -99 -84 -178 -178 -178zM975 1561c-98 0 -178 79 -178 178c0 94 80 178 178 178c94 0 178 -84 178 -178c0 -99 -84 -178 -178 -178zM815 1450l496 -1278c37 -94 84 -129 121 -131v-41
c-99 4 -238 6 -373 6c-139 0 -271 -2 -344 -6v41c97 4 144 19 144 75c0 24 -9 55 -25 97l-122 336h-413l-35 -92c-46 -120 -66 -206 -66 -267c0 -120 76 -145 185 -149v-41c-102 4 -174 6 -268 6c-54 0 -117 -2 -158 -6v41c63 10 123 70 188 240l455 1169
c33 -3 71 -4 108 -4s75 1 107 4zM698 590l-186 512l-197 -512h383z" />
    <glyph glyph-name="Agrave" unicode="&#xc0;" horiz-adv-x="1417" 
d="M398 1686c-48 24 -78 71 -78 120c0 18 4 36 12 54c26 53 79 77 130 77c22 0 44 -5 63 -14c100 -47 125 -149 323 -317l-14 -25c-240 74 -342 55 -436 105zM815 1450l496 -1278c37 -94 84 -129 121 -131v-41c-99 4 -238 6 -373 6c-139 0 -271 -2 -344 -6v41
c97 4 144 19 144 75c0 24 -9 55 -25 97l-122 336h-413l-35 -92c-46 -120 -66 -206 -66 -267c0 -120 76 -145 185 -149v-41c-102 4 -174 6 -268 6c-54 0 -117 -2 -158 -6v41c63 10 123 70 188 240l455 1169c33 -3 71 -4 108 -4s75 1 107 4zM698 590l-186 512l-197 -512h383z
" />
    <glyph glyph-name="Amacron" unicode="&#x100;" horiz-adv-x="1417" 
d="M1153 1677h-885v52h885v-52zM815 1450l496 -1278c37 -94 84 -129 121 -131v-41c-99 4 -238 6 -373 6c-139 0 -271 -2 -344 -6v41c97 4 144 19 144 75c0 24 -9 55 -25 97l-122 336h-413l-35 -92c-46 -120 -66 -206 -66 -267c0 -120 76 -145 185 -149v-41
c-102 4 -174 6 -268 6c-54 0 -117 -2 -158 -6v41c63 10 123 70 188 240l455 1169c33 -3 71 -4 108 -4s75 1 107 4zM698 590l-186 512l-197 -512h383z" />
    <glyph glyph-name="Aogonek" unicode="&#x104;" horiz-adv-x="1417" 
d="M1432 0l-38 1c-160 -56 -218 -130 -218 -185c0 -56 27 -78 82 -78c45 0 104 20 135 47l27 -31c-80 -98 -170 -139 -314 -139c-133 0 -202 53 -202 145c0 117 153 200 411 243c-79 2 -168 3 -256 3c-139 0 -271 -2 -344 -6v41c97 4 144 19 144 75c0 24 -9 55 -25 97
l-122 336h-413l-35 -92c-46 -120 -66 -206 -66 -267c0 -120 76 -145 185 -149v-41c-102 4 -174 6 -268 6c-54 0 -117 -2 -158 -6v41c63 10 123 70 188 240l455 1169c33 -3 70 -5 108 -5c37 0 74 2 107 5l496 -1278c37 -94 84 -129 121 -131v-41zM698 590l-186 512l-197 -512
h383z" />
    <glyph glyph-name="Aring" unicode="&#xc5;" horiz-adv-x="1417" 
d="M711 1520c-125 0 -237 79 -237 209c0 126 112 206 237 206c127 0 240 -80 240 -206c0 -130 -113 -209 -240 -209zM711 1892c-86 0 -180 -59 -180 -166c0 -110 94 -163 180 -163c88 0 183 53 183 163c0 107 -95 166 -183 166zM815 1450l496 -1278c37 -94 84 -129 121 -131
v-41c-99 4 -238 6 -373 6c-139 0 -271 -2 -344 -6v41c97 4 144 19 144 75c0 24 -9 55 -25 97l-122 336h-413l-35 -92c-46 -120 -66 -206 -66 -267c0 -120 76 -145 185 -149v-41c-102 4 -174 6 -268 6c-54 0 -117 -2 -158 -6v41c63 10 123 70 188 240l455 1169
c33 -3 71 -4 108 -4s75 1 107 4zM698 590l-186 512l-197 -512h383z" />
    <glyph glyph-name="Atilde" unicode="&#xc3;" horiz-adv-x="1417" 
d="M443 1704c-74 0 -139 -33 -199 -111l-28 15c55 223 176 313 305 313c219 0 276 -135 453 -135c73 0 139 31 198 108l29 -14c-55 -223 -176 -313 -303 -313c-221 0 -279 137 -455 137zM815 1450l496 -1278c37 -94 84 -129 121 -131v-41c-99 4 -238 6 -373 6
c-139 0 -271 -2 -344 -6v41c97 4 144 19 144 75c0 24 -9 55 -25 97l-122 336h-413l-35 -92c-46 -120 -66 -206 -66 -267c0 -120 76 -145 185 -149v-41c-102 4 -174 6 -268 6c-54 0 -117 -2 -158 -6v41c63 10 123 70 188 240l455 1169c33 -3 71 -4 108 -4s75 1 107 4z
M698 590l-186 512l-197 -512h383z" />
    <glyph glyph-name="AE" unicode="&#xc6;" horiz-adv-x="1868" 
d="M1765 303c0 -59 0 -184 15 -303c-140 6 -332 6 -469 6c-135 0 -437 0 -656 -6v41c125 6 146 27 146 176v492h-332l-285 -496c-24 -43 -36 -75 -36 -100c0 -50 48 -68 141 -72v-41c-41 4 -113 6 -187 6c-49 0 -104 -2 -137 -6v41c43 2 84 33 141 131l682 1180
c-18 44 -56 53 -133 57v41c58 -2 122 -3 187 -4l78 135h49l-78 -135c165 -2 330 -2 420 -2c125 0 301 0 428 6c-10 -121 -15 -244 -15 -303c0 -57 2 -113 7 -148h-48c-43 308 -167 404 -294 404h-27c-121 0 -145 -21 -145 -170v-483h81c142 0 175 159 197 249h47
c-6 -81 -7 -135 -7 -179c0 -35 1 -63 1 -91c0 -63 2 -125 12 -270h-47c-22 121 -61 250 -203 250h-81v-492c0 -149 24 -170 145 -170h68c102 0 258 107 294 445h48c-5 -50 -7 -115 -7 -189zM801 750v483c0 20 0 37 -1 53l-308 -536h309z" />
    <glyph glyph-name="B" unicode="B" horiz-adv-x="1442" 
d="M821 764v-4c422 -21 580 -197 580 -363c0 -274 -234 -397 -615 -397c-65 0 -194 6 -372 6c-138 0 -279 -2 -357 -6v41c125 6 146 27 146 176v1016c0 149 -23 170 -146 176v41c78 -4 222 -6 353 -6c137 0 276 4 329 4c373 0 555 -133 555 -322c0 -145 -149 -321 -473 -362
zM729 1409c-92 0 -111 -35 -111 -176v-463h56c160 0 198 156 198 334c0 201 -38 305 -143 305zM752 47c153 0 219 129 219 359c0 208 -92 329 -324 329h-29v-518c0 -143 23 -170 134 -170z" />
    <glyph glyph-name="C" unicode="C" horiz-adv-x="1468" 
d="M848 1479c180 0 287 -64 377 -133c15 -12 28 -18 40 -18c28 0 45 38 52 122h47c-6 -109 -8 -254 -8 -512h-47c-19 197 -52 326 -189 416c-57 37 -123 61 -190 61c-314 0 -385 -387 -385 -694s71 -694 385 -694c67 0 133 24 190 61c137 84 170 221 189 444h47
c0 -268 2 -419 8 -532h-47c-7 84 -21 121 -50 121c-11 0 -25 -6 -42 -17c-101 -71 -203 -133 -379 -133c-463 0 -772 273 -772 742c0 458 319 766 774 766z" />
    <glyph glyph-name="Cacute" unicode="&#x106;" horiz-adv-x="1468" 
d="M955 1923c18 9 40 14 63 14c50 0 103 -24 129 -77c8 -18 12 -36 12 -54c0 -49 -29 -97 -77 -120c-95 -50 -197 -31 -437 -105l-14 25c199 168 223 270 324 317zM848 1479c180 0 287 -64 377 -133c15 -12 28 -18 40 -18c28 0 45 38 52 122h47c-6 -109 -8 -254 -8 -512h-47
c-19 197 -52 326 -189 416c-57 37 -123 61 -190 61c-314 0 -385 -387 -385 -694s71 -694 385 -694c67 0 133 24 190 61c137 84 170 221 189 444h47c0 -268 2 -419 8 -532h-47c-7 84 -21 121 -50 121c-11 0 -25 -6 -42 -17c-101 -71 -203 -133 -379 -133
c-463 0 -772 273 -772 742c0 458 319 766 774 766z" />
    <glyph glyph-name="Ccaron" unicode="&#x10c;" horiz-adv-x="1468" 
d="M1244 1937l10 -30c-178 -84 -344 -221 -444 -353h-37c-97 129 -264 267 -445 353l11 30c188 -28 387 -79 493 -125c90 46 256 97 412 125zM848 1479c180 0 287 -64 377 -133c15 -12 28 -18 40 -18c28 0 45 38 52 122h47c-6 -109 -8 -254 -8 -512h-47
c-19 197 -52 326 -189 416c-57 37 -123 61 -190 61c-314 0 -385 -387 -385 -694s71 -694 385 -694c67 0 133 24 190 61c137 84 170 221 189 444h47c0 -268 2 -419 8 -532h-47c-7 84 -21 121 -50 121c-11 0 -25 -6 -42 -17c-101 -71 -203 -133 -379 -133
c-463 0 -772 273 -772 742c0 458 319 766 774 766z" />
    <glyph glyph-name="Ccedilla" unicode="&#xc7;" horiz-adv-x="1468" 
d="M1309 532h47c0 -268 2 -419 8 -532h-47c-7 84 -21 121 -50 121c-11 0 -25 -6 -42 -17c-96 -67 -193 -127 -353 -133l-28 -94c55 21 113 31 182 31c117 0 172 -51 172 -119c0 -119 -162 -174 -385 -174c-82 0 -155 10 -205 27l13 36c22 -4 69 -10 119 -10
c90 0 188 23 188 78c0 37 -39 51 -98 51c-23 0 -50 -4 -68 -14l55 188c-447 12 -743 283 -743 742c0 458 319 766 774 766c180 0 287 -64 377 -133c15 -12 28 -18 40 -18c28 0 45 38 52 122h47c-6 -109 -8 -254 -8 -512h-47c-19 197 -52 326 -189 416
c-57 37 -123 61 -190 61c-314 0 -385 -387 -385 -694s71 -694 385 -694c67 0 133 24 190 61c137 84 170 221 189 444z" />
    <glyph glyph-name="Ccircumflex" unicode="&#x108;" horiz-adv-x="1468" 
d="M779 1958h37c96 -129 264 -266 444 -352l-10 -31c-189 29 -387 80 -494 125c-90 -45 -256 -96 -411 -125l-11 31c178 84 344 221 445 352zM848 1479c180 0 287 -64 377 -133c15 -12 28 -18 40 -18c28 0 45 38 52 122h47c-6 -109 -8 -254 -8 -512h-47
c-19 197 -52 326 -189 416c-57 37 -123 61 -190 61c-314 0 -385 -387 -385 -694s71 -694 385 -694c67 0 133 24 190 61c137 84 170 221 189 444h47c0 -268 2 -419 8 -532h-47c-7 84 -21 121 -50 121c-11 0 -25 -6 -42 -17c-101 -71 -203 -133 -379 -133
c-463 0 -772 273 -772 742c0 458 319 766 774 766z" />
    <glyph glyph-name="Cdotaccent" unicode="&#x10a;" horiz-adv-x="1468" 
d="M799 1909c129 0 202 -60 202 -176c0 -117 -73 -177 -202 -177c-131 0 -203 60 -203 177c0 116 72 176 203 176zM848 1479c180 0 287 -64 377 -133c15 -12 28 -18 40 -18c28 0 45 38 52 122h47c-6 -109 -8 -254 -8 -512h-47c-19 197 -52 326 -189 416
c-57 37 -123 61 -190 61c-314 0 -385 -387 -385 -694s71 -694 385 -694c67 0 133 24 190 61c137 84 170 221 189 444h47c0 -268 2 -419 8 -532h-47c-7 84 -21 121 -50 121c-11 0 -25 -6 -42 -17c-101 -71 -203 -133 -379 -133c-463 0 -772 273 -772 742
c0 458 319 766 774 766z" />
    <glyph glyph-name="D" unicode="D" horiz-adv-x="1661" 
d="M739 1450c574 0 846 -252 846 -709c0 -446 -319 -741 -864 -741c-66 0 -213 6 -307 6c-138 0 -279 -2 -357 -6v41c125 6 146 27 146 176v1016c0 149 -23 170 -146 176v41c64 -3 171 -7 280 -7c24 0 49 1 73 1c100 2 245 6 329 6zM770 1413c-125 0 -152 -35 -152 -176
v-1024c0 -143 27 -176 154 -176c279 0 383 250 383 696c0 459 -117 680 -385 680z" />
    <glyph glyph-name="Eth" unicode="&#xd0;" horiz-adv-x="1661" 
d="M739 1450c574 0 846 -252 846 -709c0 -446 -319 -741 -864 -741c-66 0 -213 6 -307 6c-138 0 -279 -2 -357 -6v41c125 6 146 27 146 176v492h-146v41h146v483c0 149 -23 170 -146 176v41c64 -3 171 -7 280 -7c24 0 49 1 73 1c100 2 245 6 329 6zM772 37
c279 0 383 250 383 696c0 459 -117 680 -385 680c-125 0 -152 -35 -152 -176v-487h234v-41h-234v-496c0 -143 27 -176 154 -176z" />
    <glyph glyph-name="Dcaron" unicode="&#x10e;" horiz-adv-x="1661" 
d="M1186 1937l10 -30c-178 -84 -344 -221 -444 -353h-37c-97 129 -264 267 -445 353l11 30c188 -28 387 -79 493 -125c90 46 256 97 412 125zM739 1450c574 0 846 -252 846 -709c0 -446 -319 -741 -864 -741c-66 0 -213 6 -307 6c-138 0 -279 -2 -357 -6v41
c125 6 146 27 146 176v1016c0 149 -23 170 -146 176v41c64 -3 171 -7 280 -7c24 0 49 1 73 1c100 2 245 6 329 6zM770 1413c-125 0 -152 -35 -152 -176v-1024c0 -143 27 -176 154 -176c279 0 383 250 383 696c0 459 -117 680 -385 680z" />
    <glyph glyph-name="Dcroat" unicode="&#x110;" horiz-adv-x="1661" 
d="M739 1450c574 0 846 -252 846 -709c0 -446 -319 -741 -864 -741c-66 0 -213 6 -307 6c-138 0 -279 -2 -357 -6v41c125 6 146 27 146 176v492h-146v41h146v483c0 149 -23 170 -146 176v41c64 -3 171 -7 280 -7c24 0 49 1 73 1c100 2 245 6 329 6zM772 37
c279 0 383 250 383 696c0 459 -117 680 -385 680c-125 0 -152 -35 -152 -176v-487h234v-41h-234v-496c0 -143 27 -176 154 -176z" />
    <glyph glyph-name="E" unicode="E" horiz-adv-x="1331" 
d="M1229 344c0 -68 0 -209 14 -344c-139 6 -332 6 -469 6c-147 0 -479 0 -717 -6v41c125 6 146 27 146 176v1016c0 149 -23 170 -146 176v41c238 -6 570 -6 717 -6c125 0 301 0 428 6c-10 -137 -14 -276 -14 -344c0 -57 2 -113 6 -148h-47c-51 340 -209 445 -377 445h-27
c-106 0 -125 -17 -125 -129v-524h21c154 0 254 151 279 270h47c-6 -90 -8 -151 -8 -199c0 -35 1 -63 1 -92c0 -67 3 -135 13 -291h-47c-25 152 -131 271 -285 271h-21v-533c0 -113 19 -129 125 -129h68c135 0 311 115 377 485h47c-4 -49 -6 -114 -6 -188z" />
    <glyph glyph-name="Eacute" unicode="&#xc9;" horiz-adv-x="1331" 
d="M940 1686c-95 -50 -197 -31 -437 -105l-14 25c199 168 223 270 324 317c18 9 40 14 63 14c50 0 103 -24 129 -77c8 -18 12 -36 12 -54c0 -49 -29 -97 -77 -120zM1229 344c0 -68 0 -209 14 -344c-139 6 -332 6 -469 6c-147 0 -479 0 -717 -6v41c125 6 146 27 146 176v1016
c0 149 -23 170 -146 176v41c238 -6 570 -6 717 -6c125 0 301 0 428 6c-10 -137 -14 -276 -14 -344c0 -57 2 -113 6 -148h-47c-51 340 -209 445 -377 445h-27c-106 0 -125 -17 -125 -129v-524h21c154 0 254 151 279 270h47c-6 -90 -8 -151 -8 -199c0 -35 1 -63 1 -92
c0 -67 3 -135 13 -291h-47c-25 152 -131 271 -285 271h-21v-533c0 -113 19 -129 125 -129h68c135 0 311 115 377 485h47c-4 -49 -6 -114 -6 -188z" />
    <glyph glyph-name="Ebreve" unicode="&#x114;" horiz-adv-x="1331" 
d="M634 1563c-278 0 -436 161 -489 299l24 22c80 -51 228 -119 465 -119c238 0 385 68 465 119l25 -22c-54 -138 -211 -299 -490 -299zM1229 344c0 -68 0 -209 14 -344c-139 6 -332 6 -469 6c-147 0 -479 0 -717 -6v41c125 6 146 27 146 176v1016c0 149 -23 170 -146 176v41
c238 -6 570 -6 717 -6c125 0 301 0 428 6c-10 -137 -14 -276 -14 -344c0 -57 2 -113 6 -148h-47c-51 340 -209 445 -377 445h-27c-106 0 -125 -17 -125 -129v-524h21c154 0 254 151 279 270h47c-6 -90 -8 -151 -8 -199c0 -35 1 -63 1 -92c0 -67 3 -135 13 -291h-47
c-25 152 -131 271 -285 271h-21v-533c0 -113 19 -129 125 -129h68c135 0 311 115 377 485h47c-4 -49 -6 -114 -6 -188z" />
    <glyph glyph-name="Ecaron" unicode="&#x11a;" horiz-adv-x="1331" 
d="M668 1554h-37c-97 129 -264 267 -445 353l11 30c188 -28 387 -79 493 -125c90 46 256 97 412 125l10 -30c-178 -84 -344 -221 -444 -353zM1229 344c0 -68 0 -209 14 -344c-139 6 -332 6 -469 6c-147 0 -479 0 -717 -6v41c125 6 146 27 146 176v1016
c0 149 -23 170 -146 176v41c238 -6 570 -6 717 -6c125 0 301 0 428 6c-10 -137 -14 -276 -14 -344c0 -57 2 -113 6 -148h-47c-51 340 -209 445 -377 445h-27c-106 0 -125 -17 -125 -129v-524h21c154 0 254 151 279 270h47c-6 -90 -8 -151 -8 -199c0 -35 1 -63 1 -92
c0 -67 3 -135 13 -291h-47c-25 152 -131 271 -285 271h-21v-533c0 -113 19 -129 125 -129h68c135 0 311 115 377 485h47c-4 -49 -6 -114 -6 -188z" />
    <glyph glyph-name="Ecircumflex" unicode="&#xca;" horiz-adv-x="1331" 
d="M614 1700c-90 -45 -256 -96 -411 -125l-11 31c178 84 344 221 445 352h37c96 -129 264 -266 444 -352l-10 -31c-189 29 -387 80 -494 125zM1229 344c0 -68 0 -209 14 -344c-139 6 -332 6 -469 6c-147 0 -479 0 -717 -6v41c125 6 146 27 146 176v1016
c0 149 -23 170 -146 176v41c238 -6 570 -6 717 -6c125 0 301 0 428 6c-10 -137 -14 -276 -14 -344c0 -57 2 -113 6 -148h-47c-51 340 -209 445 -377 445h-27c-106 0 -125 -17 -125 -129v-524h21c154 0 254 151 279 270h47c-6 -90 -8 -151 -8 -199c0 -35 1 -63 1 -92
c0 -67 3 -135 13 -291h-47c-25 152 -131 271 -285 271h-21v-533c0 -113 19 -129 125 -129h68c135 0 311 115 377 485h47c-4 -49 -6 -114 -6 -188z" />
    <glyph glyph-name="Edieresis" unicode="&#xcb;" horiz-adv-x="1331" 
d="M391 1561c-98 0 -178 79 -178 178c0 94 80 178 178 178c94 0 178 -84 178 -178c0 -99 -84 -178 -178 -178zM919 1561c-98 0 -178 79 -178 178c0 94 80 178 178 178c94 0 178 -84 178 -178c0 -99 -84 -178 -178 -178zM1229 344c0 -68 0 -209 14 -344c-139 6 -332 6 -469 6
c-147 0 -479 0 -717 -6v41c125 6 146 27 146 176v1016c0 149 -23 170 -146 176v41c238 -6 570 -6 717 -6c125 0 301 0 428 6c-10 -137 -14 -276 -14 -344c0 -57 2 -113 6 -148h-47c-51 340 -209 445 -377 445h-27c-106 0 -125 -17 -125 -129v-524h21c154 0 254 151 279 270
h47c-6 -90 -8 -151 -8 -199c0 -35 1 -63 1 -92c0 -67 3 -135 13 -291h-47c-25 152 -131 271 -285 271h-21v-533c0 -113 19 -129 125 -129h68c135 0 311 115 377 485h47c-4 -49 -6 -114 -6 -188z" />
    <glyph glyph-name="Edotaccent" unicode="&#x116;" horiz-adv-x="1331" 
d="M657 1556c-131 0 -203 60 -203 177c0 116 72 176 203 176c129 0 202 -60 202 -176c0 -117 -73 -177 -202 -177zM1229 344c0 -68 0 -209 14 -344c-139 6 -332 6 -469 6c-147 0 -479 0 -717 -6v41c125 6 146 27 146 176v1016c0 149 -23 170 -146 176v41
c238 -6 570 -6 717 -6c125 0 301 0 428 6c-10 -137 -14 -276 -14 -344c0 -57 2 -113 6 -148h-47c-51 340 -209 445 -377 445h-27c-106 0 -125 -17 -125 -129v-524h21c154 0 254 151 279 270h47c-6 -90 -8 -151 -8 -199c0 -35 1 -63 1 -92c0 -67 3 -135 13 -291h-47
c-25 152 -131 271 -285 271h-21v-533c0 -113 19 -129 125 -129h68c135 0 311 115 377 485h47c-4 -49 -6 -114 -6 -188z" />
    <glyph glyph-name="Egrave" unicode="&#xc8;" horiz-adv-x="1331" 
d="M342 1686c-48 24 -78 71 -78 120c0 18 4 36 12 54c26 53 79 77 130 77c22 0 44 -5 63 -14c100 -47 125 -149 323 -317l-14 -25c-240 74 -342 55 -436 105zM1229 344c0 -68 0 -209 14 -344c-139 6 -332 6 -469 6c-147 0 -479 0 -717 -6v41c125 6 146 27 146 176v1016
c0 149 -23 170 -146 176v41c238 -6 570 -6 717 -6c125 0 301 0 428 6c-10 -137 -14 -276 -14 -344c0 -57 2 -113 6 -148h-47c-51 340 -209 445 -377 445h-27c-106 0 -125 -17 -125 -129v-524h21c154 0 254 151 279 270h47c-6 -90 -8 -151 -8 -199c0 -35 1 -63 1 -92
c0 -67 3 -135 13 -291h-47c-25 152 -131 271 -285 271h-21v-533c0 -113 19 -129 125 -129h68c135 0 311 115 377 485h47c-4 -49 -6 -114 -6 -188z" />
    <glyph glyph-name="Emacron" unicode="&#x112;" horiz-adv-x="1331" 
d="M1097 1677h-885v52h885v-52zM1229 344c0 -68 0 -209 14 -344c-139 6 -332 6 -469 6c-147 0 -479 0 -717 -6v41c125 6 146 27 146 176v1016c0 149 -23 170 -146 176v41c238 -6 570 -6 717 -6c125 0 301 0 428 6c-10 -137 -14 -276 -14 -344c0 -57 2 -113 6 -148h-47
c-51 340 -209 445 -377 445h-27c-106 0 -125 -17 -125 -129v-524h21c154 0 254 151 279 270h47c-6 -90 -8 -151 -8 -199c0 -35 1 -63 1 -92c0 -67 3 -135 13 -291h-47c-25 152 -131 271 -285 271h-21v-533c0 -113 19 -129 125 -129h68c135 0 311 115 377 485h47
c-4 -49 -6 -114 -6 -188z" />
    <glyph glyph-name="Eogonek" unicode="&#x118;" horiz-adv-x="1331" 
d="M1221 -215l27 -31c-80 -98 -170 -139 -314 -139c-133 0 -202 53 -202 145c0 116 152 199 409 243c-122 3 -261 3 -367 3c-147 0 -479 0 -717 -6v41c125 6 146 27 146 176v1016c0 149 -23 170 -146 176v41c238 -6 570 -6 717 -6c125 0 301 0 428 6
c-10 -137 -14 -276 -14 -344c0 -57 2 -113 6 -148h-47c-51 340 -209 445 -377 445h-27c-106 0 -125 -17 -125 -129v-524h21c154 0 254 151 279 270h47c-6 -90 -8 -151 -8 -199c0 -35 1 -63 1 -92c0 -67 3 -135 13 -291h-47c-25 152 -131 271 -285 271h-21v-533
c0 -113 19 -129 125 -129h68c135 0 311 115 377 485h47c-4 -49 -6 -114 -6 -188c0 -68 0 -209 14 -344l-23 1c-159 -56 -216 -130 -216 -185c0 -56 27 -78 82 -78c45 0 104 20 135 47z" />
    <glyph glyph-name="F" unicode="F" horiz-adv-x="1245" 
d="M1202 1450c-10 -137 -14 -276 -14 -344c0 -57 2 -113 6 -148h-47c-72 340 -229 445 -377 445h-27c-106 0 -125 -17 -125 -129v-524h21c154 0 254 151 279 270h47c-6 -90 -8 -151 -8 -199c0 -35 1 -63 1 -92c0 -67 3 -135 13 -291h-47c-25 152 -131 271 -285 271h-21v-471
c0 -168 39 -191 228 -191v-47c-92 2 -252 6 -422 6c-125 0 -256 -4 -367 -6v41c125 6 146 27 146 176v1016c0 149 -23 170 -146 176v41c238 -6 570 -6 717 -6c125 0 301 0 428 6z" />
    <glyph glyph-name="G" unicode="G" horiz-adv-x="1548" 
d="M868 1479c191 0 306 -60 398 -133c14 -13 28 -19 41 -19c28 0 43 39 51 123h47c-6 -109 -8 -254 -8 -512h-47c-19 197 -54 324 -189 416c-57 39 -139 61 -211 61c-315 0 -405 -387 -405 -694c0 -492 131 -709 329 -709c44 0 76 8 101 25c29 20 43 53 43 102v205
c0 199 -35 231 -207 238v41c92 -5 268 -7 391 -7c131 0 246 2 316 7v-41c-70 -7 -84 -25 -84 -176v-406h-41c-2 47 -21 117 -64 117c-22 0 -55 -6 -139 -47c-107 -52 -229 -99 -346 -99c-514 0 -770 275 -770 742c0 458 327 766 794 766z" />
    <glyph glyph-name="Gacute" unicode="&#x1f4;" horiz-adv-x="1548" 
d="M983 1923c18 9 40 14 63 14c50 0 103 -24 129 -77c8 -18 12 -36 12 -54c0 -49 -29 -97 -77 -120c-95 -50 -197 -31 -437 -105l-14 25c199 168 223 270 324 317zM868 1479c191 0 306 -60 398 -133c14 -13 28 -19 41 -19c28 0 43 39 51 123h47c-6 -109 -8 -254 -8 -512h-47
c-19 197 -54 324 -189 416c-57 39 -139 61 -211 61c-315 0 -405 -387 -405 -694c0 -492 131 -709 329 -709c44 0 76 8 101 25c29 20 43 53 43 102v205c0 199 -35 231 -207 238v41c92 -5 268 -7 391 -7c131 0 246 2 316 7v-41c-70 -7 -84 -25 -84 -176v-406h-41
c-2 47 -21 117 -64 117c-22 0 -55 -6 -139 -47c-107 -52 -229 -99 -346 -99c-514 0 -770 275 -770 742c0 458 327 766 794 766z" />
    <glyph glyph-name="Gbreve" unicode="&#x11e;" horiz-adv-x="1548" 
d="M1269 1884l25 -22c-54 -138 -211 -299 -490 -299c-278 0 -436 161 -489 299l24 22c80 -51 228 -119 465 -119c238 0 385 68 465 119zM868 1479c191 0 306 -60 398 -133c14 -13 28 -19 41 -19c28 0 43 39 51 123h47c-6 -109 -8 -254 -8 -512h-47c-19 197 -54 324 -189 416
c-57 39 -139 61 -211 61c-315 0 -405 -387 -405 -694c0 -492 131 -709 329 -709c44 0 76 8 101 25c29 20 43 53 43 102v205c0 199 -35 231 -207 238v41c92 -5 268 -7 391 -7c131 0 246 2 316 7v-41c-70 -7 -84 -25 -84 -176v-406h-41c-2 47 -21 117 -64 117
c-22 0 -55 -6 -139 -47c-107 -52 -229 -99 -346 -99c-514 0 -770 275 -770 742c0 458 327 766 794 766z" />
    <glyph glyph-name="Gcircumflex" unicode="&#x11c;" horiz-adv-x="1548" 
d="M807 1958h37c96 -129 264 -266 444 -352l-10 -31c-189 29 -387 80 -494 125c-90 -45 -256 -96 -411 -125l-11 31c178 84 344 221 445 352zM868 1479c191 0 306 -60 398 -133c14 -13 28 -19 41 -19c28 0 43 39 51 123h47c-6 -109 -8 -254 -8 -512h-47
c-19 197 -54 324 -189 416c-57 39 -139 61 -211 61c-315 0 -405 -387 -405 -694c0 -492 131 -709 329 -709c44 0 76 8 101 25c29 20 43 53 43 102v205c0 199 -35 231 -207 238v41c92 -5 268 -7 391 -7c131 0 246 2 316 7v-41c-70 -7 -84 -25 -84 -176v-406h-41
c-2 47 -21 117 -64 117c-22 0 -55 -6 -139 -47c-107 -52 -229 -99 -346 -99c-514 0 -770 275 -770 742c0 458 327 766 794 766z" />
    <glyph glyph-name="Gcommaaccent" unicode="&#x122;" horiz-adv-x="1548" 
d="M868 1479c191 0 306 -60 398 -133c14 -13 28 -19 41 -19c28 0 43 39 51 123h47c-6 -109 -8 -254 -8 -512h-47c-19 197 -54 324 -189 416c-57 39 -139 61 -211 61c-315 0 -405 -387 -405 -694c0 -492 131 -709 329 -709c44 0 76 8 101 25c29 20 43 53 43 102v205
c0 199 -35 231 -207 238v41c92 -5 268 -7 391 -7c131 0 246 2 316 7v-41c-70 -7 -84 -25 -84 -176v-406h-41c-2 47 -21 117 -64 117c-22 0 -55 -6 -139 -47c-107 -52 -229 -99 -346 -99c-514 0 -770 275 -770 742c0 458 327 766 794 766zM856 -94c113 0 190 -58 190 -168
c0 -137 -94 -236 -276 -240l-4 45c117 15 172 43 188 103c-20 -19 -51 -31 -108 -31c-109 0 -172 47 -172 141c0 97 63 150 182 150z" />
    <glyph glyph-name="Gdotaccent" unicode="&#x120;" horiz-adv-x="1548" 
d="M854 1909c129 0 202 -60 202 -176c0 -117 -73 -177 -202 -177c-131 0 -203 60 -203 177c0 116 72 176 203 176zM868 1479c191 0 306 -60 398 -133c14 -13 28 -19 41 -19c28 0 43 39 51 123h47c-6 -109 -8 -254 -8 -512h-47c-19 197 -54 324 -189 416
c-57 39 -139 61 -211 61c-315 0 -405 -387 -405 -694c0 -492 131 -709 329 -709c44 0 76 8 101 25c29 20 43 53 43 102v205c0 199 -35 231 -207 238v41c92 -5 268 -7 391 -7c131 0 246 2 316 7v-41c-70 -7 -84 -25 -84 -176v-406h-41c-2 47 -21 117 -64 117
c-22 0 -55 -6 -139 -47c-107 -52 -229 -99 -346 -99c-514 0 -770 275 -770 742c0 458 327 766 794 766z" />
    <glyph glyph-name="H" unicode="H" horiz-adv-x="1698" 
d="M1640 1450v-41c-124 -6 -145 -27 -145 -176v-1016c0 -149 23 -170 145 -176v-41c-73 4 -204 6 -344 6c-135 0 -278 -2 -362 -6v41c125 6 145 27 145 176v492h-461v-492c0 -149 23 -170 146 -176v-41c-80 4 -215 6 -342 6c-148 0 -287 -2 -365 -6v41c125 6 146 27 146 176
v1016c0 149 -23 170 -146 176v41c78 -4 217 -6 365 -6c127 0 262 2 342 6v-41c-125 -6 -146 -27 -146 -176v-483h461v483c0 149 -22 170 -145 176v41c84 -4 227 -6 362 -6c140 0 271 2 344 6z" />
    <glyph glyph-name="Hbar" unicode="&#x126;" horiz-adv-x="1698" 
d="M1640 1450v-41c-124 -6 -145 -27 -145 -176v-141h145v-41h-145v-834c0 -149 23 -170 145 -176v-41c-73 4 -204 6 -344 6c-135 0 -278 -2 -362 -6v41c125 6 145 27 145 176v492h-461v-492c0 -149 23 -170 146 -176v-41c-80 4 -215 6 -342 6c-148 0 -287 -2 -365 -6v41
c125 6 146 27 146 176v834h-146v41h146v141c0 149 -23 170 -146 176v41c78 -4 217 -6 365 -6c127 0 262 2 342 6v-41c-125 -6 -146 -27 -146 -176v-141h461v141c0 149 -22 170 -145 176v41c84 -4 227 -6 362 -6c140 0 271 2 344 6zM1079 1051h-461v-301h461v301z" />
    <glyph glyph-name="Hcircumflex" unicode="&#x124;" horiz-adv-x="1698" 
d="M836 1958h37c96 -129 264 -266 444 -352l-10 -31c-189 29 -387 80 -494 125c-90 -45 -256 -96 -411 -125l-11 31c178 84 344 221 445 352zM1640 1450v-41c-124 -6 -145 -27 -145 -176v-1016c0 -149 23 -170 145 -176v-41c-73 4 -204 6 -344 6c-135 0 -278 -2 -362 -6v41
c125 6 145 27 145 176v492h-461v-492c0 -149 23 -170 146 -176v-41c-80 4 -215 6 -342 6c-148 0 -287 -2 -365 -6v41c125 6 146 27 146 176v1016c0 149 -23 170 -146 176v41c78 -4 217 -6 365 -6c127 0 262 2 342 6v-41c-125 -6 -146 -27 -146 -176v-483h461v483
c0 149 -22 170 -145 176v41c84 -4 227 -6 362 -6c140 0 271 2 344 6z" />
    <glyph glyph-name="I" unicode="I" horiz-adv-x="821" 
d="M764 1450v-41c-125 -6 -146 -27 -146 -176v-1016c0 -149 23 -170 146 -176v-41c-80 4 -215 6 -342 6c-148 0 -287 -2 -365 -6v41c125 6 146 27 146 176v1016c0 149 -23 170 -146 176v41c78 -4 217 -6 365 -6c127 0 262 2 342 6z" />
    <glyph glyph-name="IJ" unicode="&#x132;" horiz-adv-x="1634" 
d="M764 1450v-41c-125 -6 -146 -27 -146 -176v-1016c0 -149 23 -170 146 -176v-41c-80 4 -215 6 -342 6c-148 0 -287 -2 -365 -6v41c125 6 146 27 146 176v1016c0 149 -23 170 -146 176v41c78 -4 217 -6 365 -6c127 0 262 2 342 6zM1590 1450v-41
c-125 -6 -146 -27 -146 -176v-750c0 -52 1 -110 1 -168c0 -131 -5 -268 -36 -366c-61 -189 -270 -334 -575 -334c-72 0 -166 8 -229 39c-74 37 -103 88 -103 153c0 97 80 158 201 158c113 0 184 -51 184 -151c0 -60 -35 -123 -119 -154c13 -2 25 -2 37 -2
c92 0 154 59 181 129c43 119 43 227 43 510v936c0 149 -23 170 -146 176v41c74 -4 205 -6 344 -6c135 0 279 2 363 6z" />
    <glyph glyph-name="Iacute" unicode="&#xcd;" horiz-adv-x="821" 
d="M580 1923c18 9 40 14 63 14c50 0 103 -24 129 -77c8 -18 12 -36 12 -54c0 -49 -29 -97 -77 -120c-95 -50 -197 -31 -437 -105l-14 25c199 168 223 270 324 317zM764 1450v-41c-125 -6 -146 -27 -146 -176v-1016c0 -149 23 -170 146 -176v-41c-80 4 -215 6 -342 6
c-148 0 -287 -2 -365 -6v41c125 6 146 27 146 176v1016c0 149 -23 170 -146 176v41c78 -4 217 -6 365 -6c127 0 262 2 342 6z" />
    <glyph glyph-name="Ibreve" unicode="&#x12c;" horiz-adv-x="821" 
d="M866 1884l25 -22c-54 -138 -211 -299 -490 -299c-278 0 -436 161 -489 299l24 22c80 -51 228 -119 465 -119c238 0 385 68 465 119zM764 1450v-41c-125 -6 -146 -27 -146 -176v-1016c0 -149 23 -170 146 -176v-41c-80 4 -215 6 -342 6c-148 0 -287 -2 -365 -6v41
c125 6 146 27 146 176v1016c0 149 -23 170 -146 176v41c78 -4 217 -6 365 -6c127 0 262 2 342 6z" />
    <glyph glyph-name="Icircumflex" unicode="&#xce;" horiz-adv-x="821" 
d="M404 1958h37c96 -129 264 -266 444 -352l-10 -31c-189 29 -387 80 -494 125c-90 -45 -256 -96 -411 -125l-11 31c178 84 344 221 445 352zM764 1450v-41c-125 -6 -146 -27 -146 -176v-1016c0 -149 23 -170 146 -176v-41c-80 4 -215 6 -342 6c-148 0 -287 -2 -365 -6v41
c125 6 146 27 146 176v1016c0 149 -23 170 -146 176v41c78 -4 217 -6 365 -6c127 0 262 2 342 6z" />
    <glyph glyph-name="Idieresis" unicode="&#xcf;" horiz-adv-x="821" 
d="M158 1917c94 0 178 -84 178 -178c0 -99 -84 -178 -178 -178c-98 0 -178 79 -178 178c0 94 80 178 178 178zM686 1917c94 0 178 -84 178 -178c0 -99 -84 -178 -178 -178c-98 0 -178 79 -178 178c0 94 80 178 178 178zM764 1450v-41c-125 -6 -146 -27 -146 -176v-1016
c0 -149 23 -170 146 -176v-41c-80 4 -215 6 -342 6c-148 0 -287 -2 -365 -6v41c125 6 146 27 146 176v1016c0 149 -23 170 -146 176v41c78 -4 217 -6 365 -6c127 0 262 2 342 6z" />
    <glyph glyph-name="Idotaccent" unicode="&#x130;" horiz-adv-x="821" 
d="M422 1999c141 0 223 -60 223 -177c0 -116 -82 -176 -223 -176c-144 0 -223 60 -223 176c0 117 79 177 223 177zM764 1450v-41c-125 -6 -146 -27 -146 -176v-1016c0 -149 23 -170 146 -176v-41c-80 4 -215 6 -342 6c-148 0 -287 -2 -365 -6v41c125 6 146 27 146 176v1016
c0 149 -23 170 -146 176v41c78 -4 217 -6 365 -6c127 0 262 2 342 6z" />
    <glyph glyph-name="Igrave" unicode="&#xcc;" horiz-adv-x="821" 
d="M236 1923c100 -47 125 -149 323 -317l-14 -25c-240 74 -342 55 -436 105c-48 24 -78 71 -78 120c0 18 4 36 12 54c26 53 79 77 130 77c22 0 44 -5 63 -14zM764 1450v-41c-125 -6 -146 -27 -146 -176v-1016c0 -149 23 -170 146 -176v-41c-80 4 -215 6 -342 6
c-148 0 -287 -2 -365 -6v41c125 6 146 27 146 176v1016c0 149 -23 170 -146 176v41c78 -4 217 -6 365 -6c127 0 262 2 342 6z" />
    <glyph glyph-name="Imacron" unicode="&#x12a;" horiz-adv-x="821" 
d="M864 1677h-885v52h885v-52zM764 1450v-41c-125 -6 -146 -27 -146 -176v-1016c0 -149 23 -170 146 -176v-41c-80 4 -215 6 -342 6c-148 0 -287 -2 -365 -6v41c125 6 146 27 146 176v1016c0 149 -23 170 -146 176v41c78 -4 217 -6 365 -6c127 0 262 2 342 6z" />
    <glyph glyph-name="Iogonek" unicode="&#x12e;" horiz-adv-x="821" 
d="M764 1450v-41c-125 -6 -146 -27 -146 -176v-1016c0 -149 23 -170 146 -176v-41l-51 2c-161 -56 -219 -130 -219 -186s27 -78 82 -78c45 0 104 20 135 47l27 -31c-80 -98 -170 -139 -314 -139c-133 0 -202 53 -202 145c0 117 154 200 414 244c-66 1 -141 2 -214 2
c-148 0 -287 -2 -365 -6v41c125 6 146 27 146 176v1016c0 149 -23 170 -146 176v41c78 -4 217 -6 365 -6c127 0 262 2 342 6z" />
    <glyph glyph-name="Itilde" unicode="&#x128;" horiz-adv-x="821" 
d="M232 1921c219 0 276 -135 453 -135c73 0 139 31 198 108l29 -14c-55 -223 -176 -313 -303 -313c-221 0 -279 137 -455 137c-74 0 -139 -33 -199 -111l-28 15c55 223 176 313 305 313zM764 1450v-41c-125 -6 -146 -27 -146 -176v-1016c0 -149 23 -170 146 -176v-41
c-80 4 -215 6 -342 6c-148 0 -287 -2 -365 -6v41c125 6 146 27 146 176v1016c0 149 -23 170 -146 176v41c78 -4 217 -6 365 -6c127 0 262 2 342 6z" />
    <glyph glyph-name="J" unicode="J" horiz-adv-x="799" 
d="M754 1450v-41c-125 -6 -146 -27 -146 -176v-750c0 -52 1 -110 1 -168c0 -131 -5 -268 -36 -366c-61 -189 -270 -334 -575 -334c-72 0 -166 8 -229 39c-74 37 -103 88 -103 153c0 97 80 158 201 158c113 0 184 -51 184 -151c0 -60 -35 -123 -119 -154c13 -2 25 -2 37 -2
c92 0 154 59 181 129c43 119 43 227 43 510v936c0 149 -23 170 -146 176v41c74 -4 205 -6 344 -6c135 0 279 2 363 6z" />
    <glyph glyph-name="Jcircumflex" unicode="&#x134;" horiz-adv-x="799" 
d="M373 1958h37c96 -129 264 -266 444 -352l-10 -31c-189 29 -387 80 -494 125c-90 -45 -256 -96 -411 -125l-11 31c178 84 344 221 445 352zM754 1450v-41c-125 -6 -146 -27 -146 -176v-750c0 -52 1 -110 1 -168c0 -131 -5 -268 -36 -366c-61 -189 -270 -334 -575 -334
c-72 0 -166 8 -229 39c-74 37 -103 88 -103 153c0 97 80 158 201 158c113 0 184 -51 184 -151c0 -60 -35 -123 -119 -154c13 -2 25 -2 37 -2c92 0 154 59 181 129c43 119 43 227 43 510v936c0 149 -23 170 -146 176v41c74 -4 205 -6 344 -6c135 0 279 2 363 6z" />
    <glyph glyph-name="K" unicode="K" horiz-adv-x="1544" 
d="M977 958l475 -792c35 -57 64 -92 125 -125v-41c-115 4 -252 6 -369 6c-63 0 -151 0 -293 -6v41c85 4 118 13 118 39c0 13 -8 30 -21 53l-297 502c-39 66 -58 85 -97 91v-509c0 -149 23 -170 146 -176v-41c-80 4 -215 6 -342 6c-148 0 -287 -2 -365 -6v41
c125 6 146 27 146 176v1016c0 149 -23 170 -146 176v41c78 -4 217 -6 365 -6c127 0 262 2 342 6v-41c-125 -6 -146 -27 -146 -176v-462c113 8 204 79 351 243l69 78c64 72 91 134 91 184c0 82 -73 131 -168 135v39c114 -4 192 -6 346 -6c88 0 151 2 206 6v-39
c-92 -25 -206 -80 -335 -225z" />
    <glyph glyph-name="Kcommaaccent" unicode="&#x136;" horiz-adv-x="1544" 
d="M977 958l475 -792c35 -57 64 -92 125 -125v-41c-115 4 -252 6 -369 6c-63 0 -151 0 -293 -6v41c85 4 118 13 118 39c0 13 -8 30 -21 53l-297 502c-39 66 -58 85 -97 91v-509c0 -149 23 -170 146 -176v-41c-80 4 -215 6 -342 6c-148 0 -287 -2 -365 -6v41
c125 6 146 27 146 176v1016c0 149 -23 170 -146 176v41c78 -4 217 -6 365 -6c127 0 262 2 342 6v-41c-125 -6 -146 -27 -146 -176v-462c113 8 204 79 351 243l69 78c64 72 91 134 91 184c0 82 -73 131 -168 135v39c114 -4 192 -6 346 -6c88 0 151 2 206 6v-39
c-92 -25 -206 -80 -335 -225zM883 -94c113 0 190 -58 190 -168c0 -137 -94 -236 -276 -240l-4 45c117 15 172 43 188 103c-20 -19 -51 -31 -108 -31c-109 0 -172 47 -172 141c0 97 63 150 182 150z" />
    <glyph glyph-name="L" unicode="L" horiz-adv-x="1282" 
d="M784 1450v-41c-139 -6 -166 -27 -166 -176v-1057c0 -113 17 -129 105 -129h68c143 0 350 242 397 506h47c-4 -49 -6 -115 -6 -188c0 -72 0 -222 14 -365c-139 6 -332 6 -469 6c-147 0 -479 0 -717 -6v41c125 6 146 27 146 176v1016c0 149 -23 170 -146 176v41
c78 -4 217 -6 365 -6c135 0 278 2 362 6z" />
    <glyph glyph-name="Lacute" unicode="&#x139;" horiz-adv-x="1282" 
d="M580 1923c18 9 40 14 63 14c50 0 103 -24 129 -77c8 -18 12 -36 12 -54c0 -49 -29 -97 -77 -120c-95 -50 -197 -31 -437 -105l-14 25c199 168 223 270 324 317zM784 1450v-41c-139 -6 -166 -27 -166 -176v-1057c0 -113 17 -129 105 -129h68c143 0 350 242 397 506h47
c-4 -49 -6 -115 -6 -188c0 -72 0 -222 14 -365c-139 6 -332 6 -469 6c-147 0 -479 0 -717 -6v41c125 6 146 27 146 176v1016c0 149 -23 170 -146 176v41c78 -4 217 -6 365 -6c135 0 278 2 362 6z" />
    <glyph glyph-name="Lcaron" unicode="&#x13d;" horiz-adv-x="1282" 
d="M1175 1462c6 -14 10 -49 10 -73c0 -89 -110 -213 -280 -410l-29 8c33 209 41 297 41 338c0 53 -10 82 -61 82v43c48 -3 88 -4 124 -4c79 0 134 6 195 16zM784 1450v-41c-139 -6 -166 -27 -166 -176v-1057c0 -113 17 -129 105 -129h68c143 0 350 242 397 506h47
c-4 -49 -6 -115 -6 -188c0 -72 0 -222 14 -365c-139 6 -332 6 -469 6c-147 0 -479 0 -717 -6v41c125 6 146 27 146 176v1016c0 149 -23 170 -146 176v41c78 -4 217 -6 365 -6c135 0 278 2 362 6z" />
    <glyph glyph-name="Lcommaaccent" unicode="&#x13b;" horiz-adv-x="1282" 
d="M784 1450v-41c-139 -6 -166 -27 -166 -176v-1057c0 -113 17 -129 105 -129h68c143 0 350 242 397 506h47c-4 -49 -6 -115 -6 -188c0 -72 0 -222 14 -365c-139 6 -332 6 -469 6c-147 0 -479 0 -717 -6v41c125 6 146 27 146 176v1016c0 149 -23 170 -146 176v41
c78 -4 217 -6 365 -6c135 0 278 2 362 6zM752 -94c113 0 190 -58 190 -168c0 -137 -94 -236 -276 -240l-4 45c117 15 172 43 188 103c-20 -19 -51 -31 -108 -31c-109 0 -172 47 -172 141c0 97 63 150 182 150z" />
    <glyph glyph-name="Ldot" unicode="&#x13f;" horiz-adv-x="1399" 
d="M784 1450v-41c-139 -6 -166 -27 -166 -176v-1057c0 -113 17 -129 105 -129h68c143 0 350 242 397 506h47c-4 -49 -6 -115 -6 -188c0 -72 0 -222 14 -365c-139 6 -332 6 -469 6c-147 0 -479 0 -717 -6v41c125 6 146 27 146 176v1016c0 149 -23 170 -146 176v41
c78 -4 217 -6 365 -6c135 0 278 2 362 6zM1157 951c129 0 203 -60 203 -177c0 -116 -74 -176 -203 -176c-131 0 -203 60 -203 176c0 117 72 177 203 177z" />
    <glyph glyph-name="Lslash" unicode="&#x141;" horiz-adv-x="1282" 
d="M1229 365c0 -72 0 -222 14 -365c-139 6 -332 6 -469 6c-147 0 -479 0 -717 -6v41c125 6 146 27 146 176v281l-146 -84v47l146 84v688c0 149 -23 170 -146 176v41c78 -4 217 -6 365 -6c135 0 278 2 362 6v-41c-139 -6 -166 -27 -166 -176v-468l351 204v-47l-351 -204v-542
c0 -113 17 -129 105 -129h68c143 0 350 242 397 506h47c-4 -49 -6 -115 -6 -188z" />
    <glyph glyph-name="M" unicode="M" horiz-adv-x="1976" 
d="M1919 1450v-41c-125 -6 -145 -27 -145 -176v-1016c0 -149 22 -170 145 -176v-41c-84 4 -227 6 -363 6c-147 0 -286 -2 -364 -6v41c139 6 166 27 166 176v1049l-494 -1264h-33l-577 1315v-916c0 -274 12 -333 207 -360v-41c-55 4 -154 6 -230 6c-61 0 -129 -2 -170 -6v41
c125 27 146 88 146 319v873c0 149 -23 170 -146 176v41c41 -4 109 -6 170 -6c158 0 306 2 424 6l387 -870l336 864h178c136 0 279 2 363 6z" />
    <glyph glyph-name="N" unicode="N" horiz-adv-x="1499" 
d="M1450 1450v-41c-125 -27 -145 -88 -145 -319v-1090c-20 2 -43 3 -67 3c-25 0 -50 -1 -77 -3l-907 991v-590c0 -274 12 -333 207 -360v-41c-55 4 -154 6 -230 6c-61 0 -129 -2 -170 -6v41c125 27 146 88 146 319v873c0 149 -23 170 -146 176v41c41 -4 109 -6 170 -6
c68 0 138 2 189 6l837 -885v484c0 274 -12 333 -206 360v41c55 -4 153 -6 229 -6c61 0 129 2 170 6z" />
    <glyph glyph-name="Nacute" unicode="&#x143;" horiz-adv-x="1499" 
d="M940 1923c18 9 40 14 63 14c50 0 103 -24 129 -77c8 -18 12 -36 12 -54c0 -49 -29 -97 -77 -120c-95 -50 -197 -31 -437 -105l-14 25c199 168 223 270 324 317zM1450 1450v-41c-125 -27 -145 -88 -145 -319v-1090c-20 2 -43 3 -67 3c-25 0 -50 -1 -77 -3l-907 991v-590
c0 -274 12 -333 207 -360v-41c-55 4 -154 6 -230 6c-61 0 -129 -2 -170 -6v41c125 27 146 88 146 319v873c0 149 -23 170 -146 176v41c41 -4 109 -6 170 -6c68 0 138 2 189 6l837 -885v484c0 274 -12 333 -206 360v41c55 -4 153 -6 229 -6c61 0 129 2 170 6z" />
    <glyph glyph-name="Ncaron" unicode="&#x147;" horiz-adv-x="1499" 
d="M1229 1937l10 -30c-178 -84 -344 -221 -444 -353h-37c-97 129 -264 267 -445 353l11 30c188 -28 387 -79 493 -125c90 46 256 97 412 125zM1450 1450v-41c-125 -27 -145 -88 -145 -319v-1090c-20 2 -43 3 -67 3c-25 0 -50 -1 -77 -3l-907 991v-590
c0 -274 12 -333 207 -360v-41c-55 4 -154 6 -230 6c-61 0 -129 -2 -170 -6v41c125 27 146 88 146 319v873c0 149 -23 170 -146 176v41c41 -4 109 -6 170 -6c68 0 138 2 189 6l837 -885v484c0 274 -12 333 -206 360v41c55 -4 153 -6 229 -6c61 0 129 2 170 6z" />
    <glyph glyph-name="Ncommaaccent" unicode="&#x145;" horiz-adv-x="1499" 
d="M1450 1450v-41c-125 -27 -145 -88 -145 -319v-1090c-20 2 -43 3 -67 3c-25 0 -50 -1 -77 -3l-907 991v-590c0 -274 12 -333 207 -360v-41c-55 4 -154 6 -230 6c-61 0 -129 -2 -170 -6v41c125 27 146 88 146 319v873c0 149 -23 170 -146 176v41c41 -4 109 -6 170 -6
c68 0 138 2 189 6l837 -885v484c0 274 -12 333 -206 360v41c55 -4 153 -6 229 -6c61 0 129 2 170 6zM766 -94c113 0 190 -58 190 -168c0 -137 -94 -236 -276 -240l-4 45c117 15 172 43 188 103c-20 -19 -51 -31 -108 -31c-109 0 -172 47 -172 141c0 97 63 150 182 150z" />
    <glyph glyph-name="Eng" unicode="&#x14a;" horiz-adv-x="1493" 
d="M1276 1444c61 0 129 2 170 6v-41c-123 -6 -146 -27 -146 -176v-1139c0 -391 -106 -479 -301 -479c-155 0 -272 57 -272 188c0 103 80 162 201 162c112 0 184 -53 184 -147c0 -66 -35 -129 -119 -160c13 -2 25 -2 37 -2c145 0 213 106 222 347c-29 1 -60 0 -95 -3
l-907 991v-774c0 -149 26 -170 166 -176v-41c-49 4 -119 6 -189 6c-61 0 -129 -2 -170 -6v41c123 6 146 27 146 176v1016c0 149 -23 170 -146 176v41c41 -4 109 -6 170 -6c68 0 138 2 189 6l837 -885v668c0 149 -26 170 -166 176v41c50 -4 119 -6 189 -6z" />
    <glyph glyph-name="Ntilde" unicode="&#xd1;" horiz-adv-x="1499" 
d="M592 1921c219 0 276 -135 453 -135c73 0 139 31 198 108l29 -14c-55 -223 -176 -313 -303 -313c-221 0 -279 137 -455 137c-74 0 -139 -33 -199 -111l-28 15c55 223 176 313 305 313zM1450 1450v-41c-125 -27 -145 -88 -145 -319v-1090c-20 2 -43 3 -67 3
c-25 0 -50 -1 -77 -3l-907 991v-590c0 -274 12 -333 207 -360v-41c-55 4 -154 6 -230 6c-61 0 -129 -2 -170 -6v41c125 27 146 88 146 319v873c0 149 -23 170 -146 176v41c41 -4 109 -6 170 -6c68 0 138 2 189 6l837 -885v484c0 274 -12 333 -206 360v41
c55 -4 153 -6 229 -6c61 0 129 2 170 6z" />
    <glyph glyph-name="O" unicode="O" horiz-adv-x="1694" 
d="M848 1479c463 0 772 -273 772 -742c0 -458 -320 -766 -774 -766c-463 0 -772 273 -772 742c0 458 319 766 774 766zM840 1442c-205 0 -336 -297 -336 -721c0 -436 158 -713 350 -713c205 0 336 297 336 721c0 436 -158 713 -350 713z" />
    <glyph glyph-name="Oacute" unicode="&#xd3;" horiz-adv-x="1694" 
d="M1002 1923c18 9 40 14 63 14c50 0 103 -24 129 -77c8 -18 12 -36 12 -54c0 -49 -29 -97 -77 -120c-95 -50 -197 -31 -437 -105l-14 25c199 168 223 270 324 317zM848 1479c463 0 772 -273 772 -742c0 -458 -320 -766 -774 -766c-463 0 -772 273 -772 742
c0 458 319 766 774 766zM840 1442c-205 0 -336 -297 -336 -721c0 -436 158 -713 350 -713c205 0 336 297 336 721c0 436 -158 713 -350 713z" />
    <glyph glyph-name="Obreve" unicode="&#x14e;" horiz-adv-x="1694" 
d="M1288 1884l25 -22c-54 -138 -211 -299 -490 -299c-278 0 -436 161 -489 299l24 22c80 -51 228 -119 465 -119c238 0 385 68 465 119zM848 1479c463 0 772 -273 772 -742c0 -458 -320 -766 -774 -766c-463 0 -772 273 -772 742c0 458 319 766 774 766zM840 1442
c-205 0 -336 -297 -336 -721c0 -436 158 -713 350 -713c205 0 336 297 336 721c0 436 -158 713 -350 713z" />
    <glyph glyph-name="Ocircumflex" unicode="&#xd4;" horiz-adv-x="1694" 
d="M826 1958h37c96 -129 264 -266 444 -352l-10 -31c-189 29 -387 80 -494 125c-90 -45 -256 -96 -411 -125l-11 31c178 84 344 221 445 352zM848 1479c463 0 772 -273 772 -742c0 -458 -320 -766 -774 -766c-463 0 -772 273 -772 742c0 458 319 766 774 766zM840 1442
c-205 0 -336 -297 -336 -721c0 -436 158 -713 350 -713c205 0 336 297 336 721c0 436 -158 713 -350 713z" />
    <glyph glyph-name="Odieresis" unicode="&#xd6;" horiz-adv-x="1694" 
d="M580 1917c94 0 178 -84 178 -178c0 -99 -84 -178 -178 -178c-98 0 -178 79 -178 178c0 94 80 178 178 178zM1108 1917c94 0 178 -84 178 -178c0 -99 -84 -178 -178 -178c-98 0 -178 79 -178 178c0 94 80 178 178 178zM848 1479c463 0 772 -273 772 -742
c0 -458 -320 -766 -774 -766c-463 0 -772 273 -772 742c0 458 319 766 774 766zM840 1442c-205 0 -336 -297 -336 -721c0 -436 158 -713 350 -713c205 0 336 297 336 721c0 436 -158 713 -350 713z" />
    <glyph glyph-name="Ograve" unicode="&#xd2;" horiz-adv-x="1694" 
d="M658 1923c100 -47 125 -149 323 -317l-14 -25c-240 74 -342 55 -436 105c-48 24 -78 71 -78 120c0 18 4 36 12 54c26 53 79 77 130 77c22 0 44 -5 63 -14zM848 1479c463 0 772 -273 772 -742c0 -458 -320 -766 -774 -766c-463 0 -772 273 -772 742c0 458 319 766 774 766
zM840 1442c-205 0 -336 -297 -336 -721c0 -436 158 -713 350 -713c205 0 336 297 336 721c0 436 -158 713 -350 713z" />
    <glyph glyph-name="Ohungarumlaut" unicode="&#x150;" horiz-adv-x="1694" 
d="M737 1931c24 16 51 24 79 24c45 0 90 -21 118 -63c15 -23 22 -47 22 -71c0 -43 -23 -83 -65 -111c-72 -47 -178 -53 -373 -129l-20 23c137 168 168 274 239 327zM1202 1931c24 16 51 24 79 24c45 0 90 -21 118 -63c15 -23 22 -47 22 -71c0 -43 -23 -83 -65 -111
c-72 -47 -178 -53 -373 -129l-20 23c137 168 167 274 239 327zM848 1479c463 0 772 -273 772 -742c0 -458 -320 -766 -774 -766c-463 0 -772 273 -772 742c0 458 319 766 774 766zM840 1442c-205 0 -336 -297 -336 -721c0 -436 158 -713 350 -713c205 0 336 297 336 721
c0 436 -158 713 -350 713z" />
    <glyph glyph-name="Omacron" unicode="&#x14c;" horiz-adv-x="1694" 
d="M1286 1677h-885v52h885v-52zM848 1479c463 0 772 -273 772 -742c0 -458 -320 -766 -774 -766c-463 0 -772 273 -772 742c0 458 319 766 774 766zM840 1442c-205 0 -336 -297 -336 -721c0 -436 158 -713 350 -713c205 0 336 297 336 721c0 436 -158 713 -350 713z" />
    <glyph glyph-name="Oslash" unicode="&#xd8;" horiz-adv-x="1694" 
d="M1423 1577l-137 -204c210 -120 334 -338 334 -636c0 -458 -320 -766 -774 -766c-164 0 -309 34 -427 99l-173 -240l-43 29l172 238c-190 123 -301 334 -301 616c0 458 319 766 774 766c150 0 283 -29 395 -83l141 208zM840 1442c-205 0 -336 -297 -336 -721
c0 -153 20 -287 53 -396l550 882c-65 150 -161 235 -267 235zM854 8c205 0 336 297 336 721c0 166 -23 309 -62 422l-550 -887c65 -163 165 -256 276 -256z" />
    <glyph glyph-name="Otilde" unicode="&#xd5;" horiz-adv-x="1694" 
d="M654 1921c219 0 276 -135 453 -135c73 0 139 31 198 108l29 -14c-55 -223 -176 -313 -303 -313c-221 0 -279 137 -455 137c-74 0 -139 -33 -199 -111l-28 15c55 223 176 313 305 313zM848 1479c463 0 772 -273 772 -742c0 -458 -320 -766 -774 -766
c-463 0 -772 273 -772 742c0 458 319 766 774 766zM840 1442c-205 0 -336 -297 -336 -721c0 -436 158 -713 350 -713c205 0 336 297 336 721c0 436 -158 713 -350 713z" />
    <glyph glyph-name="OE" unicode="&#x152;" horiz-adv-x="2130" 
d="M2028 303c0 -59 0 -184 14 -303c-139 6 -332 6 -469 6c-119 0 -350 0 -567 -2c-52 -18 -117 -33 -181 -33c-450 0 -751 273 -751 742c0 458 311 766 753 766c62 0 123 -13 179 -33c219 -2 448 -2 567 -2c125 0 301 0 428 6c-10 -121 -14 -244 -14 -303
c0 -57 2 -113 6 -148h-47c-43 308 -168 404 -295 404h-27c-121 0 -145 -21 -145 -170v-483h82c141 0 174 159 196 249h47c-6 -81 -7 -135 -7 -179c0 -35 1 -63 1 -91c0 -63 2 -125 12 -270h-47c-22 121 -61 250 -202 250h-82v-492c0 -149 24 -170 145 -170h68
c102 0 258 107 295 445h47c-4 -50 -6 -115 -6 -189zM1063 176v1077c0 158 -158 189 -244 189c-192 0 -315 -297 -315 -721c0 -436 147 -713 330 -713c92 0 229 49 229 168z" />
    <glyph glyph-name="P" unicode="P" horiz-adv-x="1389" 
d="M618 586v-348c0 -168 39 -191 228 -191v-47c-92 2 -252 6 -422 6c-125 0 -256 -4 -367 -6v41c125 6 146 27 146 176v1016c0 149 -23 170 -146 176v41c78 -4 222 -6 353 -6c137 0 276 4 329 4c416 0 617 -166 617 -404c0 -198 -139 -458 -662 -458h-76zM729 1409
c-92 0 -111 -35 -111 -176v-606h56c209 0 252 186 252 395c0 258 -52 387 -197 387z" />
    <glyph glyph-name="Thorn" unicode="&#xde;" horiz-adv-x="1327" 
d="M618 311v-94c0 -149 23 -170 146 -176v-41c-80 4 -215 6 -342 6c-148 0 -287 -2 -365 -6v41c125 6 146 27 146 176v1016c0 149 -23 170 -146 176v41c78 -4 217 -6 365 -6c127 0 262 2 342 6v-41c-125 -6 -146 -27 -146 -176v-60l66 1c416 0 616 -123 616 -390
c0 -247 -139 -473 -661 -473h-21zM633 1135h-15v-783c209 0 252 191 252 410c0 244 -61 373 -237 373z" />
    <glyph glyph-name="Q" unicode="Q" horiz-adv-x="1694" 
d="M1587 74l39 -11c-14 -176 -63 -311 -149 -376c-62 -47 -160 -72 -256 -72c-232 0 -445 119 -680 217c-17 6 -39 14 -49 14c-54 -30 -119 -51 -173 -51c-55 0 -96 19 -96 62c0 39 37 63 113 63c45 0 104 -14 156 -37c101 26 166 65 248 93c-404 39 -666 305 -666 737
c0 458 319 766 774 766c463 0 772 -273 772 -742c0 -449 -307 -754 -747 -766c-122 -16 -186 -64 -310 -98c150 -4 271 -8 375 -8c138 0 246 7 352 29c150 32 228 75 297 180zM504 721c0 -436 158 -713 350 -713c205 0 336 297 336 721c0 436 -158 713 -350 713
c-205 0 -336 -297 -336 -721z" />
    <glyph glyph-name="R" unicode="R" horiz-adv-x="1477" 
d="M1501 109l27 -27c-84 -84 -182 -111 -307 -111c-179 0 -291 54 -316 222l-31 204c-24 168 -59 291 -163 291h-93v-471c0 -149 23 -170 146 -176v-41c-80 4 -215 6 -342 6c-148 0 -287 -2 -365 -6v41c125 6 146 27 146 176v1016c0 149 -23 170 -146 176v41
c78 -4 222 -6 353 -6c137 0 276 4 329 4c416 0 617 -115 617 -356c0 -180 -110 -359 -501 -397c280 -16 416 -100 448 -267l43 -213c20 -102 45 -133 92 -133c26 0 45 8 63 27zM729 1409c-92 0 -111 -35 -111 -176v-504h56c209 0 252 152 252 340c0 215 -52 340 -197 340z
" />
    <glyph glyph-name="Racute" unicode="&#x154;" horiz-adv-x="1477" 
d="M985 1686c-95 -50 -197 -31 -437 -105l-14 25c199 168 223 270 324 317c18 9 40 14 63 14c50 0 103 -24 129 -77c8 -18 12 -36 12 -54c0 -49 -29 -97 -77 -120zM1501 109l27 -27c-84 -84 -182 -111 -307 -111c-179 0 -291 54 -316 222l-31 204c-24 168 -59 291 -163 291
h-93v-471c0 -149 23 -170 146 -176v-41c-80 4 -215 6 -342 6c-148 0 -287 -2 -365 -6v41c125 6 146 27 146 176v1016c0 149 -23 170 -146 176v41c78 -4 222 -6 353 -6c137 0 276 4 329 4c416 0 617 -115 617 -356c0 -180 -110 -359 -501 -397c280 -16 416 -100 448 -267
l43 -213c20 -102 45 -133 92 -133c26 0 45 8 63 27zM729 1409c-92 0 -111 -35 -111 -176v-504h56c209 0 252 152 252 340c0 215 -52 340 -197 340z" />
    <glyph glyph-name="Rcaron" unicode="&#x158;" horiz-adv-x="1477" 
d="M713 1554h-37c-97 129 -264 267 -445 353l11 30c188 -28 387 -79 493 -125c90 46 256 97 412 125l10 -30c-178 -84 -344 -221 -444 -353zM1501 109l27 -27c-84 -84 -182 -111 -307 -111c-179 0 -291 54 -316 222l-31 204c-24 168 -59 291 -163 291h-93v-471
c0 -149 23 -170 146 -176v-41c-80 4 -215 6 -342 6c-148 0 -287 -2 -365 -6v41c125 6 146 27 146 176v1016c0 149 -23 170 -146 176v41c78 -4 222 -6 353 -6c137 0 276 4 329 4c416 0 617 -115 617 -356c0 -180 -110 -359 -501 -397c280 -16 416 -100 448 -267l43 -213
c20 -102 45 -133 92 -133c26 0 45 8 63 27zM729 1409c-92 0 -111 -35 -111 -176v-504h56c209 0 252 152 252 340c0 215 -52 340 -197 340z" />
    <glyph glyph-name="Rcommaaccent" unicode="&#x156;" horiz-adv-x="1477" 
d="M1501 109l27 -27c-84 -84 -182 -111 -307 -111c-179 0 -291 54 -316 222l-31 204c-24 168 -59 291 -163 291h-93v-471c0 -149 23 -170 146 -176v-41c-80 4 -215 6 -342 6c-148 0 -287 -2 -365 -6v41c125 6 146 27 146 176v1016c0 149 -23 170 -146 176v41
c78 -4 222 -6 353 -6c137 0 276 4 329 4c416 0 617 -115 617 -356c0 -180 -110 -359 -501 -397c280 -16 416 -100 448 -267l43 -213c20 -102 45 -133 92 -133c26 0 45 8 63 27zM729 1409c-92 0 -111 -35 -111 -176v-504h56c209 0 252 152 252 340c0 215 -52 340 -197 340z
M782 -94c113 0 190 -58 190 -168c0 -137 -94 -236 -276 -240l-4 45c117 15 172 43 188 103c-20 -19 -51 -31 -108 -31c-109 0 -172 47 -172 141c0 97 63 150 182 150z" />
    <glyph glyph-name="S" unicode="S" horiz-adv-x="1255" 
d="M618 1479c177 0 263 -43 332 -82c33 -19 51 -29 70 -29c27 0 37 31 45 90h47c-6 -88 -10 -192 -10 -500h-47c-15 226 -144 465 -357 465c-120 0 -209 -67 -209 -190c0 -152 103 -213 361 -393c182 -127 332 -240 332 -463c0 -277 -258 -406 -557 -406
c-187 0 -287 39 -363 76c-33 21 -53 29 -69 29c-27 0 -37 -31 -46 -90h-47c6 104 9 243 9 594h47c16 -289 110 -547 372 -547c150 0 246 73 246 200c0 170 -125 269 -299 385c-194 130 -364 248 -364 474c0 268 243 387 507 387z" />
    <glyph glyph-name="Sacute" unicode="&#x15a;" horiz-adv-x="1255" 
d="M799 1923c18 9 40 14 63 14c50 0 103 -24 129 -77c8 -18 12 -36 12 -54c0 -49 -29 -97 -77 -120c-95 -50 -197 -31 -437 -105l-14 25c199 168 223 270 324 317zM618 1479c177 0 263 -43 332 -82c33 -19 51 -29 70 -29c27 0 37 31 45 90h47c-6 -88 -10 -192 -10 -500h-47
c-15 226 -144 465 -357 465c-120 0 -209 -67 -209 -190c0 -152 103 -213 361 -393c182 -127 332 -240 332 -463c0 -277 -258 -406 -557 -406c-187 0 -287 39 -363 76c-33 21 -53 29 -69 29c-27 0 -37 -31 -46 -90h-47c6 104 9 243 9 594h47c16 -289 110 -547 372 -547
c150 0 246 73 246 200c0 170 -125 269 -299 385c-194 130 -364 248 -364 474c0 268 243 387 507 387z" />
    <glyph glyph-name="Scaron" unicode="&#x160;" horiz-adv-x="1255" 
d="M1088 1937l10 -30c-178 -84 -344 -221 -444 -353h-37c-97 129 -264 267 -445 353l11 30c188 -28 387 -79 493 -125c90 46 256 97 412 125zM618 1479c177 0 263 -43 332 -82c33 -19 51 -29 70 -29c27 0 37 31 45 90h47c-6 -88 -10 -192 -10 -500h-47
c-15 226 -144 465 -357 465c-120 0 -209 -67 -209 -190c0 -152 103 -213 361 -393c182 -127 332 -240 332 -463c0 -277 -258 -406 -557 -406c-187 0 -287 39 -363 76c-33 21 -53 29 -69 29c-27 0 -37 -31 -46 -90h-47c6 104 9 243 9 594h47c16 -289 110 -547 372 -547
c150 0 246 73 246 200c0 170 -125 269 -299 385c-194 130 -364 248 -364 474c0 268 243 387 507 387z" />
    <glyph glyph-name="Scedilla" unicode="&#x15e;" horiz-adv-x="1255" 
d="M1182 377c0 -274 -252 -403 -546 -406l-28 -94c55 21 113 31 182 31c117 0 172 -51 172 -119c0 -119 -162 -174 -385 -174c-82 0 -155 10 -205 27l13 36c22 -4 69 -10 119 -10c90 0 188 23 188 78c0 37 -39 51 -98 51c-23 0 -50 -4 -68 -14l55 189
c-159 5 -249 41 -319 75c-33 21 -53 29 -69 29c-27 0 -37 -31 -46 -90h-47c6 104 9 243 9 594h47c16 -289 110 -547 372 -547c150 0 246 73 246 200c0 170 -125 269 -299 385c-194 130 -364 248 -364 474c0 268 243 387 507 387c177 0 263 -43 332 -82c33 -19 51 -29 70 -29
c27 0 37 31 45 90h47c-6 -88 -10 -192 -10 -500h-47c-15 226 -144 465 -357 465c-120 0 -209 -67 -209 -190c0 -152 103 -213 361 -393c182 -127 332 -240 332 -463z" />
    <glyph glyph-name="Scircumflex" unicode="&#x15c;" horiz-adv-x="1255" 
d="M623 1958h37c96 -129 264 -266 444 -352l-10 -31c-189 29 -387 80 -494 125c-90 -45 -256 -96 -411 -125l-11 31c178 84 344 221 445 352zM618 1479c177 0 263 -43 332 -82c33 -19 51 -29 70 -29c27 0 37 31 45 90h47c-6 -88 -10 -192 -10 -500h-47
c-15 226 -144 465 -357 465c-120 0 -209 -67 -209 -190c0 -152 103 -213 361 -393c182 -127 332 -240 332 -463c0 -277 -258 -406 -557 -406c-187 0 -287 39 -363 76c-33 21 -53 29 -69 29c-27 0 -37 -31 -46 -90h-47c6 104 9 243 9 594h47c16 -289 110 -547 372 -547
c150 0 246 73 246 200c0 170 -125 269 -299 385c-194 130 -364 248 -364 474c0 268 243 387 507 387z" />
    <glyph glyph-name="Scommaaccent" unicode="&#x218;" horiz-adv-x="1255" 
d="M618 1479c177 0 263 -43 332 -82c33 -19 51 -29 70 -29c27 0 37 31 45 90h47c-6 -88 -10 -192 -10 -500h-47c-15 226 -144 465 -357 465c-120 0 -209 -67 -209 -190c0 -152 103 -213 361 -393c182 -127 332 -240 332 -463c0 -277 -258 -406 -557 -406
c-187 0 -287 39 -363 76c-33 21 -53 29 -69 29c-27 0 -37 -31 -46 -90h-47c6 104 9 243 9 594h47c16 -289 110 -547 372 -547c150 0 246 73 246 200c0 170 -125 269 -299 385c-194 130 -364 248 -364 474c0 268 243 387 507 387zM637 -94c113 0 190 -58 190 -168
c0 -137 -94 -236 -276 -240l-4 45c117 15 172 43 188 103c-20 -19 -51 -31 -108 -31c-109 0 -172 47 -172 141c0 97 63 150 182 150z" />
    <glyph glyph-name="uni1E9E" unicode="&#x1e9e;" horiz-adv-x="1651" 
d="M907 1479c258 0 473 -76 619 -166l-387 -490c342 -80 479 -231 479 -422c0 -270 -266 -430 -584 -430c-110 0 -176 13 -237 41c-88 41 -131 125 -131 228c0 135 84 217 188 217s174 -82 174 -197s-72 -190 -147 -229c16 -8 39 -13 57 -13c119 0 250 86 250 336
c0 269 -146 434 -463 545l381 522c-39 15 -105 21 -148 21c-233 0 -389 -115 -389 -574v-651c0 -137 11 -174 72 -176v-41c-82 0 -135 6 -301 6c-94 0 -254 -2 -332 -6v41c123 6 146 27 146 176v526c0 510 282 736 753 736z" />
    <glyph glyph-name="T" unicode="T" horiz-adv-x="1432" 
d="M1384 1450c-10 -162 -14 -326 -14 -406c0 -57 2 -112 6 -147h-47c-96 385 -256 506 -403 506h-2v-1172c0 -168 39 -190 227 -190v-41c-96 2 -270 6 -449 6c-170 0 -329 -4 -421 -6v41c188 0 227 22 227 190v1172h-2c-150 0 -307 -119 -404 -506h-47c4 35 6 90 6 147
c0 80 -4 244 -14 406c195 -6 477 -6 670 -6c192 0 473 0 667 6z" />
    <glyph glyph-name="Tbar" unicode="&#x166;" horiz-adv-x="1432" 
d="M1384 1450c-10 -162 -14 -326 -14 -406c0 -57 2 -112 6 -147h-47c-96 385 -256 506 -403 506h-2v-653h233v-41h-233v-478c0 -168 39 -190 227 -190v-41c-96 2 -270 6 -449 6c-170 0 -329 -4 -421 -6v41c188 0 227 22 227 190v478h-260v41h260v653h-2
c-150 0 -307 -119 -404 -506h-47c4 35 6 90 6 147c0 80 -4 244 -14 406c195 -6 477 -6 670 -6c192 0 473 0 667 6z" />
    <glyph glyph-name="Tcaron" unicode="&#x164;" horiz-adv-x="1432" 
d="M1164 1937l10 -30c-178 -84 -344 -221 -444 -353h-37c-97 129 -264 267 -445 353l11 30c188 -28 387 -79 493 -125c90 46 256 97 412 125zM1384 1450c-10 -162 -14 -326 -14 -406c0 -57 2 -112 6 -147h-47c-96 385 -256 506 -403 506h-2v-1172c0 -168 39 -190 227 -190
v-41c-96 2 -270 6 -449 6c-170 0 -329 -4 -421 -6v41c188 0 227 22 227 190v1172h-2c-150 0 -307 -119 -404 -506h-47c4 35 6 90 6 147c0 80 -4 244 -14 406c195 -6 477 -6 670 -6c192 0 473 0 667 6z" />
    <glyph glyph-name="Tcedilla" unicode="&#x162;" horiz-adv-x="1432" 
d="M1384 1450c-10 -162 -14 -326 -14 -406c0 -57 2 -112 6 -147h-47c-96 385 -256 506 -403 506h-2v-1172c0 -168 39 -190 227 -190v-41c-90 2 -248 5 -414 6l-38 -129c55 21 113 31 182 31c117 0 172 -51 172 -119c0 -119 -162 -174 -385 -174c-82 0 -155 10 -205 27l13 36
c22 -4 69 -10 119 -10c90 0 188 23 188 78c0 37 -39 51 -98 51c-23 0 -50 -4 -68 -14l65 223c-163 0 -313 -4 -401 -6v41c188 0 227 22 227 190v1172h-2c-150 0 -307 -119 -404 -506h-47c4 35 6 90 6 147c0 80 -4 244 -14 406c195 -6 477 -6 670 -6c192 0 473 0 667 6z" />
    <glyph glyph-name="uni021A" unicode="&#x21a;" horiz-adv-x="1432" 
d="M1384 1450c-10 -162 -14 -326 -14 -406c0 -57 2 -112 6 -147h-47c-96 385 -256 506 -403 506h-2v-1172c0 -168 39 -190 227 -190v-41c-96 2 -270 6 -449 6c-170 0 -329 -4 -421 -6v41c188 0 227 22 227 190v1172h-2c-150 0 -307 -119 -404 -506h-47c4 35 6 90 6 147
c0 80 -4 244 -14 406c195 -6 477 -6 670 -6c192 0 473 0 667 6zM707 -94c113 0 190 -58 190 -168c0 -137 -94 -236 -276 -240l-4 45c117 15 172 43 188 103c-20 -19 -51 -31 -108 -31c-109 0 -172 47 -172 141c0 97 63 150 182 150z" />
    <glyph glyph-name="U" unicode="U" horiz-adv-x="1419" 
d="M1395 1450v-41c-125 -27 -146 -88 -146 -319v-494c0 -170 -18 -326 -84 -434c-71 -119 -204 -191 -440 -191c-125 0 -276 21 -385 99c-141 102 -168 268 -168 520v643c0 149 -20 170 -145 176v41c77 -4 219 -6 360 -6s283 2 367 6v-41c-140 -6 -166 -27 -166 -176v-836
c0 -270 86 -354 256 -354c274 0 358 215 358 530v476c0 274 -12 333 -207 360v41c56 -4 154 -6 230 -6c61 0 129 2 170 6z" />
    <glyph glyph-name="Uacute" unicode="&#xda;" horiz-adv-x="1419" 
d="M897 1923c18 9 40 14 63 14c50 0 103 -24 129 -77c8 -18 12 -36 12 -54c0 -49 -29 -97 -77 -120c-95 -50 -197 -31 -437 -105l-14 25c199 168 223 270 324 317zM1395 1450v-41c-125 -27 -146 -88 -146 -319v-494c0 -170 -18 -326 -84 -434c-71 -119 -204 -191 -440 -191
c-125 0 -276 21 -385 99c-141 102 -168 268 -168 520v643c0 149 -20 170 -145 176v41c77 -4 219 -6 360 -6s283 2 367 6v-41c-140 -6 -166 -27 -166 -176v-836c0 -270 86 -354 256 -354c274 0 358 215 358 530v476c0 274 -12 333 -207 360v41c56 -4 154 -6 230 -6
c61 0 129 2 170 6z" />
    <glyph glyph-name="Ubreve" unicode="&#x16c;" horiz-adv-x="1419" 
d="M1183 1884l25 -22c-54 -138 -211 -299 -490 -299c-278 0 -436 161 -489 299l24 22c80 -51 228 -119 465 -119c238 0 385 68 465 119zM1395 1450v-41c-125 -27 -146 -88 -146 -319v-494c0 -170 -18 -326 -84 -434c-71 -119 -204 -191 -440 -191c-125 0 -276 21 -385 99
c-141 102 -168 268 -168 520v643c0 149 -20 170 -145 176v41c77 -4 219 -6 360 -6s283 2 367 6v-41c-140 -6 -166 -27 -166 -176v-836c0 -270 86 -354 256 -354c274 0 358 215 358 530v476c0 274 -12 333 -207 360v41c56 -4 154 -6 230 -6c61 0 129 2 170 6z" />
    <glyph glyph-name="Ucircumflex" unicode="&#xdb;" horiz-adv-x="1419" 
d="M721 1958h37c96 -129 264 -266 444 -352l-10 -31c-189 29 -387 80 -494 125c-90 -45 -256 -96 -411 -125l-11 31c178 84 344 221 445 352zM1395 1450v-41c-125 -27 -146 -88 -146 -319v-494c0 -170 -18 -326 -84 -434c-71 -119 -204 -191 -440 -191
c-125 0 -276 21 -385 99c-141 102 -168 268 -168 520v643c0 149 -20 170 -145 176v41c77 -4 219 -6 360 -6s283 2 367 6v-41c-140 -6 -166 -27 -166 -176v-836c0 -270 86 -354 256 -354c274 0 358 215 358 530v476c0 274 -12 333 -207 360v41c56 -4 154 -6 230 -6
c61 0 129 2 170 6z" />
    <glyph glyph-name="Udieresis" unicode="&#xdc;" horiz-adv-x="1419" 
d="M475 1917c94 0 178 -84 178 -178c0 -99 -84 -178 -178 -178c-98 0 -178 79 -178 178c0 94 80 178 178 178zM1003 1917c94 0 178 -84 178 -178c0 -99 -84 -178 -178 -178c-98 0 -178 79 -178 178c0 94 80 178 178 178zM1395 1450v-41c-125 -27 -146 -88 -146 -319v-494
c0 -170 -18 -326 -84 -434c-71 -119 -204 -191 -440 -191c-125 0 -276 21 -385 99c-141 102 -168 268 -168 520v643c0 149 -20 170 -145 176v41c77 -4 219 -6 360 -6s283 2 367 6v-41c-140 -6 -166 -27 -166 -176v-836c0 -270 86 -354 256 -354c274 0 358 215 358 530v476
c0 274 -12 333 -207 360v41c56 -4 154 -6 230 -6c61 0 129 2 170 6z" />
    <glyph glyph-name="Ugrave" unicode="&#xd9;" horiz-adv-x="1419" 
d="M553 1923c100 -47 125 -149 323 -317l-14 -25c-240 74 -342 55 -436 105c-48 24 -78 71 -78 120c0 18 4 36 12 54c26 53 79 77 130 77c22 0 44 -5 63 -14zM1395 1450v-41c-125 -27 -146 -88 -146 -319v-494c0 -170 -18 -326 -84 -434c-71 -119 -204 -191 -440 -191
c-125 0 -276 21 -385 99c-141 102 -168 268 -168 520v643c0 149 -20 170 -145 176v41c77 -4 219 -6 360 -6s283 2 367 6v-41c-140 -6 -166 -27 -166 -176v-836c0 -270 86 -354 256 -354c274 0 358 215 358 530v476c0 274 -12 333 -207 360v41c56 -4 154 -6 230 -6
c61 0 129 2 170 6z" />
    <glyph glyph-name="Uhungarumlaut" unicode="&#x170;" horiz-adv-x="1419" 
d="M632 1931c24 16 51 24 79 24c45 0 90 -21 118 -63c15 -23 22 -47 22 -71c0 -43 -23 -83 -65 -111c-72 -47 -178 -53 -373 -129l-20 23c137 168 168 274 239 327zM1097 1931c24 16 51 24 79 24c45 0 90 -21 118 -63c15 -23 22 -47 22 -71c0 -43 -23 -83 -65 -111
c-72 -47 -178 -53 -373 -129l-20 23c137 168 167 274 239 327zM1395 1450v-41c-125 -27 -146 -88 -146 -319v-494c0 -170 -18 -326 -84 -434c-71 -119 -204 -191 -440 -191c-125 0 -276 21 -385 99c-141 102 -168 268 -168 520v643c0 149 -20 170 -145 176v41
c77 -4 219 -6 360 -6s283 2 367 6v-41c-140 -6 -166 -27 -166 -176v-836c0 -270 86 -354 256 -354c274 0 358 215 358 530v476c0 274 -12 333 -207 360v41c56 -4 154 -6 230 -6c61 0 129 2 170 6z" />
    <glyph glyph-name="Umacron" unicode="&#x16a;" horiz-adv-x="1419" 
d="M1181 1677h-885v52h885v-52zM1395 1450v-41c-125 -27 -146 -88 -146 -319v-494c0 -170 -18 -326 -84 -434c-71 -119 -204 -191 -440 -191c-125 0 -276 21 -385 99c-141 102 -168 268 -168 520v643c0 149 -20 170 -145 176v41c77 -4 219 -6 360 -6s283 2 367 6v-41
c-140 -6 -166 -27 -166 -176v-836c0 -270 86 -354 256 -354c274 0 358 215 358 530v476c0 274 -12 333 -207 360v41c56 -4 154 -6 230 -6c61 0 129 2 170 6z" />
    <glyph glyph-name="Uogonek" unicode="&#x172;" horiz-adv-x="1419" 
d="M1225 1444c61 0 129 2 170 6v-41c-125 -27 -146 -88 -146 -319v-494c0 -170 -18 -326 -84 -434c-45 -75 -114 -131 -218 -163c-156 -56 -212 -128 -212 -183c0 -56 27 -78 82 -78c45 0 104 20 135 47l27 -31c-80 -98 -170 -139 -314 -139c-133 0 -202 53 -202 145
s96 164 263 211h-1c-125 0 -276 21 -385 99c-141 102 -168 268 -168 520v643c0 149 -20 170 -145 176v41c77 -4 219 -6 360 -6s283 2 367 6v-41c-140 -6 -166 -27 -166 -176v-836c0 -270 86 -354 256 -354c274 0 358 215 358 530v476c0 274 -12 333 -207 360v41
c56 -4 154 -6 230 -6z" />
    <glyph glyph-name="Uring" unicode="&#x16e;" horiz-adv-x="1419" 
d="M739 2037c127 0 240 -79 240 -206c0 -129 -113 -209 -240 -209c-125 0 -237 80 -237 209c0 127 112 206 237 206zM739 1994c-86 0 -180 -59 -180 -165c0 -111 94 -164 180 -164c88 0 183 53 183 164c0 106 -95 165 -183 165zM1395 1450v-41c-125 -27 -146 -88 -146 -319
v-494c0 -170 -18 -326 -84 -434c-71 -119 -204 -191 -440 -191c-125 0 -276 21 -385 99c-141 102 -168 268 -168 520v643c0 149 -20 170 -145 176v41c77 -4 219 -6 360 -6s283 2 367 6v-41c-140 -6 -166 -27 -166 -176v-836c0 -270 86 -354 256 -354c274 0 358 215 358 530
v476c0 274 -12 333 -207 360v41c56 -4 154 -6 230 -6c61 0 129 2 170 6z" />
    <glyph glyph-name="Utilde" unicode="&#x168;" horiz-adv-x="1419" 
d="M549 1921c219 0 276 -135 453 -135c73 0 139 31 198 108l29 -14c-55 -223 -176 -313 -303 -313c-221 0 -279 137 -455 137c-74 0 -139 -33 -199 -111l-28 15c55 223 176 313 305 313zM1395 1450v-41c-125 -27 -146 -88 -146 -319v-494c0 -170 -18 -326 -84 -434
c-71 -119 -204 -191 -440 -191c-125 0 -276 21 -385 99c-141 102 -168 268 -168 520v643c0 149 -20 170 -145 176v41c77 -4 219 -6 360 -6s283 2 367 6v-41c-140 -6 -166 -27 -166 -176v-836c0 -270 86 -354 256 -354c274 0 358 215 358 530v476c0 274 -12 333 -207 360v41
c56 -4 154 -6 230 -6c61 0 129 2 170 6z" />
    <glyph glyph-name="V" unicode="V" horiz-adv-x="1419" 
d="M1286 1444c53 0 117 2 158 6v-41c-64 -31 -144 -113 -205 -287l-399 -1122c-33 2 -72 4 -109 4s-74 -2 -106 -4l-537 1278c-39 94 -84 129 -121 131v41c99 -4 238 -6 373 -6c139 0 270 2 344 6v-41c-92 -4 -144 -15 -144 -75c0 -24 8 -55 25 -97l355 -873l198 558
c46 131 67 230 67 304c0 128 -63 179 -167 183v41c102 -4 174 -6 268 -6z" />
    <glyph glyph-name="W" unicode="W" horiz-adv-x="2068" 
d="M1927 1444c53 0 117 2 158 6v-41c-64 -31 -137 -111 -191 -287l-344 -1122c-32 2 -71 4 -108 4s-74 -2 -107 -4l-266 813l-289 -813c-32 2 -71 4 -108 4s-74 -2 -107 -4l-475 1278c-35 94 -84 129 -121 131v41c99 -4 242 -6 363 -6s215 2 272 6v-41
c-41 -8 -54 -43 -54 -82c0 -31 7 -64 17 -90l298 -835l179 486l-139 425c-22 71 -57 92 -104 96v41c92 -4 225 -6 354 -6s248 2 318 6v-41c-94 -3 -140 -17 -140 -78c0 -23 7 -54 21 -94l270 -821l158 506c37 121 54 214 54 286c0 143 -68 197 -177 201v41
c102 -4 174 -6 268 -6z" />
    <glyph glyph-name="Wacute" unicode="&#x1e82;" horiz-adv-x="2068" 
d="M1360 1686c-95 -50 -197 -31 -437 -105l-14 25c199 168 223 270 324 317c18 9 40 14 63 14c50 0 103 -24 129 -77c8 -18 12 -36 12 -54c0 -49 -29 -97 -77 -120zM1927 1444c53 0 117 2 158 6v-41c-64 -31 -137 -111 -191 -287l-344 -1122c-32 2 -71 4 -108 4
s-74 -2 -107 -4l-266 813l-289 -813c-32 2 -71 4 -108 4s-74 -2 -107 -4l-475 1278c-35 94 -84 129 -121 131v41c99 -4 242 -6 363 -6s215 2 272 6v-41c-41 -8 -54 -43 -54 -82c0 -31 7 -64 17 -90l298 -835l179 486l-139 425c-22 71 -57 92 -104 96v41c92 -4 225 -6 354 -6
s248 2 318 6v-41c-94 -3 -140 -17 -140 -78c0 -23 7 -54 21 -94l270 -821l158 506c37 121 54 214 54 286c0 143 -68 197 -177 201v41c102 -4 174 -6 268 -6z" />
    <glyph glyph-name="Wcircumflex" unicode="&#x174;" horiz-adv-x="2068" 
d="M1034 1700c-90 -45 -256 -96 -411 -125l-11 31c178 84 344 221 445 352h37c96 -129 264 -266 444 -352l-10 -31c-189 29 -387 80 -494 125zM1927 1444c53 0 117 2 158 6v-41c-64 -31 -137 -111 -191 -287l-344 -1122c-32 2 -71 4 -108 4s-74 -2 -107 -4l-266 813
l-289 -813c-32 2 -71 4 -108 4s-74 -2 -107 -4l-475 1278c-35 94 -84 129 -121 131v41c99 -4 242 -6 363 -6s215 2 272 6v-41c-41 -8 -54 -43 -54 -82c0 -31 7 -64 17 -90l298 -835l179 486l-139 425c-22 71 -57 92 -104 96v41c92 -4 225 -6 354 -6s248 2 318 6v-41
c-94 -3 -140 -17 -140 -78c0 -23 7 -54 21 -94l270 -821l158 506c37 121 54 214 54 286c0 143 -68 197 -177 201v41c102 -4 174 -6 268 -6z" />
    <glyph glyph-name="Wdieresis" unicode="&#x1e84;" horiz-adv-x="2068" 
d="M811 1561c-98 0 -178 79 -178 178c0 94 80 178 178 178c94 0 178 -84 178 -178c0 -99 -84 -178 -178 -178zM1339 1561c-98 0 -178 79 -178 178c0 94 80 178 178 178c94 0 178 -84 178 -178c0 -99 -84 -178 -178 -178zM1927 1444c53 0 117 2 158 6v-41
c-64 -31 -137 -111 -191 -287l-344 -1122c-32 2 -71 4 -108 4s-74 -2 -107 -4l-266 813l-289 -813c-32 2 -71 4 -108 4s-74 -2 -107 -4l-475 1278c-35 94 -84 129 -121 131v41c99 -4 242 -6 363 -6s215 2 272 6v-41c-41 -8 -54 -43 -54 -82c0 -31 7 -64 17 -90l298 -835
l179 486l-139 425c-22 71 -57 92 -104 96v41c92 -4 225 -6 354 -6s248 2 318 6v-41c-94 -3 -140 -17 -140 -78c0 -23 7 -54 21 -94l270 -821l158 506c37 121 54 214 54 286c0 143 -68 197 -177 201v41c102 -4 174 -6 268 -6z" />
    <glyph glyph-name="Wgrave" unicode="&#x1e80;" horiz-adv-x="2068" 
d="M762 1686c-48 24 -78 71 -78 120c0 18 4 36 12 54c26 53 79 77 130 77c22 0 44 -5 63 -14c100 -47 125 -149 323 -317l-14 -25c-240 74 -342 55 -436 105zM1927 1444c53 0 117 2 158 6v-41c-64 -31 -137 -111 -191 -287l-344 -1122c-32 2 -71 4 -108 4s-74 -2 -107 -4
l-266 813l-289 -813c-32 2 -71 4 -108 4s-74 -2 -107 -4l-475 1278c-35 94 -84 129 -121 131v41c99 -4 242 -6 363 -6s215 2 272 6v-41c-41 -8 -54 -43 -54 -82c0 -31 7 -64 17 -90l298 -835l179 486l-139 425c-22 71 -57 92 -104 96v41c92 -4 225 -6 354 -6s248 2 318 6
v-41c-94 -3 -140 -17 -140 -78c0 -23 7 -54 21 -94l270 -821l158 506c37 121 54 214 54 286c0 143 -68 197 -177 201v41c102 -4 174 -6 268 -6z" />
    <glyph glyph-name="X" unicode="X" horiz-adv-x="1493" 
d="M899 879l518 -734c56 -77 74 -98 127 -102v-43c-67 2 -215 8 -350 8s-289 -6 -356 -8v43c85 0 127 8 127 35c0 9 -5 21 -15 35l-341 488l-126 -157c-73 -90 -105 -173 -105 -240c0 -93 64 -155 171 -163v-41c-78 4 -289 6 -354 6c-84 0 -154 -2 -199 -6v41
c102 43 219 141 340 291l246 308l-467 667c-56 77 -74 98 -127 102v43c71 -2 227 -8 370 -8c127 0 267 6 330 8v-43c-86 0 -128 -8 -128 -35c0 -9 5 -21 15 -35l297 -422l117 144c70 81 103 156 103 215c0 75 -52 125 -144 133v41c78 -4 207 -6 273 -6c84 0 153 2 198 6v-41
c-94 -35 -200 -137 -276 -231z" />
    <glyph glyph-name="Y" unicode="Y" horiz-adv-x="1319" 
d="M1145 1446c53 0 117 2 158 6v-41c-64 -31 -134 -106 -218 -272l-190 -377v-545c0 -149 23 -170 145 -176v-41c-79 4 -225 6 -352 6c-139 0 -280 -2 -354 -6v41c125 6 145 27 145 176v377l-379 700c-47 86 -90 115 -118 115v43c84 -8 172 -12 282 -12c139 0 314 6 451 12
v-43c-86 0 -165 -1 -165 -47c0 -8 3 -19 9 -31l292 -562l93 185c68 136 97 235 97 305c0 107 -66 148 -164 152v41c102 -4 174 -6 268 -6z" />
    <glyph glyph-name="Yacute" unicode="&#xdd;" horiz-adv-x="1319" 
d="M998 1686c-95 -50 -197 -31 -437 -105l-14 25c199 168 223 270 324 317c18 9 40 14 63 14c50 0 103 -24 129 -77c8 -18 12 -36 12 -54c0 -49 -29 -97 -77 -120zM1145 1446c53 0 117 2 158 6v-41c-64 -31 -134 -106 -218 -272l-190 -377v-545c0 -149 23 -170 145 -176v-41
c-79 4 -225 6 -352 6c-139 0 -280 -2 -354 -6v41c125 6 145 27 145 176v377l-379 700c-47 86 -90 115 -118 115v43c84 -8 172 -12 282 -12c139 0 314 6 451 12v-43c-86 0 -165 -1 -165 -47c0 -8 3 -19 9 -31l292 -562l93 185c68 136 97 235 97 305c0 107 -66 148 -164 152
v41c102 -4 174 -6 268 -6z" />
    <glyph glyph-name="Ycircumflex" unicode="&#x176;" horiz-adv-x="1319" 
d="M672 1700c-90 -45 -256 -96 -411 -125l-11 31c178 84 344 221 445 352h37c96 -129 264 -266 444 -352l-10 -31c-189 29 -387 80 -494 125zM1145 1446c53 0 117 2 158 6v-41c-64 -31 -134 -106 -218 -272l-190 -377v-545c0 -149 23 -170 145 -176v-41c-79 4 -225 6 -352 6
c-139 0 -280 -2 -354 -6v41c125 6 145 27 145 176v377l-379 700c-47 86 -90 115 -118 115v43c84 -8 172 -12 282 -12c139 0 314 6 451 12v-43c-86 0 -165 -1 -165 -47c0 -8 3 -19 9 -31l292 -562l93 185c68 136 97 235 97 305c0 107 -66 148 -164 152v41
c102 -4 174 -6 268 -6z" />
    <glyph glyph-name="Ydieresis" unicode="&#x178;" horiz-adv-x="1319" 
d="M449 1561c-98 0 -178 79 -178 178c0 94 80 178 178 178c94 0 178 -84 178 -178c0 -99 -84 -178 -178 -178zM977 1561c-98 0 -178 79 -178 178c0 94 80 178 178 178c94 0 178 -84 178 -178c0 -99 -84 -178 -178 -178zM1145 1446c53 0 117 2 158 6v-41
c-64 -31 -134 -106 -218 -272l-190 -377v-545c0 -149 23 -170 145 -176v-41c-79 4 -225 6 -352 6c-139 0 -280 -2 -354 -6v41c125 6 145 27 145 176v377l-379 700c-47 86 -90 115 -118 115v43c84 -8 172 -12 282 -12c139 0 314 6 451 12v-43c-86 0 -165 -1 -165 -47
c0 -8 3 -19 9 -31l292 -562l93 185c68 136 97 235 97 305c0 107 -66 148 -164 152v41c102 -4 174 -6 268 -6z" />
    <glyph glyph-name="Ygrave" unicode="&#x1ef2;" horiz-adv-x="1319" 
d="M400 1686c-48 24 -78 71 -78 120c0 18 4 36 12 54c26 53 79 77 130 77c22 0 44 -5 63 -14c100 -47 125 -149 323 -317l-14 -25c-240 74 -342 55 -436 105zM1145 1446c53 0 117 2 158 6v-41c-64 -31 -134 -106 -218 -272l-190 -377v-545c0 -149 23 -170 145 -176v-41
c-79 4 -225 6 -352 6c-139 0 -280 -2 -354 -6v41c125 6 145 27 145 176v377l-379 700c-47 86 -90 115 -118 115v43c84 -8 172 -12 282 -12c139 0 314 6 451 12v-43c-86 0 -165 -1 -165 -47c0 -8 3 -19 9 -31l292 -562l93 185c68 136 97 235 97 305c0 107 -66 148 -164 152
v41c102 -4 174 -6 268 -6z" />
    <glyph glyph-name="Z" unicode="Z" horiz-adv-x="1243" 
d="M1149 1409l-621 -1362h86c140 0 455 115 496 485h47c-4 -49 -6 -114 -6 -188c0 -68 0 -209 14 -344c-151 6 -360 6 -510 6c-186 0 -399 0 -579 -6v41l620 1362h-102c-168 0 -412 -96 -459 -445h-47c4 35 6 91 6 148c0 68 -4 207 -14 344c127 -6 303 -6 428 -6
c205 0 442 0 641 6v-41z" />
    <glyph glyph-name="Zacute" unicode="&#x179;" horiz-adv-x="1243" 
d="M785 1923c18 9 40 14 63 14c50 0 103 -24 129 -77c8 -18 12 -36 12 -54c0 -49 -29 -97 -77 -120c-95 -50 -197 -31 -437 -105l-14 25c199 168 223 270 324 317zM1149 1409l-621 -1362h86c140 0 455 115 496 485h47c-4 -49 -6 -114 -6 -188c0 -68 0 -209 14 -344
c-151 6 -360 6 -510 6c-186 0 -399 0 -579 -6v41l620 1362h-102c-168 0 -412 -96 -459 -445h-47c4 35 6 91 6 148c0 68 -4 207 -14 344c127 -6 303 -6 428 -6c205 0 442 0 641 6v-41z" />
    <glyph glyph-name="Zcaron" unicode="&#x17d;" horiz-adv-x="1243" 
d="M1074 1937l10 -30c-178 -84 -344 -221 -444 -353h-37c-97 129 -264 267 -445 353l11 30c188 -28 387 -79 493 -125c90 46 256 97 412 125zM1149 1409l-621 -1362h86c140 0 455 115 496 485h47c-4 -49 -6 -114 -6 -188c0 -68 0 -209 14 -344c-151 6 -360 6 -510 6
c-186 0 -399 0 -579 -6v41l620 1362h-102c-168 0 -412 -96 -459 -445h-47c4 35 6 91 6 148c0 68 -4 207 -14 344c127 -6 303 -6 428 -6c205 0 442 0 641 6v-41z" />
    <glyph glyph-name="Zdotaccent" unicode="&#x17b;" horiz-adv-x="1243" 
d="M627 1999c141 0 223 -60 223 -177c0 -116 -82 -176 -223 -176c-144 0 -223 60 -223 176c0 117 79 177 223 177zM1149 1409l-621 -1362h86c140 0 455 115 496 485h47c-4 -49 -6 -114 -6 -188c0 -68 0 -209 14 -344c-151 6 -360 6 -510 6c-186 0 -399 0 -579 -6v41
l620 1362h-102c-168 0 -412 -96 -459 -445h-47c4 35 6 91 6 148c0 68 -4 207 -14 344c127 -6 303 -6 428 -6c205 0 442 0 641 6v-41z" />
    <glyph glyph-name="Cacute.loclPLK" horiz-adv-x="1468" 
d="M932 1982c55 -23 80 -66 80 -113c0 -20 -4 -41 -13 -61c-30 -75 -110 -106 -233 -254l-27 13c4 34 6 64 7 91c0 16 1 31 1 45c0 48 -3 86 -3 119s3 61 14 89c21 49 65 83 118 83c18 0 37 -4 56 -12zM848 1479c180 0 287 -64 377 -133c15 -12 28 -18 40 -18
c28 0 45 38 52 122h47c-6 -109 -8 -254 -8 -512h-47c-19 197 -52 326 -189 416c-57 37 -123 61 -190 61c-314 0 -385 -387 -385 -694s71 -694 385 -694c67 0 133 24 190 61c137 84 170 221 189 444h47c0 -268 2 -419 8 -532h-47c-7 84 -21 121 -50 121c-11 0 -25 -6 -42 -17
c-101 -71 -203 -133 -379 -133c-463 0 -772 273 -772 742c0 458 319 766 774 766z" />
    <glyph glyph-name="Nacute.loclPLK" horiz-adv-x="1499" 
d="M917 1982c55 -23 80 -66 80 -113c0 -20 -4 -41 -13 -61c-30 -75 -110 -106 -233 -254l-27 13c4 34 6 64 7 91c0 16 1 31 1 45c0 48 -3 86 -3 119s3 61 14 89c21 49 65 83 118 83c18 0 37 -4 56 -12zM1450 1450v-41c-125 -27 -145 -88 -145 -319v-1090c-20 2 -43 3 -67 3
c-25 0 -50 -1 -77 -3l-907 991v-590c0 -274 12 -333 207 -360v-41c-55 4 -154 6 -230 6c-61 0 -129 -2 -170 -6v41c125 27 146 88 146 319v873c0 149 -23 170 -146 176v41c41 -4 109 -6 170 -6c68 0 138 2 189 6l837 -885v484c0 274 -12 333 -206 360v41
c55 -4 153 -6 229 -6c61 0 129 2 170 6z" />
    <glyph glyph-name="Oacute.loclPLK" horiz-adv-x="1694" 
d="M979 1982c55 -23 80 -66 80 -113c0 -20 -4 -41 -13 -61c-30 -75 -110 -106 -233 -254l-27 13c4 34 6 64 7 91c0 16 1 31 1 45c0 48 -3 86 -3 119s3 61 14 89c21 49 65 83 118 83c18 0 37 -4 56 -12zM848 1479c463 0 772 -273 772 -742c0 -458 -320 -766 -774 -766
c-463 0 -772 273 -772 742c0 458 319 766 774 766zM840 1442c-205 0 -336 -297 -336 -721c0 -436 158 -713 350 -713c205 0 336 297 336 721c0 436 -158 713 -350 713z" />
    <glyph glyph-name="Sacute.loclPLK" horiz-adv-x="1255" 
d="M776 1982c55 -23 80 -66 80 -113c0 -20 -4 -41 -13 -61c-30 -75 -110 -106 -233 -254l-27 13c4 34 6 64 7 91c0 16 1 31 1 45c0 48 -3 86 -3 119s3 61 14 89c21 49 65 83 118 83c18 0 37 -4 56 -12zM618 1479c177 0 263 -43 332 -82c33 -19 51 -29 70 -29
c27 0 37 31 45 90h47c-6 -88 -10 -192 -10 -500h-47c-15 226 -144 465 -357 465c-120 0 -209 -67 -209 -190c0 -152 103 -213 361 -393c182 -127 332 -240 332 -463c0 -277 -258 -406 -557 -406c-187 0 -287 39 -363 76c-33 21 -53 29 -69 29c-27 0 -37 -31 -46 -90h-47
c6 104 9 243 9 594h47c16 -289 110 -547 372 -547c150 0 246 73 246 200c0 170 -125 269 -299 385c-194 130 -364 248 -364 474c0 268 243 387 507 387z" />
    <glyph glyph-name="Zacute.loclPLK" horiz-adv-x="1243" 
d="M762 1982c55 -23 80 -66 80 -113c0 -20 -4 -41 -13 -61c-30 -75 -110 -106 -233 -254l-27 13c4 34 6 64 7 91c0 16 1 31 1 45c0 48 -3 86 -3 119s3 61 14 89c21 49 65 83 118 83c18 0 37 -4 56 -12zM1149 1409l-621 -1362h86c140 0 455 115 496 485h47
c-4 -49 -6 -114 -6 -188c0 -68 0 -209 14 -344c-151 6 -360 6 -510 6c-186 0 -399 0 -579 -6v41l620 1362h-102c-168 0 -412 -96 -459 -445h-47c4 35 6 91 6 148c0 68 -4 207 -14 344c127 -6 303 -6 428 -6c205 0 442 0 641 6v-41z" />
    <glyph glyph-name="a" unicode="a" horiz-adv-x="1087" 
d="M557 1092c143 0 256 -21 334 -103c57 -59 67 -145 67 -287v-548c0 -66 9 -88 31 -88c25 0 45 16 64 30l20 -35c-65 -55 -149 -75 -266 -75c-154 0 -209 73 -211 155c-57 -94 -166 -155 -293 -155c-164 0 -258 94 -258 235c0 139 80 230 260 289c160 57 285 98 285 190
v183c0 63 -21 168 -152 168c-35 0 -78 -15 -108 -35c88 -33 137 -92 137 -185c0 -96 -78 -172 -197 -172c-102 0 -168 78 -168 179c0 86 54 149 127 188c84 43 185 66 328 66zM590 184v432c-17 -28 -51 -61 -80 -90c-61 -59 -100 -131 -100 -231c0 -107 45 -145 104 -145
c29 0 51 8 76 34z" />
    <glyph glyph-name="aacute" unicode="&#xe1;" horiz-adv-x="1087" 
d="M779 1679c29 -23 42 -57 42 -92c0 -33 -11 -67 -34 -94c-68 -82 -168 -104 -361 -266l-22 18c117 232 100 336 174 418c25 30 68 49 111 49c31 0 63 -10 90 -33zM557 1092c143 0 256 -21 334 -103c57 -59 67 -145 67 -287v-548c0 -66 9 -88 31 -88c25 0 45 16 64 30
l20 -35c-65 -55 -149 -75 -266 -75c-154 0 -209 73 -211 155c-57 -94 -166 -155 -293 -155c-164 0 -258 94 -258 235c0 139 80 230 260 289c160 57 285 98 285 190v183c0 63 -21 168 -152 168c-35 0 -78 -15 -108 -35c88 -33 137 -92 137 -185c0 -96 -78 -172 -197 -172
c-102 0 -168 78 -168 179c0 86 54 149 127 188c84 43 185 66 328 66zM590 184v432c-17 -28 -51 -61 -80 -90c-61 -59 -100 -131 -100 -231c0 -107 45 -145 104 -145c29 0 51 8 76 34z" />
    <glyph glyph-name="abreve" unicode="&#x103;" horiz-adv-x="1087" 
d="M922 1614l35 -19c-45 -157 -158 -340 -408 -340s-362 183 -407 340l35 19c63 -51 176 -115 372 -115c197 0 310 64 373 115zM557 1092c143 0 256 -21 334 -103c57 -59 67 -145 67 -287v-548c0 -66 9 -88 31 -88c25 0 45 16 64 30l20 -35c-65 -55 -149 -75 -266 -75
c-154 0 -209 73 -211 155c-57 -94 -166 -155 -293 -155c-164 0 -258 94 -258 235c0 139 80 230 260 289c160 57 285 98 285 190v183c0 63 -21 168 -152 168c-35 0 -78 -15 -108 -35c88 -33 137 -92 137 -185c0 -96 -78 -172 -197 -172c-102 0 -168 78 -168 179
c0 86 54 149 127 188c84 43 185 66 328 66zM590 184v432c-17 -28 -51 -61 -80 -90c-61 -59 -100 -131 -100 -231c0 -107 45 -145 104 -145c29 0 51 8 76 34z" />
    <glyph glyph-name="acircumflex" unicode="&#xe2;" horiz-adv-x="1087" 
d="M532 1704h37c84 -162 227 -332 383 -434l-16 -29c-164 29 -332 78 -426 123c-78 -45 -213 -94 -344 -123l-17 29c154 100 295 270 383 434zM557 1092c143 0 256 -21 334 -103c57 -59 67 -145 67 -287v-548c0 -66 9 -88 31 -88c25 0 45 16 64 30l20 -35
c-65 -55 -149 -75 -266 -75c-154 0 -209 73 -211 155c-57 -94 -166 -155 -293 -155c-164 0 -258 94 -258 235c0 139 80 230 260 289c160 57 285 98 285 190v183c0 63 -21 168 -152 168c-35 0 -78 -15 -108 -35c88 -33 137 -92 137 -185c0 -96 -78 -172 -197 -172
c-102 0 -168 78 -168 179c0 86 54 149 127 188c84 43 185 66 328 66zM590 184v432c-17 -28 -51 -61 -80 -90c-61 -59 -100 -131 -100 -231c0 -107 45 -145 104 -145c29 0 51 8 76 34z" />
    <glyph glyph-name="adieresis" unicode="&#xe4;" horiz-adv-x="1087" 
d="M310 1581c94 0 178 -84 178 -178c0 -98 -84 -178 -178 -178c-99 0 -179 80 -179 178c0 94 80 178 179 178zM797 1581c94 0 178 -84 178 -178c0 -98 -84 -178 -178 -178c-98 0 -178 80 -178 178c0 94 80 178 178 178zM557 1092c143 0 256 -21 334 -103
c57 -59 67 -145 67 -287v-548c0 -66 9 -88 31 -88c25 0 45 16 64 30l20 -35c-65 -55 -149 -75 -266 -75c-154 0 -209 73 -211 155c-57 -94 -166 -155 -293 -155c-164 0 -258 94 -258 235c0 139 80 230 260 289c160 57 285 98 285 190v183c0 63 -21 168 -152 168
c-35 0 -78 -15 -108 -35c88 -33 137 -92 137 -185c0 -96 -78 -172 -197 -172c-102 0 -168 78 -168 179c0 86 54 149 127 188c84 43 185 66 328 66zM590 184v432c-17 -28 -51 -61 -80 -90c-61 -59 -100 -131 -100 -231c0 -107 45 -145 104 -145c29 0 51 8 76 34z" />
    <glyph glyph-name="agrave" unicode="&#xe0;" horiz-adv-x="1087" 
d="M291 1679c26 24 57 34 88 34c44 0 88 -21 113 -50c73 -82 57 -186 174 -418l-23 -18c-192 162 -293 184 -360 266c-23 27 -34 61 -34 93c0 35 13 69 42 93zM557 1092c143 0 256 -21 334 -103c57 -59 67 -145 67 -287v-548c0 -66 9 -88 31 -88c25 0 45 16 64 30l20 -35
c-65 -55 -149 -75 -266 -75c-154 0 -209 73 -211 155c-57 -94 -166 -155 -293 -155c-164 0 -258 94 -258 235c0 139 80 230 260 289c160 57 285 98 285 190v183c0 63 -21 168 -152 168c-35 0 -78 -15 -108 -35c88 -33 137 -92 137 -185c0 -96 -78 -172 -197 -172
c-102 0 -168 78 -168 179c0 86 54 149 127 188c84 43 185 66 328 66zM590 184v432c-17 -28 -51 -61 -80 -90c-61 -59 -100 -131 -100 -231c0 -107 45 -145 104 -145c29 0 51 8 76 34z" />
    <glyph glyph-name="amacron" unicode="&#x101;" horiz-adv-x="1087" 
d="M905 1407h-721v51h721v-51zM557 1092c143 0 256 -21 334 -103c57 -59 67 -145 67 -287v-548c0 -66 9 -88 31 -88c25 0 45 16 64 30l20 -35c-65 -55 -149 -75 -266 -75c-154 0 -209 73 -211 155c-57 -94 -166 -155 -293 -155c-164 0 -258 94 -258 235
c0 139 80 230 260 289c160 57 285 98 285 190v183c0 63 -21 168 -152 168c-35 0 -78 -15 -108 -35c88 -33 137 -92 137 -185c0 -96 -78 -172 -197 -172c-102 0 -168 78 -168 179c0 86 54 149 127 188c84 43 185 66 328 66zM590 184v432c-17 -28 -51 -61 -80 -90
c-61 -59 -100 -131 -100 -231c0 -107 45 -145 104 -145c29 0 51 8 76 34z" />
    <glyph glyph-name="aogonek" unicode="&#x105;" horiz-adv-x="1087" 
d="M892 -262c45 0 104 20 135 47l26 -31c-79 -98 -170 -139 -313 -139c-133 0 -203 53 -203 145c0 103 101 179 276 226h-6c-154 0 -209 73 -211 155c-57 -94 -166 -155 -293 -155c-164 0 -258 94 -258 235c0 139 80 230 260 289c160 57 285 98 285 190v183
c0 63 -21 168 -152 168c-35 0 -78 -15 -108 -35c88 -33 137 -92 137 -185c0 -96 -78 -172 -197 -172c-102 0 -168 78 -168 179c0 86 54 149 127 188c84 43 185 66 328 66s256 -21 334 -103c57 -59 67 -145 67 -287v-548c0 -66 9 -88 31 -88c25 0 45 16 64 30l20 -35
c-27 -23 -57 -40 -92 -52c-8 -5 -18 -10 -32 -17c-107 -53 -139 -123 -139 -176c0 -56 28 -78 82 -78zM590 184v432c-17 -28 -51 -61 -80 -90c-61 -59 -100 -131 -100 -231c0 -107 45 -145 104 -145c29 0 51 8 76 34z" />
    <glyph glyph-name="aring" unicode="&#xe5;" horiz-adv-x="1087" 
d="M551 1640c127 0 240 -79 240 -206c0 -129 -113 -209 -240 -209c-125 0 -237 80 -237 209c0 127 112 206 237 206zM551 1597c-86 0 -180 -59 -180 -165c0 -111 94 -164 180 -164c88 0 183 53 183 164c0 106 -95 165 -183 165zM557 1092c143 0 256 -21 334 -103
c57 -59 67 -145 67 -287v-548c0 -66 9 -88 31 -88c25 0 45 16 64 30l20 -35c-65 -55 -149 -75 -266 -75c-154 0 -209 73 -211 155c-57 -94 -166 -155 -293 -155c-164 0 -258 94 -258 235c0 139 80 230 260 289c160 57 285 98 285 190v183c0 63 -21 168 -152 168
c-35 0 -78 -15 -108 -35c88 -33 137 -92 137 -185c0 -96 -78 -172 -197 -172c-102 0 -168 78 -168 179c0 86 54 149 127 188c84 43 185 66 328 66zM590 184v432c-17 -28 -51 -61 -80 -90c-61 -59 -100 -131 -100 -231c0 -107 45 -145 104 -145c29 0 51 8 76 34z" />
    <glyph glyph-name="atilde" unicode="&#xe3;" horiz-adv-x="1087" 
d="M376 1634c179 0 228 -135 371 -135c57 0 111 31 158 109l28 -15c-47 -237 -151 -333 -262 -333c-180 0 -229 137 -372 137c-58 0 -111 -33 -158 -111l-29 14c47 238 152 334 264 334zM557 1092c143 0 256 -21 334 -103c57 -59 67 -145 67 -287v-548c0 -66 9 -88 31 -88
c25 0 45 16 64 30l20 -35c-65 -55 -149 -75 -266 -75c-154 0 -209 73 -211 155c-57 -94 -166 -155 -293 -155c-164 0 -258 94 -258 235c0 139 80 230 260 289c160 57 285 98 285 190v183c0 63 -21 168 -152 168c-35 0 -78 -15 -108 -35c88 -33 137 -92 137 -185
c0 -96 -78 -172 -197 -172c-102 0 -168 78 -168 179c0 86 54 149 127 188c84 43 185 66 328 66zM590 184v432c-17 -28 -51 -61 -80 -90c-61 -59 -100 -131 -100 -231c0 -107 45 -145 104 -145c29 0 51 8 76 34z" />
    <glyph glyph-name="ae" unicode="&#xe6;" horiz-adv-x="1497" 
d="M1169 195c52 0 146 12 228 137l35 -13c-50 -165 -177 -348 -408 -348c-158 0 -298 58 -379 206c-74 -117 -168 -191 -336 -191c-164 0 -258 94 -258 235c0 139 80 228 260 289c148 55 264 98 264 190v183c0 63 -20 168 -151 168c-35 0 -78 -15 -109 -35
c88 -33 138 -92 138 -185c0 -96 -78 -172 -197 -172c-102 0 -168 78 -168 179c0 86 53 149 127 188c78 41 172 66 279 66c133 0 208 -26 276 -96c79 61 182 96 307 96c228 0 367 -129 367 -459h-489c-1 -24 -1 -49 -1 -74c0 -289 115 -364 215 -364zM1063 1044
c-63 0 -104 -101 -115 -372h197c2 200 -21 372 -82 372zM520 182c42 0 74 7 107 33c-36 81 -56 185 -56 315c0 29 1 57 4 84v2c-12 -28 -34 -61 -59 -90c-51 -59 -100 -123 -100 -217c0 -73 26 -127 104 -127z" />
    <glyph glyph-name="b" unicode="b" horiz-adv-x="1231" 
d="M809 1092c203 0 356 -166 356 -514c0 -465 -221 -607 -477 -607c-78 0 -142 3 -201 29c-48 18 -99 26 -147 26c-84 0 -160 -24 -197 -59l-28 21c12 37 14 73 14 112v1256c0 123 -29 180 -115 180v43c43 -4 86 -6 127 -6c138 0 254 8 357 29v-664c63 104 172 154 311 154z
M594 12c127 0 188 172 188 518c0 363 -61 455 -137 455s-147 -61 -147 -147v-802c31 -16 66 -24 96 -24z" />
    <glyph glyph-name="c" unicode="c" 
d="M588 1092c119 0 215 -29 270 -62c74 -43 123 -119 123 -213c0 -112 -82 -199 -197 -199c-120 0 -188 76 -188 185c0 102 78 180 168 205c-19 14 -45 24 -82 24c-195 0 -238 -268 -238 -473c0 -289 136 -364 256 -364c56 0 158 12 248 137l35 -13
c-51 -165 -184 -348 -428 -348c-274 0 -494 146 -494 559c0 394 230 562 527 562z" />
    <glyph glyph-name="cacute" unicode="&#x107;" 
d="M783 1679c29 -23 42 -57 42 -92c0 -33 -11 -67 -34 -94c-68 -82 -168 -104 -361 -266l-22 18c117 232 100 336 174 418c25 30 68 49 111 49c31 0 63 -10 90 -33zM588 1092c119 0 215 -29 270 -62c74 -43 123 -119 123 -213c0 -112 -82 -199 -197 -199
c-120 0 -188 76 -188 185c0 102 78 180 168 205c-19 14 -45 24 -82 24c-195 0 -238 -268 -238 -473c0 -289 136 -364 256 -364c56 0 158 12 248 137l35 -13c-51 -165 -184 -348 -428 -348c-274 0 -494 146 -494 559c0 394 230 562 527 562z" />
    <glyph glyph-name="ccaron" unicode="&#x10d;" 
d="M920 1704l16 -29c-154 -100 -295 -270 -383 -434h-37c-84 162 -227 332 -383 434l17 29c163 -29 331 -78 426 -123c77 45 213 94 344 123zM588 1092c119 0 215 -29 270 -62c74 -43 123 -119 123 -213c0 -112 -82 -199 -197 -199c-120 0 -188 76 -188 185
c0 102 78 180 168 205c-19 14 -45 24 -82 24c-195 0 -238 -268 -238 -473c0 -289 136 -364 256 -364c56 0 158 12 248 137l35 -13c-51 -165 -184 -348 -428 -348c-274 0 -494 146 -494 559c0 394 230 562 527 562z" />
    <glyph glyph-name="ccedilla" unicode="&#xe7;" 
d="M555 -29l-31 1l-27 -95c49 21 100 31 162 31c102 0 151 -51 151 -119c0 -119 -137 -174 -323 -174c-74 0 -140 10 -185 27l13 36c18 -4 57 -10 98 -10c59 0 127 23 127 78c0 37 -23 51 -57 51c-23 0 -50 -4 -68 -14l55 193c-233 29 -409 185 -409 554
c0 394 230 562 527 562c119 0 215 -29 270 -62c74 -43 123 -119 123 -213c0 -112 -82 -199 -197 -199c-120 0 -188 76 -188 185c0 102 78 180 168 205c-19 14 -45 24 -82 24c-195 0 -238 -268 -238 -473c0 -289 136 -364 256 -364c56 0 158 12 248 137l35 -13
c-51 -165 -184 -348 -428 -348z" />
    <glyph glyph-name="ccircumflex" unicode="&#x109;" 
d="M536 1704h37c84 -162 227 -332 383 -434l-16 -29c-164 29 -332 78 -426 123c-78 -45 -213 -94 -344 -123l-17 29c154 100 295 270 383 434zM588 1092c119 0 215 -29 270 -62c74 -43 123 -119 123 -213c0 -112 -82 -199 -197 -199c-120 0 -188 76 -188 185
c0 102 78 180 168 205c-19 14 -45 24 -82 24c-195 0 -238 -268 -238 -473c0 -289 136 -364 256 -364c56 0 158 12 248 137l35 -13c-51 -165 -184 -348 -428 -348c-274 0 -494 146 -494 559c0 394 230 562 527 562z" />
    <glyph glyph-name="cdotaccent" unicode="&#x10b;" 
d="M555 1602c141 0 223 -60 223 -177c0 -116 -82 -176 -223 -176c-144 0 -223 60 -223 176c0 117 79 177 223 177zM588 1092c119 0 215 -29 270 -62c74 -43 123 -119 123 -213c0 -112 -82 -199 -197 -199c-120 0 -188 76 -188 185c0 102 78 180 168 205
c-19 14 -45 24 -82 24c-195 0 -238 -268 -238 -473c0 -289 136 -364 256 -364c56 0 158 12 248 137l35 -13c-51 -165 -184 -348 -428 -348c-274 0 -494 146 -494 559c0 394 230 562 527 562z" />
    <glyph glyph-name="d" unicode="d" horiz-adv-x="1247" 
d="M1100 1602v-1377c0 -123 28 -180 114 -180v-43c-43 4 -86 6 -127 6c-137 0 -253 -8 -356 -28v145c-55 -105 -129 -154 -250 -154c-235 0 -418 166 -418 568c0 370 181 553 455 553c91 0 158 -16 213 -52v316c0 123 -29 180 -115 180v43c43 -4 86 -6 127 -6
c138 0 254 8 357 29zM584 78c75 0 147 61 147 147v772c-31 19 -66 27 -96 27c-127 0 -189 -160 -189 -492c0 -362 62 -454 138 -454z" />
    <glyph glyph-name="eth" unicode="&#xf0;" horiz-adv-x="1178" 
d="M956 1542l-275 -133c257 -179 431 -443 431 -782c0 -457 -203 -660 -520 -660c-313 0 -526 137 -526 542c0 441 227 583 477 583c53 0 101 -8 144 -27c-28 103 -71 197 -137 280l-304 -149l-19 37l296 144c-66 73 -151 137 -261 190l17 35c130 -40 253 -96 363 -167
l296 144zM592 8c82 0 143 152 143 602c0 151 -9 292 -39 420c-20 7 -40 10 -59 10c-127 0 -188 -161 -188 -508c0 -366 61 -524 143 -524z" />
    <glyph glyph-name="dcaron" unicode="&#x10f;" horiz-adv-x="1247" 
d="M1212 1153l-28 8c32 185 41 260 41 297c0 53 -7 82 -41 82v43c20 -1 39 -1 56 -1c90 0 143 11 202 24c6 -15 10 -60 10 -84c0 -80 -94 -193 -240 -369zM1100 1602v-1377c0 -123 28 -180 114 -180v-43c-43 4 -86 6 -127 6c-137 0 -253 -8 -356 -28v145
c-55 -105 -129 -154 -250 -154c-235 0 -418 166 -418 568c0 370 181 553 455 553c91 0 158 -16 213 -52v316c0 123 -29 180 -115 180v43c43 -4 86 -6 127 -6c138 0 254 8 357 29zM584 78c75 0 147 61 147 147v772c-31 19 -66 27 -96 27c-127 0 -189 -160 -189 -492
c0 -362 62 -454 138 -454z" />
    <glyph glyph-name="dcroat" unicode="&#x111;" horiz-adv-x="1247" 
d="M1100 1245v-1020c0 -123 28 -180 114 -180v-43c-43 4 -86 6 -127 6c-137 0 -253 -8 -356 -28v145c-55 -105 -129 -154 -250 -154c-235 0 -418 166 -418 568c0 370 181 553 455 553c91 0 158 -16 213 -52v205h-323v41h323v70c0 123 -29 180 -115 180v43
c43 -4 86 -6 127 -6c138 0 254 8 357 29v-316h135v-41h-135zM584 78c75 0 147 61 147 147v772c-31 19 -66 27 -96 27c-127 0 -189 -160 -189 -492c0 -362 62 -454 138 -454z" />
    <glyph glyph-name="e" unicode="e" 
d="M682 195c55 0 158 12 248 137l35 -13c-52 -165 -185 -348 -428 -348c-263 0 -474 146 -474 559c0 394 230 562 527 562c239 0 387 -129 387 -459h-529c-2 -24 -2 -49 -2 -74c0 -289 125 -364 236 -364zM575 1044c-72 0 -120 -101 -134 -372h237c2 200 -27 372 -103 372z
" />
    <glyph glyph-name="eacute" unicode="&#xe9;" 
d="M807 1493c-68 -82 -168 -104 -361 -266l-22 18c117 232 100 336 174 418c25 30 68 49 111 49c31 0 63 -10 90 -33c29 -23 42 -57 42 -92c0 -33 -11 -67 -34 -94zM682 195c55 0 158 12 248 137l35 -13c-52 -165 -185 -348 -428 -348c-263 0 -474 146 -474 559
c0 394 230 562 527 562c239 0 387 -129 387 -459h-529c-2 -24 -2 -49 -2 -74c0 -289 125 -364 236 -364zM575 1044c-72 0 -120 -101 -134 -372h237c2 200 -27 372 -103 372z" />
    <glyph glyph-name="ebreve" unicode="&#x115;" 
d="M569 1255c-250 0 -362 183 -407 340l35 19c63 -51 176 -115 372 -115c197 0 310 64 373 115l35 -19c-45 -157 -158 -340 -408 -340zM977 633h-529c-2 -24 -2 -49 -2 -74c0 -289 125 -364 236 -364c55 0 158 12 248 137l35 -13c-52 -165 -185 -348 -428 -348
c-263 0 -474 146 -474 559c0 394 230 562 527 562c239 0 387 -129 387 -459zM575 1044c-72 0 -120 -101 -134 -372h237c2 200 -27 372 -103 372z" />
    <glyph glyph-name="ecaron" unicode="&#x11b;" 
d="M569 1241h-37c-84 162 -227 332 -383 434l17 29c163 -29 331 -78 426 -123c77 45 213 94 344 123l16 -29c-154 -100 -295 -270 -383 -434zM682 195c55 0 158 12 248 137l35 -13c-52 -165 -185 -348 -428 -348c-263 0 -474 146 -474 559c0 394 230 562 527 562
c239 0 387 -129 387 -459h-529c-2 -24 -2 -49 -2 -74c0 -289 125 -364 236 -364zM575 1044c-72 0 -120 -101 -134 -372h237c2 200 -27 372 -103 372z" />
    <glyph glyph-name="ecircumflex" unicode="&#xea;" 
d="M530 1364c-78 -45 -213 -94 -344 -123l-17 29c154 100 295 270 383 434h37c84 -162 227 -332 383 -434l-16 -29c-164 29 -332 78 -426 123zM682 195c55 0 158 12 248 137l35 -13c-52 -165 -185 -348 -428 -348c-263 0 -474 146 -474 559c0 394 230 562 527 562
c239 0 387 -129 387 -459h-529c-2 -24 -2 -49 -2 -74c0 -289 125 -364 236 -364zM575 1044c-72 0 -120 -101 -134 -372h237c2 200 -27 372 -103 372z" />
    <glyph glyph-name="edieresis" unicode="&#xeb;" 
d="M330 1225c-99 0 -179 80 -179 178c0 94 80 178 179 178c94 0 178 -84 178 -178c0 -98 -84 -178 -178 -178zM817 1225c-98 0 -178 80 -178 178c0 94 80 178 178 178c94 0 178 -84 178 -178c0 -98 -84 -178 -178 -178zM977 633h-529c-2 -24 -2 -49 -2 -74
c0 -289 125 -364 236 -364c55 0 158 12 248 137l35 -13c-52 -165 -185 -348 -428 -348c-263 0 -474 146 -474 559c0 394 230 562 527 562c239 0 387 -129 387 -459zM575 1044c-72 0 -120 -101 -134 -372h237c2 200 -27 372 -103 372z" />
    <glyph glyph-name="edotaccent" unicode="&#x117;" 
d="M571 1249c-144 0 -223 60 -223 176c0 117 79 177 223 177c141 0 223 -60 223 -177c0 -116 -82 -176 -223 -176zM682 195c55 0 158 12 248 137l35 -13c-52 -165 -185 -348 -428 -348c-263 0 -474 146 -474 559c0 394 230 562 527 562c239 0 387 -129 387 -459h-529
c-2 -24 -2 -49 -2 -74c0 -289 125 -364 236 -364zM575 1044c-72 0 -120 -101 -134 -372h237c2 200 -27 372 -103 372z" />
    <glyph glyph-name="egrave" unicode="&#xe8;" 
d="M686 1245l-23 -18c-192 162 -293 184 -360 266c-23 27 -34 61 -34 93c0 35 13 69 42 93c26 24 57 34 88 34c44 0 88 -21 113 -50c73 -82 57 -186 174 -418zM682 195c55 0 158 12 248 137l35 -13c-52 -165 -185 -348 -428 -348c-263 0 -474 146 -474 559
c0 394 230 562 527 562c239 0 387 -129 387 -459h-529c-2 -24 -2 -49 -2 -74c0 -289 125 -364 236 -364zM575 1044c-72 0 -120 -101 -134 -372h237c2 200 -27 372 -103 372z" />
    <glyph glyph-name="emacron" unicode="&#x113;" 
d="M925 1407h-721v51h721v-51zM682 195c55 0 158 12 248 137l35 -13c-52 -165 -185 -348 -428 -348c-263 0 -474 146 -474 559c0 394 230 562 527 562c239 0 387 -129 387 -459h-529c-2 -24 -2 -49 -2 -74c0 -289 125 -364 236 -364zM575 1044c-72 0 -120 -101 -134 -372
h237c2 200 -27 372 -103 372z" />
    <glyph glyph-name="eogonek" unicode="&#x119;" 
d="M682 195c55 0 158 12 248 137l35 -13c-38 -120 -119 -251 -255 -312c-7 -4 -16 -9 -28 -15c-107 -53 -139 -123 -139 -176c0 -56 28 -78 82 -78c45 0 104 20 135 47l26 -31c-79 -98 -170 -139 -313 -139c-133 0 -203 53 -203 145c0 93 83 165 228 212
c-244 14 -435 165 -435 558c0 394 230 562 527 562c239 0 387 -129 387 -459h-529c-2 -24 -2 -49 -2 -74c0 -289 125 -364 236 -364zM575 1044c-72 0 -120 -101 -134 -372h237c2 200 -27 372 -103 372z" />
    <glyph glyph-name="f" unicode="f" horiz-adv-x="748" 
d="M606 1602c109 0 185 -29 246 -76c39 -31 76 -90 76 -170c0 -84 -70 -166 -170 -166c-113 0 -185 63 -185 170c0 78 45 151 142 182c-8 10 -27 19 -56 19c-47 0 -75 -15 -96 -39c-24 -31 -39 -78 -39 -187v-274h219v-41h-219v-809c0 -133 66 -168 176 -168v-43
c-75 2 -225 8 -376 8c-111 0 -228 -6 -283 -8v43c84 0 115 33 115 147v830h-123v41h123c0 242 39 346 145 438c64 55 180 103 305 103z" />
    <glyph glyph-name="g" unicode="g" horiz-adv-x="1147" 
d="M362 287h465c162 0 301 -58 301 -240c0 -207 -192 -432 -606 -432c-377 0 -481 90 -481 170c0 149 254 61 337 162h-67c-82 0 -245 33 -245 213c0 134 70 213 265 306c-151 46 -249 143 -249 298c0 225 205 328 481 328c43 0 84 -2 123 -8c-1 14 -2 28 -2 42
c0 152 68 271 231 271c97 0 177 -49 177 -137c0 -78 -74 -134 -168 -134c-97 0 -148 39 -183 107c-10 -29 -14 -66 -14 -107c0 -16 1 -32 3 -48c188 -36 314 -137 314 -314c0 -225 -204 -328 -481 -328c-70 0 -135 7 -194 20c-51 -34 -80 -58 -80 -102c0 -47 28 -67 73 -67z
M563 1055c-65 0 -104 -72 -104 -291s39 -291 104 -291c66 0 105 72 105 291s-39 291 -105 291zM578 -350c159 0 266 94 266 231c0 41 -23 66 -94 66h-331c-21 -45 -26 -109 -26 -133c0 -103 62 -164 185 -164z" />
    <glyph glyph-name="gacute" unicode="&#x1f5;" horiz-adv-x="1147" 
d="M799 1493c-68 -82 -168 -104 -361 -266l-22 18c117 232 100 336 174 418c25 30 68 49 111 49c31 0 63 -10 90 -33c29 -23 42 -57 42 -92c0 -33 -11 -67 -34 -94zM362 287h465c162 0 301 -58 301 -240c0 -207 -192 -432 -606 -432c-377 0 -481 90 -481 170
c0 149 254 61 337 162h-67c-82 0 -245 33 -245 213c0 134 70 213 265 306c-151 46 -249 143 -249 298c0 225 205 328 481 328c43 0 84 -2 123 -8c-1 14 -2 28 -2 42c0 152 68 271 231 271c97 0 177 -49 177 -137c0 -78 -74 -134 -168 -134c-97 0 -148 39 -183 107
c-10 -29 -14 -66 -14 -107c0 -16 1 -32 3 -48c188 -36 314 -137 314 -314c0 -225 -204 -328 -481 -328c-70 0 -135 7 -194 20c-51 -34 -80 -58 -80 -102c0 -47 28 -67 73 -67zM563 1055c-65 0 -104 -72 -104 -291s39 -291 104 -291c66 0 105 72 105 291s-39 291 -105 291z
M578 -350c159 0 266 94 266 231c0 41 -23 66 -94 66h-331c-21 -45 -26 -109 -26 -133c0 -103 62 -164 185 -164z" />
    <glyph glyph-name="gbreve" unicode="&#x11f;" horiz-adv-x="1147" 
d="M602 1255c-250 0 -362 183 -407 340l35 19c63 -51 176 -115 372 -115c197 0 310 64 373 115l35 -19c-45 -157 -158 -340 -408 -340zM897 1196c-18 -27 -27 -53 -27 -96c0 -24 4 -48 11 -72c101 -54 163 -140 163 -264c0 -225 -204 -328 -481 -328c-70 0 -135 7 -194 20
c-51 -34 -80 -58 -80 -102c0 -47 28 -67 73 -67h465c162 0 301 -58 301 -240c0 -207 -192 -432 -606 -432c-377 0 -481 90 -481 170c0 149 254 61 337 162h-67c-82 0 -245 33 -245 213c0 134 70 213 265 306c-151 46 -249 143 -249 298c0 225 205 328 481 328
c102 0 193 -14 269 -43c-3 17 -5 34 -5 51c0 139 88 250 211 250c84 0 156 -45 156 -138c0 -77 -66 -133 -147 -133c-86 0 -132 62 -150 117zM563 473c66 0 105 72 105 291s-39 291 -105 291c-65 0 -104 -72 -104 -291s39 -291 104 -291zM844 -119c0 41 -23 66 -94 66h-331
c-21 -45 -26 -109 -26 -133c0 -103 62 -164 185 -164c159 0 266 94 266 231z" />
    <glyph glyph-name="gcircumflex" unicode="&#x11d;" horiz-adv-x="1147" 
d="M563 1364c-78 -45 -213 -94 -344 -123l-16 29c153 100 295 270 383 434h37c61 -148 143 -297 256 -412l-21 -28c-117 28 -225 65 -295 100zM897 1155c-18 -33 -27 -63 -27 -117v-5c108 -52 174 -141 174 -269c0 -225 -204 -328 -481 -328c-70 0 -135 7 -194 20
c-51 -34 -80 -58 -80 -102c0 -47 28 -67 73 -67h465c162 0 301 -58 301 -240c0 -207 -192 -432 -606 -432c-377 0 -481 90 -481 170c0 149 254 61 337 162h-67c-82 0 -245 33 -245 213c0 134 70 213 265 306c-151 46 -249 143 -249 298c0 225 205 328 481 328
c100 0 190 -13 264 -41c5 134 76 237 211 237c84 0 156 -39 156 -117c0 -65 -66 -112 -147 -112c-86 0 -132 51 -150 96zM563 473c66 0 105 72 105 291s-39 291 -105 291c-65 0 -104 -72 -104 -291s39 -291 104 -291zM844 -119c0 41 -23 66 -94 66h-331
c-21 -45 -26 -109 -26 -133c0 -103 62 -164 185 -164c159 0 266 94 266 231z" />
    <glyph glyph-name="gcommaaccent" unicode="&#x123;" horiz-adv-x="1147" 
d="M582 1270c-109 0 -190 58 -190 168c0 137 94 236 276 240l4 -45c-117 -15 -172 -43 -188 -103c20 19 51 31 108 31c109 0 172 -47 172 -141c0 -97 -63 -150 -182 -150zM819 1208c-10 -28 -14 -65 -14 -106c0 -14 1 -29 2 -44c145 -47 237 -143 237 -294
c0 -225 -204 -328 -481 -328c-70 0 -135 7 -194 20c-51 -34 -80 -58 -80 -102c0 -47 28 -67 73 -67h465c162 0 301 -58 301 -240c0 -207 -192 -432 -606 -432c-377 0 -481 90 -481 170c0 149 254 61 337 162h-67c-82 0 -245 33 -245 213c0 134 70 213 265 306
c-151 46 -249 143 -249 298c0 225 205 328 481 328c73 0 140 -7 200 -22c-1 11 -1 21 -1 32c0 151 67 270 231 270c97 0 176 -49 176 -137c0 -78 -73 -133 -168 -133c-96 0 -147 39 -182 106zM563 473c66 0 105 72 105 291s-39 291 -105 291c-65 0 -104 -72 -104 -291
s39 -291 104 -291zM844 -119c0 41 -23 66 -94 66h-331c-21 -45 -26 -109 -26 -133c0 -103 62 -164 185 -164c159 0 266 94 266 231z" />
    <glyph glyph-name="gdotaccent" unicode="&#x121;" horiz-adv-x="1147" 
d="M584 1249c-144 0 -223 60 -223 176c0 117 79 177 223 177c141 0 223 -60 223 -177c0 -116 -82 -176 -223 -176zM823 1223c-10 -29 -14 -56 -14 -97c0 -22 3 -47 8 -71c139 -48 227 -143 227 -291c0 -225 -204 -328 -481 -328c-70 0 -135 7 -194 20
c-51 -34 -80 -58 -80 -102c0 -47 28 -67 73 -67h465c162 0 301 -58 301 -240c0 -207 -192 -432 -606 -432c-377 0 -481 90 -481 170c0 149 254 61 337 162h-67c-82 0 -245 33 -245 213c0 134 70 213 265 306c-151 46 -249 143 -249 298c0 225 205 328 481 328
c75 0 145 -8 207 -23c-2 18 -4 37 -4 57c0 146 78 271 231 271c97 0 177 -58 177 -158c0 -90 -74 -154 -168 -154c-86 0 -164 37 -183 138zM563 473c66 0 105 72 105 291s-39 291 -105 291c-65 0 -104 -72 -104 -291s39 -291 104 -291zM844 -119c0 41 -23 66 -94 66h-331
c-21 -45 -26 -109 -26 -133c0 -103 62 -164 185 -164c159 0 266 94 266 231z" />
    <glyph glyph-name="h" unicode="h" horiz-adv-x="1274" 
d="M520 1602v-664c66 109 178 154 326 154c125 0 192 -35 231 -82c41 -49 60 -125 60 -265v-555c0 -114 30 -147 114 -147v-43c-55 2 -180 8 -286 8c-115 0 -236 -6 -291 -8v43c69 0 94 33 94 147v666c0 86 -29 129 -100 129c-76 0 -148 -61 -148 -147v-648
c0 -114 25 -147 94 -147v-43c-51 2 -163 8 -270 8c-115 0 -248 -6 -307 -8v43c84 0 115 33 115 147v1166c0 123 -29 180 -115 180v43c43 -4 86 -6 127 -6c137 0 254 8 356 29z" />
    <glyph glyph-name="hbar" unicode="&#x127;" horiz-adv-x="1274" 
d="M1137 745v-555c0 -114 30 -147 114 -147v-43c-55 2 -180 8 -286 8c-115 0 -236 -6 -291 -8v43c69 0 94 33 94 147v666c0 86 -29 129 -100 129c-76 0 -148 -61 -148 -147v-648c0 -114 25 -147 94 -147v-43c-51 2 -163 8 -270 8c-115 0 -248 -6 -307 -8v43
c84 0 115 33 115 147v1055h-136v41h136v70c0 123 -29 180 -115 180v43c43 -4 86 -6 127 -6c137 0 254 8 356 29v-316h289v-41h-289v-307c66 109 178 154 326 154c125 0 192 -35 231 -82c41 -49 60 -125 60 -265z" />
    <glyph glyph-name="hcircumflex" unicode="&#x125;" horiz-adv-x="1274" 
d="M594 2089h37c96 -129 264 -266 444 -352l-10 -31c-189 29 -387 80 -494 125c-90 -45 -256 -96 -411 -125l-11 31c178 84 344 221 445 352zM520 1602v-664c66 109 178 154 326 154c125 0 192 -35 231 -82c41 -49 60 -125 60 -265v-555c0 -114 30 -147 114 -147v-43
c-55 2 -180 8 -286 8c-115 0 -236 -6 -291 -8v43c69 0 94 33 94 147v666c0 86 -29 129 -100 129c-76 0 -148 -61 -148 -147v-648c0 -114 25 -147 94 -147v-43c-51 2 -163 8 -270 8c-115 0 -248 -6 -307 -8v43c84 0 115 33 115 147v1166c0 123 -29 180 -115 180v43
c43 -4 86 -6 127 -6c137 0 254 8 356 29z" />
    <glyph glyph-name="i" unicode="i" horiz-adv-x="676" 
d="M330 1602c141 0 223 -60 223 -177c0 -116 -82 -176 -223 -176c-144 0 -223 60 -223 176c0 117 79 177 223 177zM526 1085v-895c0 -114 31 -147 115 -147v-43c-55 2 -176 8 -291 8c-114 0 -248 -6 -307 -8v43c84 0 115 33 115 147v650c0 123 -29 180 -115 180v43
c43 -4 86 -6 127 -6c137 0 254 8 356 28z" />
    <glyph glyph-name="dotlessi" unicode="&#x131;" horiz-adv-x="676" 
d="M526 1085v-895c0 -114 31 -147 115 -147v-43c-55 2 -176 8 -291 8c-114 0 -248 -6 -307 -8v43c84 0 115 33 115 147v650c0 123 -29 180 -115 180v43c43 -4 86 -6 127 -6c137 0 254 8 356 28z" />
    <glyph glyph-name="iacute" unicode="&#xed;" horiz-adv-x="676" 
d="M572 1679c29 -23 42 -57 42 -92c0 -33 -11 -67 -34 -94c-68 -82 -168 -104 -361 -266l-22 18c117 232 100 336 174 418c25 30 68 49 111 49c31 0 63 -10 90 -33zM526 1085v-895c0 -114 31 -147 115 -147v-43c-55 2 -176 8 -291 8c-114 0 -248 -6 -307 -8v43
c84 0 115 33 115 147v650c0 123 -29 180 -115 180v43c43 -4 86 -6 127 -6c137 0 254 8 356 28z" />
    <glyph glyph-name="ibreve" unicode="&#x12d;" horiz-adv-x="676" 
d="M715 1614l35 -19c-45 -157 -158 -340 -408 -340s-362 183 -407 340l35 19c63 -51 176 -115 372 -115c197 0 310 64 373 115zM526 1085v-895c0 -114 31 -147 115 -147v-43c-55 2 -176 8 -291 8c-114 0 -248 -6 -307 -8v43c84 0 115 33 115 147v650c0 123 -29 180 -115 180
v43c43 -4 86 -6 127 -6c137 0 254 8 356 28z" />
    <glyph glyph-name="icircumflex" unicode="&#xee;" horiz-adv-x="676" 
d="M325 1704h37c84 -162 227 -332 383 -434l-16 -29c-164 29 -332 78 -426 123c-78 -45 -213 -94 -344 -123l-17 29c154 100 295 270 383 434zM526 1085v-895c0 -114 31 -147 115 -147v-43c-55 2 -176 8 -291 8c-114 0 -248 -6 -307 -8v43c84 0 115 33 115 147v650
c0 123 -29 180 -115 180v43c43 -4 86 -6 127 -6c137 0 254 8 356 28z" />
    <glyph glyph-name="idieresis" unicode="&#xef;" horiz-adv-x="676" 
d="M103 1581c94 0 178 -84 178 -178c0 -98 -84 -178 -178 -178c-99 0 -179 80 -179 178c0 94 80 178 179 178zM590 1581c94 0 178 -84 178 -178c0 -98 -84 -178 -178 -178c-98 0 -178 80 -178 178c0 94 80 178 178 178zM526 1085v-895c0 -114 31 -147 115 -147v-43
c-55 2 -176 8 -291 8c-114 0 -248 -6 -307 -8v43c84 0 115 33 115 147v650c0 123 -29 180 -115 180v43c43 -4 86 -6 127 -6c137 0 254 8 356 28z" />
    <glyph glyph-name="i.loclTRK" horiz-adv-x="676" 
d="M365 1602c141 0 223 -60 223 -177c0 -116 -82 -176 -223 -176c-144 0 -223 60 -223 176c0 117 79 177 223 177zM526 1085v-895c0 -114 31 -147 115 -147v-43c-55 2 -176 8 -291 8c-114 0 -248 -6 -307 -8v43c84 0 115 33 115 147v650c0 123 -29 180 -115 180v43
c43 -4 86 -6 127 -6c137 0 254 8 356 28z" />
    <glyph glyph-name="igrave" unicode="&#xec;" horiz-adv-x="676" 
d="M84 1679c26 24 57 34 88 34c44 0 88 -21 113 -50c73 -82 57 -186 174 -418l-23 -18c-192 162 -293 184 -360 266c-23 27 -34 61 -34 93c0 35 13 69 42 93zM526 1085v-895c0 -114 31 -147 115 -147v-43c-55 2 -176 8 -291 8c-114 0 -248 -6 -307 -8v43
c84 0 115 33 115 147v650c0 123 -29 180 -115 180v43c43 -4 86 -6 127 -6c137 0 254 8 356 28z" />
    <glyph glyph-name="ij" unicode="&#x133;" horiz-adv-x="1249" 
d="M309 1602c141 0 223 -60 223 -177c0 -116 -82 -176 -223 -176c-144 0 -223 60 -223 176c0 117 79 177 223 177zM928 1602c141 0 223 -60 223 -177c0 -116 -82 -176 -223 -176c-144 0 -223 60 -223 176c0 117 79 177 223 177zM1122 1085v-915c0 -379 -139 -555 -563 -555
c-174 0 -317 43 -317 168c0 74 71 141 213 141c118 0 213 -45 213 -133c0 -70 -60 -117 -140 -135c25 -2 39 -2 50 -2c133 0 176 80 176 254v217c-66 -109 -179 -154 -326 -154c-125 0 -192 35 -231 82c-41 49 -60 125 -60 264v523c0 123 -28 180 -114 180v43
c43 -4 86 -6 127 -6c137 0 253 8 356 28v-878c0 -86 29 -129 100 -129c76 0 148 61 148 147v615c0 123 -29 180 -115 180v43c43 -4 86 -6 127 -6c137 0 254 8 356 28z" />
    <glyph glyph-name="imacron" unicode="&#x12b;" horiz-adv-x="676" 
d="M662 1407h-680v51h680v-51zM526 1085v-895c0 -114 31 -147 115 -147v-43c-55 2 -176 8 -291 8c-114 0 -248 -6 -307 -8v43c84 0 115 33 115 147v650c0 123 -29 180 -115 180v43c43 -4 86 -6 127 -6c137 0 254 8 356 28z" />
    <glyph glyph-name="iogonek" unicode="&#x12f;" horiz-adv-x="676" 
d="M332 1249c-144 0 -223 60 -223 176c0 117 79 177 223 177c141 0 223 -60 223 -177c0 -116 -82 -176 -223 -176zM658 -215l26 -31c-79 -98 -170 -139 -313 -139c-133 0 -203 53 -203 145c0 118 132 201 357 245c-53 1 -115 3 -175 3c-114 0 -248 -6 -307 -8v43
c84 0 115 33 115 147v650c0 123 -29 180 -115 180v43c43 -4 86 -6 127 -6c137 0 254 8 356 28v-895c0 -114 31 -147 115 -147v-43l-42 2c-5 -3 -12 -6 -19 -10c-107 -53 -139 -123 -139 -176c0 -56 28 -78 82 -78c45 0 104 20 135 47z" />
    <glyph glyph-name="itilde" unicode="&#x129;" horiz-adv-x="676" 
d="M169 1634c179 0 228 -135 371 -135c57 0 111 31 158 109l28 -15c-47 -237 -151 -333 -262 -333c-180 0 -229 137 -372 137c-58 0 -111 -33 -158 -111l-29 14c47 238 152 334 264 334zM526 1085v-895c0 -114 31 -147 115 -147v-43c-55 2 -176 8 -291 8
c-114 0 -248 -6 -307 -8v43c84 0 115 33 115 147v650c0 123 -29 180 -115 180v43c43 -4 86 -6 127 -6c137 0 254 8 356 28z" />
    <glyph glyph-name="j" unicode="j" horiz-adv-x="649" 
d="M330 1602c141 0 223 -60 223 -177c0 -116 -82 -176 -223 -176c-144 0 -224 60 -224 176c0 117 80 177 224 177zM520 1085v-921c0 -242 -39 -354 -145 -447c-68 -59 -187 -102 -387 -102c-72 0 -150 6 -228 41c-65 29 -104 86 -104 151c0 97 80 158 201 158
c112 0 184 -51 184 -151c0 -60 -35 -123 -119 -154c19 -2 39 -4 55 -4c56 0 111 22 138 65c37 62 37 170 37 443v676c0 123 -29 180 -115 180v43c43 -4 86 -6 127 -6c137 0 254 8 356 28z" />
    <glyph glyph-name="dotlessj" unicode="&#x237;" horiz-adv-x="649" 
d="M520 1085v-921c0 -242 -39 -354 -145 -447c-68 -59 -187 -102 -387 -102c-72 0 -150 6 -228 41c-65 29 -104 86 -104 151c0 97 80 158 201 158c112 0 184 -51 184 -151c0 -60 -35 -123 -119 -154c19 -2 39 -4 55 -4c56 0 111 22 138 65c37 62 37 170 37 443v676
c0 123 -29 180 -115 180v43c43 -4 86 -6 127 -6c137 0 254 8 356 28z" />
    <glyph glyph-name="jcircumflex" unicode="&#x135;" horiz-adv-x="649" 
d="M294 1704h37c84 -162 227 -332 383 -434l-16 -29c-164 29 -332 78 -426 123c-78 -45 -213 -94 -344 -123l-17 29c154 100 295 270 383 434zM520 1085v-921c0 -242 -39 -354 -145 -447c-68 -59 -187 -102 -387 -102c-72 0 -150 6 -228 41c-65 29 -104 86 -104 151
c0 97 80 158 201 158c112 0 184 -51 184 -151c0 -60 -35 -123 -119 -154c19 -2 39 -4 55 -4c56 0 111 22 138 65c37 62 37 170 37 443v676c0 123 -29 180 -115 180v43c43 -4 86 -6 127 -6c137 0 254 8 356 28z" />
    <glyph glyph-name="k" unicode="k" horiz-adv-x="1247" 
d="M844 769l325 -619c23 -41 43 -87 82 -107v-43c-47 2 -153 8 -247 8c-111 0 -234 -6 -289 -8v43c40 0 59 14 59 38c0 10 -3 20 -8 32l-180 381c-17 32 -38 43 -66 45v-349c0 -114 31 -147 115 -147v-43c-55 2 -176 8 -291 8s-248 -6 -307 -8v43c84 0 115 33 115 147v1166
c0 123 -29 180 -115 180v43c43 -4 86 -6 127 -6c137 0 254 8 356 29v-1024c33 1 64 6 88 30l158 148c50 47 72 93 72 133c0 72 -70 125 -164 133v41c78 -4 180 -6 246 -6c84 0 227 2 280 6v-41c-98 -27 -201 -98 -303 -201z" />
    <glyph glyph-name="kcommaaccent" unicode="&#x137;" horiz-adv-x="1247" 
d="M844 769l325 -619c23 -41 43 -87 82 -107v-43c-47 2 -153 8 -247 8c-111 0 -234 -6 -289 -8v43c40 0 59 14 59 38c0 10 -3 20 -8 32l-180 381c-17 32 -38 43 -66 45v-349c0 -114 31 -147 115 -147v-43c-55 2 -176 8 -291 8s-248 -6 -307 -8v43c84 0 115 33 115 147v1166
c0 123 -29 180 -115 180v43c43 -4 86 -6 127 -6c137 0 254 8 356 29v-1024c33 1 64 6 88 30l158 148c50 47 72 93 72 133c0 72 -70 125 -164 133v41c78 -4 180 -6 246 -6c84 0 227 2 280 6v-41c-98 -27 -201 -98 -303 -201zM711 -92c109 0 190 -58 190 -168
c0 -137 -94 -236 -276 -240l-4 45c117 15 172 43 188 103c-20 -19 -51 -31 -108 -31c-109 0 -172 47 -172 141c0 97 63 150 182 150z" />
    <glyph glyph-name="kgreenlandic" unicode="&#x138;" horiz-adv-x="1247" 
d="M842 733l313 -583c31 -64 57 -99 102 -107v-43c-47 2 -153 8 -247 8c-103 0 -217 -6 -269 -8v43c41 0 60 14 60 39c0 9 -3 19 -8 31l-201 370c-17 33 -38 43 -66 45v-338c0 -114 31 -147 115 -147v-43c-55 2 -176 8 -291 8c-114 0 -248 -6 -307 -8v43
c84 0 115 33 115 147v650c0 123 -29 180 -115 180v43c43 -4 86 -6 127 -6c137 0 254 8 356 28v-518c90 5 140 41 193 107l155 182c22 27 33 54 33 78c0 48 -45 84 -131 88v41c72 -4 152 -6 211 -6c84 0 166 2 219 6v-41c-110 -12 -162 -39 -211 -100z" />
    <glyph glyph-name="l" unicode="l" horiz-adv-x="672" 
d="M520 1602v-1412c0 -114 31 -147 115 -147v-43c-55 2 -176 8 -291 8s-248 -6 -307 -8v43c84 0 115 33 115 147v1166c0 123 -29 180 -115 180v43c43 -4 86 -6 127 -6c137 0 254 8 356 29z" />
    <glyph glyph-name="lacute" unicode="&#x13a;" horiz-adv-x="672" 
d="M490 2054c18 9 40 14 63 14c50 0 103 -24 129 -77c8 -18 12 -36 12 -54c0 -49 -29 -97 -77 -120c-95 -50 -197 -31 -437 -105l-14 25c199 168 223 270 324 317zM520 1602v-1412c0 -114 31 -147 115 -147v-43c-55 2 -176 8 -291 8s-248 -6 -307 -8v43c84 0 115 33 115 147
v1166c0 123 -29 180 -115 180v43c43 -4 86 -6 127 -6c137 0 254 8 356 29z" />
    <glyph glyph-name="lcaron" unicode="&#x13e;" horiz-adv-x="672" 
d="M865 1606c6 -15 10 -60 10 -84c0 -80 -94 -193 -240 -369l-28 8c32 185 41 260 41 297c0 53 -7 82 -41 82v43c20 -1 39 -1 56 -1c90 0 143 11 202 24zM520 1602v-1412c0 -114 31 -147 115 -147v-43c-55 2 -176 8 -291 8s-248 -6 -307 -8v43c84 0 115 33 115 147v1166
c0 123 -29 180 -115 180v43c43 -4 86 -6 127 -6c137 0 254 8 356 29z" />
    <glyph glyph-name="lcommaaccent" unicode="&#x13c;" horiz-adv-x="672" 
d="M520 1602v-1412c0 -114 31 -147 115 -147v-43c-55 2 -176 8 -291 8s-248 -6 -307 -8v43c84 0 115 33 115 147v1166c0 123 -29 180 -115 180v43c43 -4 86 -6 127 -6c137 0 254 8 356 29zM328 -92c109 0 190 -58 190 -168c0 -137 -94 -236 -276 -240l-4 45
c117 15 172 43 188 103c-20 -19 -51 -31 -108 -31c-109 0 -172 47 -172 141c0 97 63 150 182 150z" />
    <glyph glyph-name="ldot" unicode="&#x140;" horiz-adv-x="1128" 
d="M520 1602v-1412c0 -114 31 -147 115 -147v-43c-55 2 -176 8 -291 8s-248 -6 -307 -8v43c84 0 115 33 115 147v1166c0 123 -29 180 -115 180v43c43 -4 86 -6 127 -6c137 0 254 8 356 29zM905 826c129 0 203 -60 203 -177c0 -116 -74 -176 -203 -176
c-131 0 -203 60 -203 176c0 117 72 177 203 177z" />
    <glyph glyph-name="lslash" unicode="&#x142;" horiz-adv-x="672" 
d="M520 864v-674c0 -114 31 -147 115 -147v-43c-55 2 -176 8 -291 8s-248 -6 -307 -8v43c84 0 115 33 115 147v459l-177 -153v61l177 153v646c0 123 -29 180 -115 180v43c43 -4 86 -6 127 -6c137 0 254 8 356 29v-676l176 155v-61z" />
    <glyph glyph-name="m" unicode="m" horiz-adv-x="1876" 
d="M1739 745v-555c0 -114 30 -147 114 -147v-43c-55 2 -180 8 -286 8c-107 0 -219 -6 -271 -8v43c56 0 74 33 74 147v666c0 86 -29 129 -100 129s-141 -71 -151 -151c2 -26 3 -56 3 -89v-555c0 -114 23 -147 95 -147v-43c-52 2 -168 8 -267 8c-106 0 -219 -6 -270 -8v43
c53 0 74 33 74 147v666c0 86 -23 129 -80 129c-76 0 -148 -61 -148 -147v-648c0 -114 19 -147 74 -147v-43c-47 2 -151 8 -250 8c-114 0 -248 -6 -307 -8v43c84 0 115 33 115 147v650c0 123 -29 180 -115 180v43c43 -4 86 -6 127 -6c137 0 254 8 356 28v-147
c62 109 168 154 305 154c125 0 193 -35 232 -82c20 -24 35 -55 44 -96c75 138 195 178 341 178c125 0 192 -35 231 -82c41 -49 60 -125 60 -265z" />
    <glyph glyph-name="n" unicode="n" horiz-adv-x="1280" 
d="M852 1092c125 0 192 -35 231 -82c41 -49 60 -125 60 -265v-555c0 -114 31 -147 114 -147v-43c-55 2 -180 8 -286 8c-115 0 -236 -6 -291 -8v43c70 0 94 33 94 147v666c0 86 -29 129 -100 129c-76 0 -148 -61 -148 -147v-648c0 -114 25 -147 95 -147v-43
c-52 2 -164 8 -271 8c-114 0 -248 -6 -307 -8v43c84 0 115 33 115 147v650c0 123 -29 180 -115 180v43c43 -4 86 -6 127 -6c137 0 254 8 356 28v-147c66 109 179 154 326 154z" />
    <glyph glyph-name="nacute" unicode="&#x144;" horiz-adv-x="1280" 
d="M879 1679c29 -23 42 -57 42 -92c0 -33 -11 -67 -34 -94c-68 -82 -168 -104 -361 -266l-22 18c117 232 100 336 174 418c25 30 68 49 111 49c31 0 63 -10 90 -33zM852 1092c125 0 192 -35 231 -82c41 -49 60 -125 60 -265v-555c0 -114 31 -147 114 -147v-43
c-55 2 -180 8 -286 8c-115 0 -236 -6 -291 -8v43c70 0 94 33 94 147v666c0 86 -29 129 -100 129c-76 0 -148 -61 -148 -147v-648c0 -114 25 -147 95 -147v-43c-52 2 -164 8 -271 8c-114 0 -248 -6 -307 -8v43c84 0 115 33 115 147v650c0 123 -29 180 -115 180v43
c43 -4 86 -6 127 -6c137 0 254 8 356 28v-147c66 109 179 154 326 154z" />
    <glyph glyph-name="napostrophe" unicode="&#x149;" horiz-adv-x="1280" 
d="M1143 745v-555c0 -114 31 -147 114 -147v-43c-55 2 -180 8 -286 8c-115 0 -236 -6 -291 -8v43c70 0 94 33 94 147v666c0 86 -29 129 -100 129c-76 0 -148 -61 -148 -147v-648c0 -114 25 -147 95 -147v-43c-52 2 -164 8 -271 8c-114 0 -248 -6 -307 -8v43
c84 0 115 33 115 147v650c0 123 -29 180 -115 180v2c-16 -10 -32 -19 -50 -27l-18 37c72 33 133 101 154 168c7 23 11 46 11 68c0 15 -2 30 -5 45c-35 -41 -86 -64 -150 -64c-108 0 -180 64 -180 176c0 107 78 177 192 177c72 0 130 -27 162 -76c29 -39 51 -111 51 -195
c0 -102 -38 -200 -118 -272c26 -1 53 -2 78 -2c137 0 254 8 356 28v-147c66 109 179 154 326 154c125 0 192 -35 231 -82c41 -49 60 -125 60 -265z" />
    <glyph glyph-name="ncaron" unicode="&#x148;" horiz-adv-x="1280" 
d="M1016 1704l16 -29c-154 -100 -295 -270 -383 -434h-37c-84 162 -227 332 -383 434l17 29c163 -29 331 -78 426 -123c77 45 213 94 344 123zM852 1092c125 0 192 -35 231 -82c41 -49 60 -125 60 -265v-555c0 -114 31 -147 114 -147v-43c-55 2 -180 8 -286 8
c-115 0 -236 -6 -291 -8v43c70 0 94 33 94 147v666c0 86 -29 129 -100 129c-76 0 -148 -61 -148 -147v-648c0 -114 25 -147 95 -147v-43c-52 2 -164 8 -271 8c-114 0 -248 -6 -307 -8v43c84 0 115 33 115 147v650c0 123 -29 180 -115 180v43c43 -4 86 -6 127 -6
c137 0 254 8 356 28v-147c66 109 179 154 326 154z" />
    <glyph glyph-name="ncommaaccent" unicode="&#x146;" horiz-adv-x="1280" 
d="M852 1092c125 0 192 -35 231 -82c41 -49 60 -125 60 -265v-555c0 -114 31 -147 114 -147v-43c-55 2 -180 8 -286 8c-115 0 -236 -6 -291 -8v43c70 0 94 33 94 147v666c0 86 -29 129 -100 129c-76 0 -148 -61 -148 -147v-648c0 -114 25 -147 95 -147v-43
c-52 2 -164 8 -271 8c-114 0 -248 -6 -307 -8v43c84 0 115 33 115 147v650c0 123 -29 180 -115 180v43c43 -4 86 -6 127 -6c137 0 254 8 356 28v-147c66 109 179 154 326 154zM668 -92c109 0 190 -58 190 -168c0 -137 -94 -236 -276 -240l-4 45c117 15 172 43 188 103
c-20 -19 -51 -31 -108 -31c-109 0 -172 47 -172 141c0 97 63 150 182 150z" />
    <glyph glyph-name="eng" unicode="&#x14b;" horiz-adv-x="1260" 
d="M852 1092c125 0 192 -35 231 -82c41 -49 60 -125 60 -265v-581c0 -242 -43 -350 -146 -447c-61 -57 -157 -102 -393 -102c-94 0 -342 16 -342 160c0 71 72 149 213 149c119 0 213 -45 213 -133c0 -70 -57 -110 -137 -129c24 -4 47 -4 61 -4c70 0 113 41 138 100
c22 53 24 189 24 309v97v692c0 86 -29 129 -100 129c-76 0 -148 -61 -148 -147v-648c0 -114 25 -147 95 -147v-43c-52 2 -164 8 -271 8c-114 0 -248 -6 -307 -8v43c84 0 115 33 115 147v650c0 123 -29 180 -115 180v43c43 -4 86 -6 127 -6c137 0 254 8 356 28v-147
c66 109 179 154 326 154z" />
    <glyph glyph-name="ntilde" unicode="&#xf1;" horiz-adv-x="1280" 
d="M476 1634c179 0 228 -135 371 -135c57 0 111 31 158 109l28 -15c-47 -237 -151 -333 -262 -333c-180 0 -229 137 -372 137c-58 0 -111 -33 -158 -111l-29 14c47 238 152 334 264 334zM852 1092c125 0 192 -35 231 -82c41 -49 60 -125 60 -265v-555
c0 -114 31 -147 114 -147v-43c-55 2 -180 8 -286 8c-115 0 -236 -6 -291 -8v43c70 0 94 33 94 147v666c0 86 -29 129 -100 129c-76 0 -148 -61 -148 -147v-648c0 -114 25 -147 95 -147v-43c-52 2 -164 8 -271 8c-114 0 -248 -6 -307 -8v43c84 0 115 33 115 147v650
c0 123 -29 180 -115 180v43c43 -4 86 -6 127 -6c137 0 254 8 356 28v-147c66 109 179 154 326 154z" />
    <glyph glyph-name="o" unicode="o" horiz-adv-x="1180" 
d="M590 1092c317 0 526 -148 526 -562c0 -413 -209 -559 -526 -559c-318 0 -527 146 -527 559c0 414 209 562 527 562zM590 1051c-82 0 -144 -154 -144 -521c0 -366 62 -518 144 -518s143 152 143 518c0 367 -61 521 -143 521z" />
    <glyph glyph-name="oacute" unicode="&#xf3;" horiz-adv-x="1180" 
d="M818 1679c29 -23 42 -57 42 -92c0 -33 -11 -67 -34 -94c-68 -82 -168 -104 -361 -266l-22 18c117 232 100 336 174 418c25 30 68 49 111 49c31 0 63 -10 90 -33zM590 1092c317 0 526 -148 526 -562c0 -413 -209 -559 -526 -559c-318 0 -527 146 -527 559
c0 414 209 562 527 562zM590 1051c-82 0 -144 -154 -144 -521c0 -366 62 -518 144 -518s143 152 143 518c0 367 -61 521 -143 521z" />
    <glyph glyph-name="obreve" unicode="&#x14f;" horiz-adv-x="1180" 
d="M961 1614l35 -19c-45 -157 -158 -340 -408 -340s-362 183 -407 340l35 19c63 -51 176 -115 372 -115c197 0 310 64 373 115zM590 1092c317 0 526 -148 526 -562c0 -413 -209 -559 -526 -559c-318 0 -527 146 -527 559c0 414 209 562 527 562zM590 1051
c-82 0 -144 -154 -144 -521c0 -366 62 -518 144 -518s143 152 143 518c0 367 -61 521 -143 521z" />
    <glyph glyph-name="ocircumflex" unicode="&#xf4;" horiz-adv-x="1180" 
d="M571 1704h37c84 -162 227 -332 383 -434l-16 -29c-164 29 -332 78 -426 123c-78 -45 -213 -94 -344 -123l-17 29c154 100 295 270 383 434zM590 1092c317 0 526 -148 526 -562c0 -413 -209 -559 -526 -559c-318 0 -527 146 -527 559c0 414 209 562 527 562zM590 1051
c-82 0 -144 -154 -144 -521c0 -366 62 -518 144 -518s143 152 143 518c0 367 -61 521 -143 521z" />
    <glyph glyph-name="odieresis" unicode="&#xf6;" horiz-adv-x="1180" 
d="M349 1581c94 0 178 -84 178 -178c0 -98 -84 -178 -178 -178c-99 0 -179 80 -179 178c0 94 80 178 179 178zM836 1581c94 0 178 -84 178 -178c0 -98 -84 -178 -178 -178c-98 0 -178 80 -178 178c0 94 80 178 178 178zM590 1092c317 0 526 -148 526 -562
c0 -413 -209 -559 -526 -559c-318 0 -527 146 -527 559c0 414 209 562 527 562zM590 1051c-82 0 -144 -154 -144 -521c0 -366 62 -518 144 -518s143 152 143 518c0 367 -61 521 -143 521z" />
    <glyph glyph-name="ograve" unicode="&#xf2;" horiz-adv-x="1180" 
d="M330 1679c26 24 57 34 88 34c44 0 88 -21 113 -50c73 -82 57 -186 174 -418l-23 -18c-192 162 -293 184 -360 266c-23 27 -34 61 -34 93c0 35 13 69 42 93zM590 1092c317 0 526 -148 526 -562c0 -413 -209 -559 -526 -559c-318 0 -527 146 -527 559
c0 414 209 562 527 562zM590 1051c-82 0 -144 -154 -144 -521c0 -366 62 -518 144 -518s143 152 143 518c0 367 -61 521 -143 521z" />
    <glyph glyph-name="ohungarumlaut" unicode="&#x151;" horiz-adv-x="1180" 
d="M641 1673c37 -26 56 -63 56 -102c0 -27 -9 -56 -26 -82c-47 -72 -143 -119 -292 -264l-27 12c59 209 47 319 92 395c25 41 70 65 118 65c26 0 54 -8 79 -24zM1003 1673c38 -26 57 -63 57 -103c0 -27 -9 -55 -26 -81c-47 -72 -143 -119 -293 -264l-27 12
c60 209 48 319 93 395c25 41 70 65 117 65c27 0 54 -8 79 -24zM590 1092c317 0 526 -148 526 -562c0 -413 -209 -559 -526 -559c-318 0 -527 146 -527 559c0 414 209 562 527 562zM590 1051c-82 0 -144 -154 -144 -521c0 -366 62 -518 144 -518s143 152 143 518
c0 367 -61 521 -143 521z" />
    <glyph glyph-name="omacron" unicode="&#x14d;" horiz-adv-x="1180" 
d="M944 1407h-721v51h721v-51zM590 1092c317 0 526 -148 526 -562c0 -413 -209 -559 -526 -559c-318 0 -527 146 -527 559c0 414 209 562 527 562zM590 1051c-82 0 -144 -154 -144 -521c0 -366 62 -518 144 -518s143 152 143 518c0 367 -61 521 -143 521z" />
    <glyph glyph-name="oslash" unicode="&#xf8;" horiz-adv-x="1180" 
d="M1067 1186l-131 -190c114 -85 180 -234 180 -466c0 -413 -209 -559 -526 -559c-117 0 -219 20 -301 65l-129 -186l-39 27l127 185c-117 84 -185 233 -185 468c0 414 209 562 527 562c119 0 223 -21 306 -69l132 189zM590 1051c-82 0 -144 -154 -144 -521
c0 -76 3 -142 8 -200l264 472c-23 173 -70 249 -128 249zM590 12c82 0 143 152 143 518c0 71 -2 134 -7 190l-263 -473c24 -163 71 -235 127 -235z" />
    <glyph glyph-name="otilde" unicode="&#xf5;" horiz-adv-x="1180" 
d="M415 1634c179 0 228 -135 371 -135c57 0 111 31 158 109l28 -15c-47 -237 -151 -333 -262 -333c-180 0 -229 137 -372 137c-58 0 -111 -33 -158 -111l-29 14c47 238 152 334 264 334zM590 1092c317 0 526 -148 526 -562c0 -413 -209 -559 -526 -559
c-318 0 -527 146 -527 559c0 414 209 562 527 562zM590 1051c-82 0 -144 -154 -144 -521c0 -366 62 -518 144 -518s143 152 143 518c0 367 -61 521 -143 521z" />
    <glyph glyph-name="oe" unicode="&#x153;" horiz-adv-x="1638" 
d="M1331 195c47 0 133 12 207 137l35 -13c-47 -165 -168 -348 -387 -348c-119 0 -225 39 -300 135c-75 -96 -184 -135 -317 -135c-305 0 -506 146 -506 559c0 414 201 562 506 562c136 0 247 -42 321 -143c77 98 187 143 308 143c240 0 387 -129 387 -459h-488
c-1 -24 -1 -49 -1 -74c0 -289 125 -364 235 -364zM569 12c82 0 144 152 144 514c0 371 -62 525 -144 525c-69 0 -123 -154 -123 -521c0 -366 54 -518 123 -518zM1184 1044c-50 0 -85 -101 -94 -372h196c2 200 -26 372 -102 372z" />
    <glyph glyph-name="p" unicode="p" horiz-adv-x="1253" 
d="M831 1092c203 0 357 -166 357 -514c0 -465 -221 -607 -477 -607c-70 0 -139 10 -191 39v-170c0 -133 66 -168 176 -168v-43c-75 2 -225 9 -377 9c-110 0 -227 -7 -282 -9v43c84 0 115 33 115 148v1018c0 123 -29 180 -115 180v43c43 -4 86 -6 127 -6c137 0 254 8 356 28
v-145c64 104 172 154 311 154zM592 33c151 0 213 166 213 497c0 363 -62 455 -137 455c-76 0 -148 -61 -148 -147v-788c21 -13 48 -17 72 -17z" />
    <glyph glyph-name="thorn" unicode="&#xfe;" horiz-adv-x="1231" 
d="M809 1092c203 0 356 -166 356 -514c0 -465 -221 -607 -477 -607c-70 0 -138 10 -190 39v-170c0 -133 65 -168 176 -168v-43c-76 2 -225 9 -377 9c-111 0 -227 -7 -283 -9v43c84 0 115 33 115 148v1536c0 123 -29 180 -115 180v43c43 -4 86 -6 127 -6c138 0 254 8 357 29
v-664c63 104 172 154 311 154zM569 33c152 0 213 166 213 497c0 363 -61 455 -137 455s-147 -61 -147 -147v-788c21 -13 47 -17 71 -17z" />
    <glyph glyph-name="q" unicode="q" horiz-adv-x="1229" 
d="M1100 963v-1143c0 -115 30 -148 114 -148v-43c-55 2 -172 9 -282 9c-152 0 -301 -7 -377 -9v43c111 0 176 35 176 168v285c-55 -105 -129 -154 -250 -154c-235 0 -418 166 -418 568c0 370 181 553 455 553c86 0 161 -4 231 -34c44 -15 92 -22 136 -22c86 0 163 25 200 60
l29 -21c-12 -37 -14 -74 -14 -112zM584 78c75 0 147 61 147 147v803c-31 16 -66 23 -96 23c-127 0 -189 -172 -189 -519c0 -362 62 -454 138 -454z" />
    <glyph glyph-name="r" unicode="r" horiz-adv-x="985" 
d="M791 1092c147 0 188 -113 188 -207c0 -123 -76 -201 -188 -201c-121 0 -183 59 -183 147c0 93 43 150 105 191c-23 0 -45 -4 -66 -14c-67 -29 -121 -101 -121 -183v-614c0 -131 52 -168 176 -168v-43c-63 2 -200 8 -331 8c-123 0 -265 -6 -328 -8v43c84 0 115 33 115 147
v650c0 123 -29 180 -115 180v43c43 -4 86 -6 127 -6c137 0 254 8 356 28v-147c54 104 146 154 265 154z" />
    <glyph glyph-name="racute" unicode="&#x155;" horiz-adv-x="985" 
d="M717 1679c29 -23 42 -57 42 -92c0 -33 -11 -67 -34 -94c-68 -82 -168 -104 -361 -266l-22 18c117 232 100 336 174 418c25 30 68 49 111 49c31 0 63 -10 90 -33zM791 1092c147 0 188 -113 188 -207c0 -123 -76 -201 -188 -201c-121 0 -183 59 -183 147
c0 93 43 150 105 191c-23 0 -45 -4 -66 -14c-67 -29 -121 -101 -121 -183v-614c0 -131 52 -168 176 -168v-43c-63 2 -200 8 -331 8c-123 0 -265 -6 -328 -8v43c84 0 115 33 115 147v650c0 123 -29 180 -115 180v43c43 -4 86 -6 127 -6c137 0 254 8 356 28v-147
c54 104 146 154 265 154z" />
    <glyph glyph-name="rcaron" unicode="&#x159;" horiz-adv-x="985" 
d="M854 1704l16 -29c-154 -100 -295 -270 -383 -434h-37c-84 162 -227 332 -383 434l17 29c163 -29 331 -78 426 -123c77 45 213 94 344 123zM791 1092c147 0 188 -113 188 -207c0 -123 -76 -201 -188 -201c-121 0 -183 59 -183 147c0 93 43 150 105 191
c-23 0 -45 -4 -66 -14c-67 -29 -121 -101 -121 -183v-614c0 -131 52 -168 176 -168v-43c-63 2 -200 8 -331 8c-123 0 -265 -6 -328 -8v43c84 0 115 33 115 147v650c0 123 -29 180 -115 180v43c43 -4 86 -6 127 -6c137 0 254 8 356 28v-147c54 104 146 154 265 154z" />
    <glyph glyph-name="rcommaaccent" unicode="&#x157;" horiz-adv-x="985" 
d="M791 1092c147 0 188 -113 188 -207c0 -123 -76 -201 -188 -201c-121 0 -183 59 -183 147c0 93 43 150 105 191c-23 0 -45 -4 -66 -14c-67 -29 -121 -101 -121 -183v-614c0 -131 52 -168 176 -168v-43c-63 2 -200 8 -331 8c-123 0 -265 -6 -328 -8v43c84 0 115 33 115 147
v650c0 123 -29 180 -115 180v43c43 -4 86 -6 127 -6c137 0 254 8 356 28v-147c54 104 146 154 265 154zM352 -92c109 0 190 -58 190 -168c0 -137 -94 -236 -276 -240l-4 45c117 15 172 43 188 103c-20 -19 -51 -31 -108 -31c-109 0 -172 47 -172 141c0 97 63 150 182 150z
" />
    <glyph glyph-name="s" unicode="s" horiz-adv-x="967" 
d="M473 1092c119 0 217 -33 258 -56c14 -8 26 -12 37 -12c26 0 44 21 51 66h41c-6 -80 -8 -183 -8 -369h-41c-18 151 -84 321 -252 321c-67 0 -121 -43 -121 -114c0 -123 129 -199 246 -295c125 -103 221 -189 221 -346c0 -187 -186 -316 -413 -316c-97 0 -168 25 -211 52
c-43 22 -72 34 -103 34c-28 0 -47 -32 -57 -71h-41c6 88 8 202 8 409h41c25 -217 121 -372 270 -372c64 0 119 34 119 112c0 121 -82 189 -190 287c-123 113 -240 213 -240 375c0 182 182 295 385 295z" />
    <glyph glyph-name="sacute" unicode="&#x15b;" horiz-adv-x="967" 
d="M711 1679c29 -23 42 -57 42 -92c0 -33 -11 -67 -34 -94c-68 -82 -168 -104 -361 -266l-22 18c117 232 100 336 174 418c25 30 68 49 111 49c31 0 63 -10 90 -33zM473 1092c119 0 217 -33 258 -56c14 -8 26 -12 37 -12c26 0 44 21 51 66h41c-6 -80 -8 -183 -8 -369h-41
c-18 151 -84 321 -252 321c-67 0 -121 -43 -121 -114c0 -123 129 -199 246 -295c125 -103 221 -189 221 -346c0 -187 -186 -316 -413 -316c-97 0 -168 25 -211 52c-43 22 -72 34 -103 34c-28 0 -47 -32 -57 -71h-41c6 88 8 202 8 409h41c25 -217 121 -372 270 -372
c64 0 119 34 119 112c0 121 -82 189 -190 287c-123 113 -240 213 -240 375c0 182 182 295 385 295z" />
    <glyph glyph-name="scaron" unicode="&#x161;" horiz-adv-x="967" 
d="M848 1704l16 -29c-154 -100 -295 -270 -383 -434h-37c-84 162 -227 332 -383 434l17 29c163 -29 331 -78 426 -123c77 45 213 94 344 123zM473 1092c119 0 217 -33 258 -56c14 -8 26 -12 37 -12c26 0 44 21 51 66h41c-6 -80 -8 -183 -8 -369h-41
c-18 151 -84 321 -252 321c-67 0 -121 -43 -121 -114c0 -123 129 -199 246 -295c125 -103 221 -189 221 -346c0 -187 -186 -316 -413 -316c-97 0 -168 25 -211 52c-43 22 -72 34 -103 34c-28 0 -47 -32 -57 -71h-41c6 88 8 202 8 409h41c25 -217 121 -372 270 -372
c64 0 119 34 119 112c0 121 -82 189 -190 287c-123 113 -240 213 -240 375c0 182 182 295 385 295z" />
    <glyph glyph-name="scedilla" unicode="&#x15f;" horiz-adv-x="967" 
d="M492 -29c-17 0 -33 1 -48 2l-27 -96c49 21 100 31 162 31c102 0 151 -51 151 -119c0 -119 -137 -174 -323 -174c-74 0 -140 10 -185 27l13 36c18 -4 57 -10 98 -10c59 0 127 23 127 78c0 37 -23 51 -57 51c-23 0 -50 -4 -68 -14l57 198c-48 10 -85 25 -111 42
c-43 22 -72 34 -103 34c-28 0 -47 -32 -57 -71h-41c6 88 8 202 8 409h41c25 -217 121 -372 270 -372c64 0 119 34 119 112c0 121 -82 189 -190 287c-123 113 -240 213 -240 375c0 182 182 295 385 295c119 0 217 -33 258 -56c14 -8 26 -12 37 -12c26 0 44 21 51 66h41
c-6 -80 -8 -183 -8 -369h-41c-18 151 -84 321 -252 321c-67 0 -121 -43 -121 -114c0 -123 129 -199 246 -295c125 -103 221 -189 221 -346c0 -187 -186 -316 -413 -316z" />
    <glyph glyph-name="scircumflex" unicode="&#x15d;" horiz-adv-x="967" 
d="M464 1704h37c84 -162 227 -332 383 -434l-16 -29c-164 29 -332 78 -426 123c-78 -45 -213 -94 -344 -123l-17 29c154 100 295 270 383 434zM473 1092c119 0 217 -33 258 -56c14 -8 26 -12 37 -12c26 0 44 21 51 66h41c-6 -80 -8 -183 -8 -369h-41
c-18 151 -84 321 -252 321c-67 0 -121 -43 -121 -114c0 -123 129 -199 246 -295c125 -103 221 -189 221 -346c0 -187 -186 -316 -413 -316c-97 0 -168 25 -211 52c-43 22 -72 34 -103 34c-28 0 -47 -32 -57 -71h-41c6 88 8 202 8 409h41c25 -217 121 -372 270 -372
c64 0 119 34 119 112c0 121 -82 189 -190 287c-123 113 -240 213 -240 375c0 182 182 295 385 295z" />
    <glyph glyph-name="scommaaccent" unicode="&#x219;" horiz-adv-x="967" 
d="M473 1092c119 0 217 -33 258 -56c14 -8 26 -12 37 -12c26 0 44 21 51 66h41c-6 -80 -8 -183 -8 -369h-41c-18 151 -84 321 -252 321c-67 0 -121 -43 -121 -114c0 -123 129 -199 246 -295c125 -103 221 -189 221 -346c0 -187 -186 -316 -413 -316c-97 0 -168 25 -211 52
c-43 22 -72 34 -103 34c-28 0 -47 -32 -57 -71h-41c6 88 8 202 8 409h41c25 -217 121 -372 270 -372c64 0 119 34 119 112c0 121 -82 189 -190 287c-123 113 -240 213 -240 375c0 182 182 295 385 295zM479 -92c109 0 190 -58 190 -168c0 -137 -94 -236 -276 -240l-4 45
c117 15 172 43 188 103c-20 -19 -51 -31 -108 -31c-109 0 -172 47 -172 141c0 97 63 150 182 150z" />
    <glyph glyph-name="germandbls" unicode="&#xdf;" horiz-adv-x="1444" 
d="M727 1602c309 0 477 -138 477 -310c0 -202 -213 -352 -491 -405c475 -53 698 -260 698 -512c0 -266 -246 -404 -510 -404c-178 0 -315 56 -315 234c0 117 63 198 172 198c100 0 164 -69 164 -167c0 -109 -80 -183 -154 -216c16 -8 35 -12 59 -12c144 0 197 156 197 342
c0 379 -221 463 -346 510c-25 -12 -51 -22 -70 -22c-20 0 -41 10 -41 32c0 23 17 37 45 37c21 0 52 -8 66 -14c139 90 178 194 178 369c0 211 -57 309 -170 309c-158 0 -166 -133 -166 -479v-1115c-84 17 -176 27 -284 29c-16 1 -30 1 -44 1c-42 0 -81 -2 -155 -7v43
c84 0 115 33 115 147v859c0 360 196 553 575 553z" />
    <glyph glyph-name="t" unicode="t" horiz-adv-x="717" 
d="M516 1061h201v-41h-201v-848c0 -53 16 -74 62 -74c28 0 73 15 110 60l31 -25c-57 -98 -150 -162 -291 -162c-90 0 -164 23 -211 70c-59 59 -70 143 -70 285v694h-155v41h155v244c146 0 261 26 369 90v-334z" />
    <glyph glyph-name="tbar" unicode="&#x167;" horiz-adv-x="723" 
d="M692 158l31 -25c-57 -98 -150 -162 -291 -162c-90 0 -164 23 -211 70c-59 59 -70 143 -70 285v495h-155v41h155v158h-155v41h155v244c146 0 261 26 369 90v-334h201v-41h-201v-158h201v-41h-201v-649c0 -53 16 -74 62 -74c28 0 73 15 110 60z" />
    <glyph glyph-name="tcaron" unicode="&#x165;" horiz-adv-x="717" 
d="M873 1604c6 -15 10 -60 10 -84c0 -80 -94 -193 -240 -369l-28 8c32 185 41 260 41 297c0 53 -7 82 -41 82v43c20 -1 39 -1 56 -1c90 0 143 11 202 24zM516 1061h201v-41h-201v-848c0 -53 16 -74 62 -74c28 0 73 15 110 60l31 -25c-57 -98 -150 -162 -291 -162
c-90 0 -164 23 -211 70c-59 59 -70 143 -70 285v694h-155v41h155v244c146 0 261 26 369 90v-334z" />
    <glyph glyph-name="tcedilla" unicode="&#x163;" horiz-adv-x="717" 
d="M538 -92c102 0 151 -51 151 -119c0 -119 -137 -174 -323 -174c-74 0 -140 10 -185 27l13 36c18 -4 57 -10 98 -10c59 0 127 23 127 78c0 37 -23 51 -57 51c-23 0 -50 -4 -68 -14l56 195c-55 9 -100 30 -133 63c-59 59 -70 143 -70 285v694h-155v41h155v244
c146 0 261 26 369 90v-334h201v-41h-201v-848c0 -53 16 -74 62 -74c28 0 73 15 110 60l31 -25c-57 -98 -150 -162 -291 -162l-25 1l-27 -95c49 21 100 31 162 31z" />
    <glyph glyph-name="uni021B" unicode="&#x21b;" horiz-adv-x="717" 
d="M516 1061h201v-41h-201v-848c0 -53 16 -74 62 -74c28 0 73 15 110 60l31 -25c-57 -98 -150 -162 -291 -162c-90 0 -164 23 -211 70c-59 59 -70 143 -70 285v694h-155v41h155v244c146 0 261 26 369 90v-334zM438 -92c109 0 190 -58 190 -168c0 -137 -94 -236 -276 -240
l-4 45c117 15 172 43 188 103c-20 -19 -51 -31 -108 -31c-109 0 -172 47 -172 141c0 97 63 150 182 150z" />
    <glyph glyph-name="u" unicode="u" horiz-adv-x="1274" 
d="M1122 1085v-862c0 -123 29 -180 115 -180v-43c-43 4 -86 6 -127 6c-137 0 -254 -8 -356 -29v148c-66 -109 -179 -154 -326 -154c-125 0 -192 35 -231 82c-41 49 -60 125 -60 264v523c0 123 -28 180 -114 180v43c43 -4 86 -6 127 -6c137 0 253 8 356 28v-878
c0 -86 29 -129 100 -129c76 0 148 61 148 147v615c0 123 -29 180 -115 180v43c43 -4 86 -6 127 -6c137 0 254 8 356 28z" />
    <glyph glyph-name="uacute" unicode="&#xfa;" horiz-adv-x="1274" 
d="M832 1679c29 -23 42 -57 42 -92c0 -33 -11 -67 -34 -94c-68 -82 -168 -104 -361 -266l-22 18c117 232 100 336 174 418c25 30 68 49 111 49c31 0 63 -10 90 -33zM1122 1085v-862c0 -123 29 -180 115 -180v-43c-43 4 -86 6 -127 6c-137 0 -254 -8 -356 -29v148
c-66 -109 -179 -154 -326 -154c-125 0 -192 35 -231 82c-41 49 -60 125 -60 264v523c0 123 -28 180 -114 180v43c43 -4 86 -6 127 -6c137 0 253 8 356 28v-878c0 -86 29 -129 100 -129c76 0 148 61 148 147v615c0 123 -29 180 -115 180v43c43 -4 86 -6 127 -6
c137 0 254 8 356 28z" />
    <glyph glyph-name="ubreve" unicode="&#x16d;" horiz-adv-x="1274" 
d="M975 1614l35 -19c-45 -157 -158 -340 -408 -340s-362 183 -407 340l35 19c63 -51 176 -115 372 -115c197 0 310 64 373 115zM1122 1085v-862c0 -123 29 -180 115 -180v-43c-43 4 -86 6 -127 6c-137 0 -254 -8 -356 -29v148c-66 -109 -179 -154 -326 -154
c-125 0 -192 35 -231 82c-41 49 -60 125 -60 264v523c0 123 -28 180 -114 180v43c43 -4 86 -6 127 -6c137 0 253 8 356 28v-878c0 -86 29 -129 100 -129c76 0 148 61 148 147v615c0 123 -29 180 -115 180v43c43 -4 86 -6 127 -6c137 0 254 8 356 28z" />
    <glyph glyph-name="ucircumflex" unicode="&#xfb;" horiz-adv-x="1274" 
d="M585 1704h37c84 -162 227 -332 383 -434l-16 -29c-164 29 -332 78 -426 123c-78 -45 -213 -94 -344 -123l-17 29c154 100 295 270 383 434zM1122 1085v-862c0 -123 29 -180 115 -180v-43c-43 4 -86 6 -127 6c-137 0 -254 -8 -356 -29v148c-66 -109 -179 -154 -326 -154
c-125 0 -192 35 -231 82c-41 49 -60 125 -60 264v523c0 123 -28 180 -114 180v43c43 -4 86 -6 127 -6c137 0 253 8 356 28v-878c0 -86 29 -129 100 -129c76 0 148 61 148 147v615c0 123 -29 180 -115 180v43c43 -4 86 -6 127 -6c137 0 254 8 356 28z" />
    <glyph glyph-name="udieresis" unicode="&#xfc;" horiz-adv-x="1274" 
d="M363 1581c94 0 178 -84 178 -178c0 -98 -84 -178 -178 -178c-99 0 -179 80 -179 178c0 94 80 178 179 178zM850 1581c94 0 178 -84 178 -178c0 -98 -84 -178 -178 -178c-98 0 -178 80 -178 178c0 94 80 178 178 178zM1122 1085v-862c0 -123 29 -180 115 -180v-43
c-43 4 -86 6 -127 6c-137 0 -254 -8 -356 -29v148c-66 -109 -179 -154 -326 -154c-125 0 -192 35 -231 82c-41 49 -60 125 -60 264v523c0 123 -28 180 -114 180v43c43 -4 86 -6 127 -6c137 0 253 8 356 28v-878c0 -86 29 -129 100 -129c76 0 148 61 148 147v615
c0 123 -29 180 -115 180v43c43 -4 86 -6 127 -6c137 0 254 8 356 28z" />
    <glyph glyph-name="ugrave" unicode="&#xf9;" horiz-adv-x="1274" 
d="M344 1679c26 24 57 34 88 34c44 0 88 -21 113 -50c73 -82 57 -186 174 -418l-23 -18c-192 162 -293 184 -360 266c-23 27 -34 61 -34 93c0 35 13 69 42 93zM1122 1085v-862c0 -123 29 -180 115 -180v-43c-43 4 -86 6 -127 6c-137 0 -254 -8 -356 -29v148
c-66 -109 -179 -154 -326 -154c-125 0 -192 35 -231 82c-41 49 -60 125 -60 264v523c0 123 -28 180 -114 180v43c43 -4 86 -6 127 -6c137 0 253 8 356 28v-878c0 -86 29 -129 100 -129c76 0 148 61 148 147v615c0 123 -29 180 -115 180v43c43 -4 86 -6 127 -6
c137 0 254 8 356 28z" />
    <glyph glyph-name="uhungarumlaut" unicode="&#x171;" horiz-adv-x="1274" 
d="M655 1673c37 -26 56 -63 56 -102c0 -27 -9 -56 -26 -82c-47 -72 -143 -119 -292 -264l-27 12c59 209 47 319 92 395c25 41 70 65 118 65c26 0 54 -8 79 -24zM1017 1673c38 -26 57 -63 57 -103c0 -27 -9 -55 -26 -81c-47 -72 -143 -119 -293 -264l-27 12
c60 209 48 319 93 395c25 41 70 65 117 65c27 0 54 -8 79 -24zM1122 1085v-862c0 -123 29 -180 115 -180v-43c-43 4 -86 6 -127 6c-137 0 -254 -8 -356 -29v148c-66 -109 -179 -154 -326 -154c-125 0 -192 35 -231 82c-41 49 -60 125 -60 264v523c0 123 -28 180 -114 180v43
c43 -4 86 -6 127 -6c137 0 253 8 356 28v-878c0 -86 29 -129 100 -129c76 0 148 61 148 147v615c0 123 -29 180 -115 180v43c43 -4 86 -6 127 -6c137 0 254 8 356 28z" />
    <glyph glyph-name="umacron" unicode="&#x16b;" horiz-adv-x="1274" 
d="M958 1407h-721v51h721v-51zM1122 1085v-862c0 -123 29 -180 115 -180v-43c-43 4 -86 6 -127 6c-137 0 -254 -8 -356 -29v148c-66 -109 -179 -154 -326 -154c-125 0 -192 35 -231 82c-41 49 -60 125 -60 264v523c0 123 -28 180 -114 180v43c43 -4 86 -6 127 -6
c137 0 253 8 356 28v-878c0 -86 29 -129 100 -129c76 0 148 61 148 147v615c0 123 -29 180 -115 180v43c43 -4 86 -6 127 -6c137 0 254 8 356 28z" />
    <glyph glyph-name="uogonek" unicode="&#x173;" horiz-adv-x="1274" 
d="M1236 -215l26 -31c-79 -98 -170 -139 -313 -139c-133 0 -203 53 -203 145c0 119 135 203 364 246c-137 0 -254 -8 -356 -29v148c-66 -109 -179 -154 -326 -154c-125 0 -192 35 -231 82c-41 49 -60 125 -60 264v523c0 123 -28 180 -114 180v43c43 -4 86 -6 127 -6
c137 0 253 8 356 28v-878c0 -86 29 -129 100 -129c76 0 148 61 148 147v615c0 123 -29 180 -115 180v43c43 -4 86 -6 127 -6c137 0 254 8 356 28v-862c0 -123 29 -180 115 -180v-43c-19 2 -37 3 -56 4c-6 -4 -14 -7 -23 -12c-107 -53 -139 -123 -139 -176
c0 -56 28 -78 82 -78c45 0 104 20 135 47z" />
    <glyph glyph-name="uring" unicode="&#x16f;" horiz-adv-x="1274" 
d="M604 1640c127 0 240 -79 240 -206c0 -129 -113 -209 -240 -209c-125 0 -237 80 -237 209c0 127 112 206 237 206zM604 1597c-86 0 -180 -59 -180 -165c0 -111 94 -164 180 -164c88 0 183 53 183 164c0 106 -95 165 -183 165zM1122 1085v-862c0 -123 29 -180 115 -180v-43
c-43 4 -86 6 -127 6c-137 0 -254 -8 -356 -29v148c-66 -109 -179 -154 -326 -154c-125 0 -192 35 -231 82c-41 49 -60 125 -60 264v523c0 123 -28 180 -114 180v43c43 -4 86 -6 127 -6c137 0 253 8 356 28v-878c0 -86 29 -129 100 -129c76 0 148 61 148 147v615
c0 123 -29 180 -115 180v43c43 -4 86 -6 127 -6c137 0 254 8 356 28z" />
    <glyph glyph-name="utilde" unicode="&#x169;" horiz-adv-x="1274" 
d="M429 1634c179 0 228 -135 371 -135c57 0 111 31 158 109l28 -15c-47 -237 -151 -333 -262 -333c-180 0 -229 137 -372 137c-58 0 -111 -33 -158 -111l-29 14c47 238 152 334 264 334zM1122 1085v-862c0 -123 29 -180 115 -180v-43c-43 4 -86 6 -127 6
c-137 0 -254 -8 -356 -29v148c-66 -109 -179 -154 -326 -154c-125 0 -192 35 -231 82c-41 49 -60 125 -60 264v523c0 123 -28 180 -114 180v43c43 -4 86 -6 127 -6c137 0 253 8 356 28v-878c0 -86 29 -129 100 -129c76 0 148 61 148 147v615c0 123 -29 180 -115 180v43
c43 -4 86 -6 127 -6c137 0 254 8 356 28z" />
    <glyph glyph-name="v" unicode="v" horiz-adv-x="1065" 
d="M909 1055c49 0 127 2 158 8v-43c-51 -19 -100 -66 -145 -199l-277 -821c-32 3 -66 5 -99 5s-67 -2 -100 -5l-356 905c-41 105 -90 115 -119 115v43c109 -8 222 -12 365 -12c84 0 184 6 266 12v-43c-65 0 -118 2 -118 -52c0 -8 1 -16 3 -26l223 -620l95 282
c28 83 39 153 39 210c0 134 -65 200 -150 206v43c58 -6 166 -8 215 -8z" />
    <glyph glyph-name="w" unicode="w" horiz-adv-x="1634" 
d="M1483 1055c49 0 127 2 157 8v-43c-51 -19 -102 -64 -145 -199l-256 -821c-32 3 -66 5 -99 5s-67 -2 -100 -5l-244 708l-186 -708c-32 3 -66 5 -99 5s-66 -2 -99 -5l-316 905c-39 109 -90 115 -119 115v43c109 -8 222 -12 365 -12c84 0 184 6 266 12v-43
c-75 0 -118 -6 -118 -50c0 -8 1 -17 4 -28l170 -567l176 686h2c32 -3 65 -4 98 -4c39 0 80 2 119 4l233 -749l88 292c23 77 33 143 33 197c0 143 -71 210 -166 219v43c58 -6 187 -8 236 -8z" />
    <glyph glyph-name="wacute" unicode="&#x1e83;" horiz-adv-x="1634" 
d="M1078 1493c-68 -82 -168 -104 -361 -266l-22 18c117 232 100 336 174 418c25 30 68 49 111 49c31 0 63 -10 90 -33c29 -23 42 -57 42 -92c0 -33 -11 -67 -34 -94zM1483 1055c49 0 127 2 157 8v-43c-51 -19 -102 -64 -145 -199l-256 -821c-32 3 -66 5 -99 5
s-67 -2 -100 -5l-244 708l-186 -708c-32 3 -66 5 -99 5s-66 -2 -99 -5l-316 905c-39 109 -90 115 -119 115v43c109 -8 222 -12 365 -12c84 0 184 6 266 12v-43c-75 0 -118 -6 -118 -50c0 -8 1 -17 4 -28l170 -567l176 686h2c32 -3 65 -4 98 -4c39 0 80 2 119 4l233 -749
l88 292c23 77 33 143 33 197c0 143 -71 210 -166 219v43c58 -6 187 -8 236 -8z" />
    <glyph glyph-name="wcircumflex" unicode="&#x175;" horiz-adv-x="1634" 
d="M801 1364c-78 -45 -213 -94 -344 -123l-17 29c154 100 295 270 383 434h37c84 -162 227 -332 383 -434l-16 -29c-164 29 -332 78 -426 123zM1483 1055c49 0 127 2 157 8v-43c-51 -19 -102 -64 -145 -199l-256 -821c-32 3 -66 5 -99 5s-67 -2 -100 -5l-244 708l-186 -708
c-32 3 -66 5 -99 5s-66 -2 -99 -5l-316 905c-39 109 -90 115 -119 115v43c109 -8 222 -12 365 -12c84 0 184 6 266 12v-43c-75 0 -118 -6 -118 -50c0 -8 1 -17 4 -28l170 -567l176 686h2c32 -3 65 -4 98 -4c39 0 80 2 119 4l233 -749l88 292c23 77 33 143 33 197
c0 143 -71 210 -166 219v43c58 -6 187 -8 236 -8z" />
    <glyph glyph-name="wdieresis" unicode="&#x1e85;" horiz-adv-x="1634" 
d="M601 1225c-99 0 -179 80 -179 178c0 94 80 178 179 178c94 0 178 -84 178 -178c0 -98 -84 -178 -178 -178zM1088 1225c-98 0 -178 80 -178 178c0 94 80 178 178 178c94 0 178 -84 178 -178c0 -98 -84 -178 -178 -178zM1483 1055c49 0 127 2 157 8v-43
c-51 -19 -102 -64 -145 -199l-256 -821c-32 3 -66 5 -99 5s-67 -2 -100 -5l-244 708l-186 -708c-32 3 -66 5 -99 5s-66 -2 -99 -5l-316 905c-39 109 -90 115 -119 115v43c109 -8 222 -12 365 -12c84 0 184 6 266 12v-43c-75 0 -118 -6 -118 -50c0 -8 1 -17 4 -28l170 -567
l176 686h2c32 -3 65 -4 98 -4c39 0 80 2 119 4l233 -749l88 292c23 77 33 143 33 197c0 143 -71 210 -166 219v43c58 -6 187 -8 236 -8z" />
    <glyph glyph-name="wgrave" unicode="&#x1e81;" horiz-adv-x="1634" 
d="M957 1245l-23 -18c-192 162 -293 184 -360 266c-23 27 -34 61 -34 93c0 35 13 69 42 93c26 24 57 34 88 34c44 0 88 -21 113 -50c73 -82 57 -186 174 -418zM1483 1055c49 0 127 2 157 8v-43c-51 -19 -102 -64 -145 -199l-256 -821c-32 3 -66 5 -99 5s-67 -2 -100 -5
l-244 708l-186 -708c-32 3 -66 5 -99 5s-66 -2 -99 -5l-316 905c-39 109 -90 115 -119 115v43c109 -8 222 -12 365 -12c84 0 184 6 266 12v-43c-75 0 -118 -6 -118 -50c0 -8 1 -17 4 -28l170 -567l176 686h2c32 -3 65 -4 98 -4c39 0 80 2 119 4l233 -749l88 292
c23 77 33 143 33 197c0 143 -71 210 -166 219v43c58 -6 187 -8 236 -8z" />
    <glyph glyph-name="x" unicode="x" horiz-adv-x="1120" 
d="M697 649l335 -504c25 -34 62 -94 107 -102v-43c-52 2 -166 8 -269 8c-110 0 -227 -6 -282 -8v43c39 0 62 14 62 37c0 10 -3 21 -11 33l-201 303l-18 -23c-53 -68 -77 -134 -77 -191c0 -89 58 -154 146 -161v-41c-83 4 -262 6 -333 6c-60 0 -101 -2 -138 -6v41
c70 35 125 86 193 168l206 238l-313 471c-38 59 -65 94 -106 102v43c59 -2 190 -8 309 -8c94 0 195 6 242 8v-43c-39 0 -62 -14 -62 -37c0 -10 3 -21 11 -33l178 -269l35 42c52 63 76 124 76 174c0 69 -46 118 -130 125v41c84 -4 201 -6 273 -6c59 0 100 2 137 6v-41
c-61 -27 -125 -86 -193 -168z" />
    <glyph glyph-name="y" unicode="y" horiz-adv-x="1083" 
d="M918 1055c49 0 126 2 157 8v-43c-51 -19 -100 -66 -145 -199l-256 -762l-86 -247c-25 -70 -51 -117 -90 -148c-37 -29 -90 -49 -191 -49c-112 0 -278 49 -278 192c0 97 80 158 200 158c113 0 185 -51 185 -151c0 -60 -41 -129 -133 -158c20 -4 53 -4 69 -4
c88 0 158 51 195 164l11 33l-478 1056c-47 105 -90 115 -119 115v43c109 -8 231 -12 334 -12c127 0 215 6 297 12v-43c-62 0 -123 -1 -123 -46c0 -9 2 -19 8 -32l253 -600l85 262c28 83 39 153 39 210c0 134 -65 200 -150 206v43c58 -6 166 -8 216 -8z" />
    <glyph glyph-name="yacute" unicode="&#xfd;" horiz-adv-x="1083" 
d="M768 1493c-68 -82 -168 -104 -361 -266l-22 18c117 232 100 336 174 418c25 30 68 49 111 49c31 0 63 -10 90 -33c29 -23 42 -57 42 -92c0 -33 -11 -67 -34 -94zM918 1055c49 0 126 2 157 8v-43c-51 -19 -100 -66 -145 -199l-256 -762l-86 -247
c-25 -70 -51 -117 -90 -148c-37 -29 -90 -49 -191 -49c-112 0 -278 49 -278 192c0 97 80 158 200 158c113 0 185 -51 185 -151c0 -60 -41 -129 -133 -158c20 -4 53 -4 69 -4c88 0 158 51 195 164l11 33l-478 1056c-47 105 -90 115 -119 115v43c109 -8 231 -12 334 -12
c127 0 215 6 297 12v-43c-62 0 -123 -1 -123 -46c0 -9 2 -19 8 -32l253 -600l85 262c28 83 39 153 39 210c0 134 -65 200 -150 206v43c58 -6 166 -8 216 -8z" />
    <glyph glyph-name="ycircumflex" unicode="&#x177;" horiz-adv-x="1083" 
d="M491 1364c-78 -45 -213 -94 -344 -123l-17 29c154 100 295 270 383 434h37c84 -162 227 -332 383 -434l-16 -29c-164 29 -332 78 -426 123zM918 1055c49 0 126 2 157 8v-43c-51 -19 -100 -66 -145 -199l-256 -762l-86 -247c-25 -70 -51 -117 -90 -148
c-37 -29 -90 -49 -191 -49c-112 0 -278 49 -278 192c0 97 80 158 200 158c113 0 185 -51 185 -151c0 -60 -41 -129 -133 -158c20 -4 53 -4 69 -4c88 0 158 51 195 164l11 33l-478 1056c-47 105 -90 115 -119 115v43c109 -8 231 -12 334 -12c127 0 215 6 297 12v-43
c-62 0 -123 -1 -123 -46c0 -9 2 -19 8 -32l253 -600l85 262c28 83 39 153 39 210c0 134 -65 200 -150 206v43c58 -6 166 -8 216 -8z" />
    <glyph glyph-name="ydieresis" unicode="&#xff;" horiz-adv-x="1083" 
d="M291 1225c-99 0 -179 80 -179 178c0 94 80 178 179 178c94 0 178 -84 178 -178c0 -98 -84 -178 -178 -178zM778 1225c-98 0 -178 80 -178 178c0 94 80 178 178 178c94 0 178 -84 178 -178c0 -98 -84 -178 -178 -178zM918 1055c49 0 126 2 157 8v-43
c-51 -19 -100 -66 -145 -199l-256 -762l-86 -247c-25 -70 -51 -117 -90 -148c-37 -29 -90 -49 -191 -49c-112 0 -278 49 -278 192c0 97 80 158 200 158c113 0 185 -51 185 -151c0 -60 -41 -129 -133 -158c20 -4 53 -4 69 -4c88 0 158 51 195 164l11 33l-478 1056
c-47 105 -90 115 -119 115v43c109 -8 231 -12 334 -12c127 0 215 6 297 12v-43c-62 0 -123 -1 -123 -46c0 -9 2 -19 8 -32l253 -600l85 262c28 83 39 153 39 210c0 134 -65 200 -150 206v43c58 -6 166 -8 216 -8z" />
    <glyph glyph-name="ygrave" unicode="&#x1ef3;" horiz-adv-x="1083" 
d="M647 1245l-23 -18c-192 162 -293 184 -360 266c-23 27 -34 61 -34 93c0 35 13 69 42 93c26 24 57 34 88 34c44 0 88 -21 113 -50c73 -82 57 -186 174 -418zM918 1055c49 0 126 2 157 8v-43c-51 -19 -100 -66 -145 -199l-256 -762l-86 -247c-25 -70 -51 -117 -90 -148
c-37 -29 -90 -49 -191 -49c-112 0 -278 49 -278 192c0 97 80 158 200 158c113 0 185 -51 185 -151c0 -60 -41 -129 -133 -158c20 -4 53 -4 69 -4c88 0 158 51 195 164l11 33l-478 1056c-47 105 -90 115 -119 115v43c109 -8 231 -12 334 -12c127 0 215 6 297 12v-43
c-62 0 -123 -1 -123 -46c0 -9 2 -19 8 -32l253 -600l85 262c28 83 39 153 39 210c0 134 -65 200 -150 206v43c58 -6 166 -8 216 -8z" />
    <glyph glyph-name="z" unicode="z" horiz-adv-x="967" 
d="M457 31h28c154 0 332 88 355 391h41c0 -217 2 -338 8 -430c-127 6 -266 8 -402 8c-143 0 -297 -4 -434 -10l459 1040h-41c-154 0 -319 -88 -342 -391h-41c0 217 -2 338 -8 430c127 -6 266 -8 401 -8c144 0 297 4 434 10z" />
    <glyph glyph-name="zacute" unicode="&#x17a;" horiz-adv-x="967" 
d="M744 1679c29 -23 42 -57 42 -92c0 -33 -11 -67 -34 -94c-68 -82 -168 -104 -361 -266l-22 18c117 232 100 336 174 418c25 30 68 49 111 49c31 0 63 -10 90 -33zM457 31h28c154 0 332 88 355 391h41c0 -217 2 -338 8 -430c-127 6 -266 8 -402 8c-143 0 -297 -4 -434 -10
l459 1040h-41c-154 0 -319 -88 -342 -391h-41c0 217 -2 338 -8 430c127 -6 266 -8 401 -8c144 0 297 4 434 10z" />
    <glyph glyph-name="zcaron" unicode="&#x17e;" horiz-adv-x="967" 
d="M881 1704l16 -29c-154 -100 -295 -270 -383 -434h-37c-84 162 -227 332 -383 434l17 29c163 -29 331 -78 426 -123c77 45 213 94 344 123zM457 31h28c154 0 332 88 355 391h41c0 -217 2 -338 8 -430c-127 6 -266 8 -402 8c-143 0 -297 -4 -434 -10l459 1040h-41
c-154 0 -319 -88 -342 -391h-41c0 217 -2 338 -8 430c127 -6 266 -8 401 -8c144 0 297 4 434 10z" />
    <glyph glyph-name="zdotaccent" unicode="&#x17c;" horiz-adv-x="967" 
d="M516 1602c141 0 223 -60 223 -177c0 -116 -82 -176 -223 -176c-144 0 -223 60 -223 176c0 117 79 177 223 177zM457 31h28c154 0 332 88 355 391h41c0 -217 2 -338 8 -430c-127 6 -266 8 -402 8c-143 0 -297 -4 -434 -10l459 1040h-41c-154 0 -319 -88 -342 -391h-41
c0 217 -2 338 -8 430c127 -6 266 -8 401 -8c144 0 297 4 434 10z" />
    <glyph glyph-name="cacute.loclPLK" 
d="M713 1688c50 -21 78 -65 78 -116c0 -20 -4 -40 -13 -61c-34 -77 -112 -120 -231 -292l-29 8c2 29 4 56 4 81v30c0 86 -8 145 -8 194c0 28 3 53 12 78c19 53 73 89 132 89c18 0 37 -3 55 -11zM588 1092c119 0 215 -29 270 -62c74 -43 123 -119 123 -213
c0 -112 -82 -199 -197 -199c-120 0 -188 76 -188 185c0 102 78 180 168 205c-19 14 -45 24 -82 24c-195 0 -238 -268 -238 -473c0 -289 136 -364 256 -364c56 0 158 12 248 137l35 -13c-51 -165 -184 -348 -428 -348c-274 0 -494 146 -494 559c0 394 230 562 527 562z" />
    <glyph glyph-name="nacute.loclPLK" horiz-adv-x="1280" 
d="M809 1688c50 -21 78 -65 78 -116c0 -20 -4 -40 -13 -61c-34 -77 -112 -120 -231 -292l-29 8c2 29 4 56 4 81v30c0 86 -8 145 -8 194c0 28 3 53 12 78c19 53 73 89 132 89c18 0 37 -3 55 -11zM852 1092c125 0 192 -35 231 -82c41 -49 60 -125 60 -265v-555
c0 -114 31 -147 114 -147v-43c-55 2 -180 8 -286 8c-115 0 -236 -6 -291 -8v43c70 0 94 33 94 147v666c0 86 -29 129 -100 129c-76 0 -148 -61 -148 -147v-648c0 -114 25 -147 95 -147v-43c-52 2 -164 8 -271 8c-114 0 -248 -6 -307 -8v43c84 0 115 33 115 147v650
c0 123 -29 180 -115 180v43c43 -4 86 -6 127 -6c137 0 254 8 356 28v-147c66 109 179 154 326 154z" />
    <glyph glyph-name="oacute.loclPLK" horiz-adv-x="1180" 
d="M748 1688c50 -21 78 -65 78 -116c0 -20 -4 -40 -13 -61c-34 -77 -112 -120 -231 -292l-29 8c2 29 4 56 4 81v30c0 86 -8 145 -8 194c0 28 3 53 12 78c19 53 73 89 132 89c18 0 37 -3 55 -11zM590 1092c317 0 526 -148 526 -562c0 -413 -209 -559 -526 -559
c-318 0 -527 146 -527 559c0 414 209 562 527 562zM590 1051c-82 0 -144 -154 -144 -521c0 -366 62 -518 144 -518s143 152 143 518c0 367 -61 521 -143 521z" />
    <glyph glyph-name="sacute.loclPLK" horiz-adv-x="967" 
d="M641 1688c50 -21 78 -65 78 -116c0 -20 -4 -40 -13 -61c-34 -77 -112 -120 -231 -292l-29 8c2 29 4 56 4 81v30c0 86 -8 145 -8 194c0 28 3 53 12 78c19 53 73 89 132 89c18 0 37 -3 55 -11zM473 1092c119 0 217 -33 258 -56c14 -8 26 -12 37 -12c26 0 44 21 51 66h41
c-6 -80 -8 -183 -8 -369h-41c-18 151 -84 321 -252 321c-67 0 -121 -43 -121 -114c0 -123 129 -199 246 -295c125 -103 221 -189 221 -346c0 -187 -186 -316 -413 -316c-97 0 -168 25 -211 52c-43 22 -72 34 -103 34c-28 0 -47 -32 -57 -71h-41c6 88 8 202 8 409h41
c25 -217 121 -372 270 -372c64 0 119 34 119 112c0 121 -82 189 -190 287c-123 113 -240 213 -240 375c0 182 182 295 385 295z" />
    <glyph glyph-name="zacute.loclPLK" horiz-adv-x="967" 
d="M674 1688c50 -21 78 -65 78 -116c0 -20 -4 -40 -13 -61c-34 -77 -112 -120 -231 -292l-29 8c2 29 4 56 4 81v30c0 86 -8 145 -8 194c0 28 3 53 12 78c19 53 73 89 132 89c18 0 37 -3 55 -11zM457 31h28c154 0 332 88 355 391h41c0 -217 2 -338 8 -430
c-127 6 -266 8 -402 8c-143 0 -297 -4 -434 -10l459 1040h-41c-154 0 -319 -88 -342 -391h-41c0 217 -2 338 -8 430c127 -6 266 -8 401 -8c144 0 297 4 434 10z" />
    <glyph glyph-name="uni00540068" horiz-adv-x="2474" 
d="M2337 745v-557c0 -114 30 -147 114 -147v-41c-55 2 -180 8 -286 8c-115 0 -236 -6 -291 -8v41c70 0 94 33 94 147v668c0 86 -29 129 -100 129c-76 0 -148 -61 -148 -147v-650c0 -114 25 -147 95 -147v-41c-52 2 -164 8 -271 8c-114 0 -248 -6 -307 -8v41
c84 0 115 33 115 147v1215h-471v-1172c0 -168 39 -190 227 -190v-41c-96 2 -270 6 -449 6c-170 0 -329 -4 -421 -6v41c188 0 227 22 227 190v1172h-27c-168 0 -274 -109 -342 -465h-47c4 35 6 90 6 147v78c0 78 -1 183 -8 287c189 -6 440 -6 627 -6c202 0 472 0 678 6v123
c149 0 266 8 368 29v-664c66 109 178 154 326 154c125 0 192 -35 231 -82c41 -49 60 -125 60 -265z" />
    <glyph glyph-name="uni00630074" horiz-adv-x="1726" 
d="M1698 158l31 -25c-58 -98 -150 -162 -291 -162c-90 0 -164 23 -211 70c-60 59 -70 143 -70 285v694h-156v41h156v231c0 172 -70 273 -196 273c-107 0 -203 -62 -203 -226c0 -158 101 -234 178 -375c29 -40 45 -91 45 -147c0 -112 -82 -199 -197 -199
c-120 0 -188 76 -188 185c0 102 78 180 168 205c-19 14 -45 24 -82 24c-195 0 -238 -268 -238 -473c0 -289 136 -364 256 -364c56 0 158 12 248 137l35 -13c-51 -165 -184 -348 -428 -348c-274 0 -494 146 -494 559c0 394 230 562 527 562c116 0 195 -24 279 -79
c-76 99 -156 186 -156 324c0 183 120 265 254 265c124 0 225 -82 227 -296c129 3 234 30 334 89v-334h200v-41h-200v-848c0 -53 16 -74 61 -74c29 0 74 15 111 60z" />
    <glyph glyph-name="uni00730070" horiz-adv-x="2183" 
d="M1761 1092c203 0 357 -166 357 -514c0 -465 -222 -607 -478 -607c-70 0 -134 10 -190 33v-164c0 -133 66 -168 176 -168v-43c-76 2 -225 9 -377 9c-110 0 -227 -7 -282 -9v43c84 0 114 33 114 148v1454c0 190 -67 291 -196 291c-97 0 -183 -49 -183 -185
c0 -138 111 -229 111 -352c0 -18 -2 -36 -7 -55c36 -39 60 -89 60 -148c0 -55 -30 -92 -75 -92c-39 0 -72 31 -72 90c0 41 10 78 41 135c-53 56 -121 84 -195 84c-73 0 -127 -36 -127 -114c0 -123 129 -199 246 -295c125 -103 221 -189 221 -346c0 -187 -186 -316 -413 -316
c-97 0 -168 25 -211 52c-43 22 -72 34 -103 34c-28 0 -47 -32 -57 -71h-41c6 88 8 202 8 409h41c25 -217 121 -372 270 -372c64 0 119 34 119 112c0 121 -82 189 -190 287c-123 113 -240 213 -240 375c0 182 182 295 385 295c127 0 199 -27 254 -58c18 -10 36 -22 52 -35
c0 145 -124 228 -124 379c0 154 111 224 234 224c127 0 227 -84 227 -304v-53c133 1 240 10 334 29v-336c63 104 170 154 311 154zM1522 33c151 0 213 166 213 497c0 363 -62 455 -138 455c-75 0 -147 -61 -147 -147v-793c23 -9 46 -12 72 -12z" />
    <glyph glyph-name="s_t" horiz-adv-x="1671" 
d="M1642 158l31 -25c-57 -98 -149 -162 -291 -162c-90 0 -163 23 -211 70c-59 59 -69 143 -69 285v694h-156v41h156v231c0 172 -70 273 -197 273c-96 0 -182 -56 -182 -205c0 -137 90 -211 90 -327c0 -19 -2 -38 -7 -60c36 -39 60 -89 60 -148c0 -55 -30 -92 -75 -92
c-39 0 -72 31 -72 90c0 41 10 78 41 135c-53 56 -121 84 -195 84c-73 0 -127 -36 -127 -114c0 -123 129 -199 246 -295c125 -103 221 -189 221 -346c0 -187 -186 -316 -413 -316c-97 0 -168 25 -211 52c-43 22 -72 34 -103 34c-28 0 -47 -32 -57 -71h-41c6 88 8 202 8 409
h41c25 -217 121 -372 270 -372c64 0 119 34 119 112c0 121 -82 189 -190 287c-123 113 -240 213 -240 375c0 182 182 295 385 295c127 0 199 -27 254 -58c18 -10 35 -21 51 -34c-1 143 -102 209 -102 358c0 168 110 244 233 244c124 0 226 -82 228 -296c129 4 234 30 333 89
v-334h201v-41h-201v-848c0 -53 17 -74 62 -74c29 0 74 15 110 60z" />
    <glyph glyph-name="a.smcp" horiz-adv-x="1298" 
d="M709 1245l491 -1073c45 -94 84 -129 121 -131v-41c-70 4 -191 6 -301 6c-148 0 -287 -2 -365 -6v41c80 4 125 25 125 80c0 24 -8 54 -26 92l-101 233h-384c-48 -113 -68 -195 -68 -254c0 -119 82 -147 190 -151v-41c-102 4 -174 6 -268 6c-53 0 -117 -2 -158 -6v41
c64 10 115 72 189 240l419 964c23 -3 45 -4 68 -4s46 1 68 4zM636 487l-175 403l-174 -403h349z" />
    <glyph glyph-name="aacute.smcp" horiz-adv-x="1298" 
d="M900 1493c-94 -49 -196 -31 -436 -104l-14 24c199 168 223 270 324 318c18 9 40 13 62 13c51 0 104 -23 130 -77c8 -17 12 -35 12 -53c0 -49 -30 -97 -78 -121zM709 1245l491 -1073c45 -94 84 -129 121 -131v-41c-70 4 -191 6 -301 6c-148 0 -287 -2 -365 -6v41
c80 4 125 25 125 80c0 24 -8 54 -26 92l-101 233h-384c-48 -113 -68 -195 -68 -254c0 -119 82 -147 190 -151v-41c-102 4 -174 6 -268 6c-53 0 -117 -2 -158 -6v41c64 10 115 72 189 240l419 964c23 -3 45 -4 68 -4s46 1 68 4zM636 487l-175 403l-174 -403h349z" />
    <glyph glyph-name="abreve.smcp" horiz-adv-x="1298" 
d="M653 1376c-279 0 -436 162 -490 299l25 23c80 -51 227 -119 465 -119c237 0 385 68 465 119l24 -23c-53 -137 -211 -299 -489 -299zM709 1245l491 -1073c45 -94 84 -129 121 -131v-41c-70 4 -191 6 -301 6c-148 0 -287 -2 -365 -6v41c80 4 125 25 125 80
c0 24 -8 54 -26 92l-101 233h-384c-48 -113 -68 -195 -68 -254c0 -119 82 -147 190 -151v-41c-102 4 -174 6 -268 6c-53 0 -117 -2 -158 -6v41c64 10 115 72 189 240l419 964c23 -3 45 -4 68 -4s46 1 68 4zM636 487l-175 403l-174 -403h349z" />
    <glyph glyph-name="acircumflex.smcp" horiz-adv-x="1298" 
d="M616 1491c-90 -45 -256 -96 -411 -125l-11 31c178 84 344 221 445 352h37c96 -129 264 -266 444 -352l-10 -31c-189 29 -387 80 -494 125zM709 1245l491 -1073c45 -94 84 -129 121 -131v-41c-70 4 -191 6 -301 6c-148 0 -287 -2 -365 -6v41c80 4 125 25 125 80
c0 24 -8 54 -26 92l-101 233h-384c-48 -113 -68 -195 -68 -254c0 -119 82 -147 190 -151v-41c-102 4 -174 6 -268 6c-53 0 -117 -2 -158 -6v41c64 10 115 72 189 240l419 964c23 -3 45 -4 68 -4s46 1 68 4zM636 487l-175 403l-174 -403h349z" />
    <glyph glyph-name="adieresis.smcp" horiz-adv-x="1298" 
d="M391 1411c-98 0 -178 80 -178 178c0 94 80 178 178 178c94 0 178 -84 178 -178c0 -98 -84 -178 -178 -178zM919 1411c-98 0 -178 80 -178 178c0 94 80 178 178 178c94 0 178 -84 178 -178c0 -98 -84 -178 -178 -178zM709 1245l491 -1073c45 -94 84 -129 121 -131v-41
c-70 4 -191 6 -301 6c-148 0 -287 -2 -365 -6v41c80 4 125 25 125 80c0 24 -8 54 -26 92l-101 233h-384c-48 -113 -68 -195 -68 -254c0 -119 82 -147 190 -151v-41c-102 4 -174 6 -268 6c-53 0 -117 -2 -158 -6v41c64 10 115 72 189 240l419 964c23 -3 45 -4 68 -4
s46 1 68 4zM636 487l-175 403l-174 -403h349z" />
    <glyph glyph-name="agrave.smcp" horiz-adv-x="1298" 
d="M346 1493c-48 24 -78 72 -78 121c0 18 4 36 12 53c26 54 79 77 130 77c23 0 44 -4 63 -13c100 -48 125 -150 323 -318l-14 -24c-240 73 -342 55 -436 104zM709 1245l491 -1073c45 -94 84 -129 121 -131v-41c-70 4 -191 6 -301 6c-148 0 -287 -2 -365 -6v41
c80 4 125 25 125 80c0 24 -8 54 -26 92l-101 233h-384c-48 -113 -68 -195 -68 -254c0 -119 82 -147 190 -151v-41c-102 4 -174 6 -268 6c-53 0 -117 -2 -158 -6v41c64 10 115 72 189 240l419 964c23 -3 45 -4 68 -4s46 1 68 4zM636 487l-175 403l-174 -403h349z" />
    <glyph glyph-name="amacron.smcp" horiz-adv-x="1298" 
d="M1093 1530h-885v51h885v-51zM709 1245l491 -1073c45 -94 84 -129 121 -131v-41c-70 4 -191 6 -301 6c-148 0 -287 -2 -365 -6v41c80 4 125 25 125 80c0 24 -8 54 -26 92l-101 233h-384c-48 -113 -68 -195 -68 -254c0 -119 82 -147 190 -151v-41c-102 4 -174 6 -268 6
c-53 0 -117 -2 -158 -6v41c64 10 115 72 189 240l419 964c23 -3 45 -4 68 -4s46 1 68 4zM636 487l-175 403l-174 -403h349z" />
    <glyph glyph-name="aogonek.smcp" horiz-adv-x="1298" 
d="M1226 4c-165 -57 -225 -132 -225 -188s27 -78 82 -78c45 0 105 20 135 47l27 -31c-80 -98 -170 -139 -313 -139c-134 0 -203 53 -203 145c0 118 158 202 420 245c-42 1 -86 1 -129 1c-148 0 -287 -2 -365 -6v41c80 4 125 25 125 80c0 24 -8 54 -26 92l-101 233h-384
c-48 -113 -68 -195 -68 -254c0 -119 82 -147 190 -151v-41c-102 4 -174 6 -268 6c-53 0 -117 -2 -158 -6v41c64 10 115 72 189 240l419 964c22 -3 45 -5 68 -5s45 2 68 5l491 -1073c45 -94 84 -129 121 -131v-41c-26 1 -59 3 -95 4zM636 487l-175 403l-174 -403h349z" />
    <glyph glyph-name="aring.smcp" horiz-adv-x="1298" 
d="M655 1376c-125 0 -237 80 -237 209c0 127 112 207 237 207c127 0 240 -80 240 -207c0 -129 -113 -209 -240 -209zM655 1749c-86 0 -180 -59 -180 -166c0 -110 94 -164 180 -164c88 0 183 54 183 164c0 107 -95 166 -183 166zM709 1245l491 -1073c45 -94 84 -129 121 -131
v-41c-70 4 -191 6 -301 6c-148 0 -287 -2 -365 -6v41c80 4 125 25 125 80c0 24 -8 54 -26 92l-101 233h-384c-48 -113 -68 -195 -68 -254c0 -119 82 -147 190 -151v-41c-102 4 -174 6 -268 6c-53 0 -117 -2 -158 -6v41c64 10 115 72 189 240l419 964c23 -3 45 -4 68 -4
s46 1 68 4zM636 487l-175 403l-174 -403h349z" />
    <glyph glyph-name="atilde.smcp" horiz-adv-x="1298" 
d="M386 1540c-73 0 -139 -33 -198 -110l-29 14c55 223 176 313 305 313c219 0 277 -135 453 -135c73 0 139 31 198 109l29 -15c-55 -223 -176 -313 -303 -313c-221 0 -279 137 -455 137zM709 1245l491 -1073c45 -94 84 -129 121 -131v-41c-70 4 -191 6 -301 6
c-148 0 -287 -2 -365 -6v41c80 4 125 25 125 80c0 24 -8 54 -26 92l-101 233h-384c-48 -113 -68 -195 -68 -254c0 -119 82 -147 190 -151v-41c-102 4 -174 6 -268 6c-53 0 -117 -2 -158 -6v41c64 10 115 72 189 240l419 964c23 -3 45 -4 68 -4s46 1 68 4zM636 487l-175 403
l-174 -403h349z" />
    <glyph glyph-name="ae.smcp" horiz-adv-x="1753" 
d="M1657 283c0 -56 4 -170 14 -283c-133 6 -317 6 -448 6c-127 0 -408 0 -615 -6v41c125 6 146 27 146 176v389h-332l-236 -393c-24 -40 -36 -72 -36 -97c0 -50 50 -71 143 -75v-41c-41 4 -113 6 -187 6c-47 0 -102 -2 -137 -6v41c43 2 88 43 142 131l608 1006
c-22 18 -57 23 -111 26v41c47 -1 98 -2 150 -3l65 108h47l-66 -109c163 -2 329 -2 419 -2c118 0 286 0 407 6c-10 -104 -14 -211 -14 -262c0 -49 2 -96 6 -127h-47c-41 254 -143 342 -275 342h-26c-86 0 -125 -20 -125 -170v-381h27c129 0 139 115 170 209h47
c-6 -72 -8 -119 -8 -157c0 -27 1 -49 1 -72c0 -56 3 -105 13 -230h-47c-31 121 -49 209 -176 209h-27v-389c0 -149 39 -170 125 -170h47c172 0 250 98 295 383h47c-4 -39 -6 -90 -6 -147zM754 647v381c0 50 -3 86 -11 111l-296 -492h307z" />
    <glyph glyph-name="b.smcp" horiz-adv-x="1393" 
d="M821 668v-4c406 -39 520 -164 520 -328c0 -217 -202 -336 -593 -336c-70 0 -205 6 -394 6c-112 0 -229 -2 -295 -6v41c125 6 146 27 146 176v811c0 152 -23 170 -146 176v41c66 -4 185 -6 291 -6c146 0 293 4 350 4c379 0 535 -96 535 -280c0 -142 -113 -238 -414 -295z
M690 1204c-76 0 -90 -35 -90 -176v-360h35c160 0 199 118 199 272c0 172 -39 264 -144 264zM692 47c168 0 240 105 240 297c0 184 -74 289 -262 289h-70v-416c0 -143 14 -170 92 -170z" />
    <glyph glyph-name="c.smcp" horiz-adv-x="1366" 
d="M760 1274c192 0 278 -64 360 -133c16 -13 29 -20 40 -20c29 0 45 41 52 124h48c-7 -92 -9 -213 -9 -430h-47c-28 150 -45 199 -102 262c-72 80 -164 135 -264 135c-217 0 -357 -223 -357 -594c0 -380 164 -585 371 -585c100 0 203 51 272 135c58 70 74 137 95 283h47
c0 -228 2 -355 8 -451h-47c-7 83 -23 124 -51 124c-12 0 -25 -7 -41 -20c-86 -71 -197 -133 -369 -133c-401 0 -694 232 -694 639c0 398 303 664 688 664z" />
    <glyph glyph-name="cacute.smcp" horiz-adv-x="1366" 
d="M854 1731c18 9 40 13 62 13c51 0 104 -23 130 -77c8 -17 12 -35 12 -53c0 -49 -30 -97 -78 -121c-94 -49 -196 -31 -436 -104l-14 24c199 168 223 270 324 318zM760 1274c192 0 278 -64 360 -133c16 -13 29 -20 40 -20c29 0 45 41 52 124h48c-7 -92 -9 -213 -9 -430h-47
c-28 150 -45 199 -102 262c-72 80 -164 135 -264 135c-217 0 -357 -223 -357 -594c0 -380 164 -585 371 -585c100 0 203 51 272 135c58 70 74 137 95 283h47c0 -228 2 -355 8 -451h-47c-7 83 -23 124 -51 124c-12 0 -25 -7 -41 -20c-86 -71 -197 -133 -369 -133
c-401 0 -694 232 -694 639c0 398 303 664 688 664z" />
    <glyph glyph-name="ccaron.smcp" horiz-adv-x="1366" 
d="M1186 1733l10 -31c-178 -84 -344 -221 -444 -352h-37c-97 129 -264 266 -445 352l11 31c188 -29 387 -80 493 -125c90 45 256 96 412 125zM760 1274c192 0 278 -64 360 -133c16 -13 29 -20 40 -20c29 0 45 41 52 124h48c-7 -92 -9 -213 -9 -430h-47
c-28 150 -45 199 -102 262c-72 80 -164 135 -264 135c-217 0 -357 -223 -357 -594c0 -380 164 -585 371 -585c100 0 203 51 272 135c58 70 74 137 95 283h47c0 -228 2 -355 8 -451h-47c-7 83 -23 124 -51 124c-12 0 -25 -7 -41 -20c-86 -71 -197 -133 -369 -133
c-401 0 -694 232 -694 639c0 398 303 664 688 664z" />
    <glyph glyph-name="ccedilla.smcp" horiz-adv-x="1366" 
d="M1219 451h47c0 -228 2 -355 8 -451h-47c-7 83 -23 124 -51 124c-12 0 -25 -7 -41 -20c-84 -69 -191 -130 -355 -133l-26 -94c55 21 113 31 182 31c117 0 172 -51 172 -119c0 -119 -162 -174 -385 -174c-82 0 -155 10 -205 27l13 36c22 -4 69 -10 119 -10
c90 0 188 23 188 78c0 37 -39 51 -98 51c-23 0 -50 -4 -68 -14l53 189c-380 15 -653 245 -653 638c0 398 303 664 688 664c192 0 278 -64 360 -133c16 -13 29 -20 40 -20c29 0 45 41 52 124h48c-7 -92 -9 -213 -9 -430h-47c-28 150 -45 199 -102 262
c-72 80 -164 135 -264 135c-217 0 -357 -223 -357 -594c0 -380 164 -585 371 -585c100 0 203 51 272 135c58 70 74 137 95 283z" />
    <glyph glyph-name="ccircumflex.smcp" horiz-adv-x="1366" 
d="M719 1749h37c96 -129 264 -266 444 -352l-10 -31c-189 29 -387 80 -494 125c-90 -45 -256 -96 -411 -125l-11 31c178 84 344 221 445 352zM760 1274c192 0 278 -64 360 -133c16 -13 29 -20 40 -20c29 0 45 41 52 124h48c-7 -92 -9 -213 -9 -430h-47
c-28 150 -45 199 -102 262c-72 80 -164 135 -264 135c-217 0 -357 -223 -357 -594c0 -380 164 -585 371 -585c100 0 203 51 272 135c58 70 74 137 95 283h47c0 -228 2 -355 8 -451h-47c-7 83 -23 124 -51 124c-12 0 -25 -7 -41 -20c-86 -71 -197 -133 -369 -133
c-401 0 -694 232 -694 639c0 398 303 664 688 664z" />
    <glyph glyph-name="cdotaccent.smcp" horiz-adv-x="1366" 
d="M731 1765c129 0 202 -59 202 -176c0 -116 -73 -176 -202 -176c-131 0 -203 60 -203 176c0 117 72 176 203 176zM760 1274c192 0 278 -64 360 -133c16 -13 29 -20 40 -20c29 0 45 41 52 124h48c-7 -92 -9 -213 -9 -430h-47c-28 150 -45 199 -102 262
c-72 80 -164 135 -264 135c-217 0 -357 -223 -357 -594c0 -380 164 -585 371 -585c100 0 203 51 272 135c58 70 74 137 95 283h47c0 -228 2 -355 8 -451h-47c-7 83 -23 124 -51 124c-12 0 -25 -7 -41 -20c-86 -71 -197 -133 -369 -133c-401 0 -694 232 -694 639
c0 398 303 664 688 664z" />
    <glyph glyph-name="d.smcp" horiz-adv-x="1561" 
d="M721 1245c516 0 764 -213 764 -606c0 -385 -287 -639 -783 -639c-73 0 -241 6 -348 6c-112 0 -229 -2 -295 -6v41c125 6 146 27 146 176v811c0 152 -23 170 -146 176v41c54 -3 143 -7 232 -7c20 0 40 1 59 1c113 2 275 6 371 6zM711 1208c-93 0 -111 -34 -111 -176v-819
c0 -143 18 -176 113 -176c282 0 362 209 362 594c0 387 -92 577 -364 577z" />
    <glyph glyph-name="eth.smcp" horiz-adv-x="1561" 
d="M721 1245c516 0 764 -213 764 -606c0 -385 -287 -639 -783 -639c-73 0 -241 6 -348 6c-112 0 -229 -2 -295 -6v41c125 6 146 27 146 176v389h-146v41h146v381c0 152 -23 170 -146 176v41c54 -3 143 -7 232 -7c20 0 40 1 59 1c113 2 275 6 371 6zM713 37
c282 0 362 209 362 594c0 387 -92 577 -364 577c-93 0 -111 -34 -111 -176v-385h254v-41h-254v-393c0 -143 18 -176 113 -176z" />
    <glyph glyph-name="dcaron.smcp" horiz-adv-x="1561" 
d="M1172 1733l10 -31c-178 -84 -344 -221 -444 -352h-37c-97 129 -264 266 -445 352l11 31c188 -29 387 -80 493 -125c90 45 256 96 412 125zM721 1245c516 0 764 -213 764 -606c0 -385 -287 -639 -783 -639c-73 0 -241 6 -348 6c-112 0 -229 -2 -295 -6v41
c125 6 146 27 146 176v811c0 152 -23 170 -146 176v41c54 -3 143 -7 232 -7c20 0 40 1 59 1c113 2 275 6 371 6zM711 1208c-93 0 -111 -34 -111 -176v-819c0 -143 18 -176 113 -176c282 0 362 209 362 594c0 387 -92 577 -364 577z" />
    <glyph glyph-name="dcroat.smcp" horiz-adv-x="1561" 
d="M721 1245c516 0 764 -213 764 -606c0 -385 -287 -639 -783 -639c-73 0 -241 6 -348 6c-112 0 -229 -2 -295 -6v41c125 6 146 27 146 176v389h-146v41h146v381c0 152 -23 170 -146 176v41c54 -3 143 -7 232 -7c20 0 40 1 59 1c113 2 275 6 371 6zM713 37
c282 0 362 209 362 594c0 387 -92 577 -364 577c-93 0 -111 -34 -111 -176v-385h254v-41h-254v-393c0 -143 18 -176 113 -176z" />
    <glyph glyph-name="e.smcp" horiz-adv-x="1268" 
d="M1169 283c0 -56 5 -170 15 -283c-133 6 -318 6 -449 6c-139 0 -450 0 -676 -6v41c125 6 146 27 146 176v811c0 150 -23 170 -146 176v41c226 -6 537 -6 676 -6c119 0 287 0 408 6c-10 -104 -15 -211 -15 -262c0 -49 2 -96 7 -127h-48c-57 254 -182 342 -356 342h-26
c-72 0 -105 -14 -105 -108v-443h47c146 0 213 135 232 230h47c-6 -65 -7 -116 -7 -157c0 -37 1 -67 1 -93c0 -56 2 -125 12 -250h-47c-19 121 -97 229 -238 229h-47v-450c0 -95 33 -109 105 -109h47c180 0 317 98 376 383h48c-5 -39 -7 -90 -7 -147z" />
    <glyph glyph-name="eacute.smcp" horiz-adv-x="1268" 
d="M872 1493c-94 -49 -196 -31 -436 -104l-14 24c199 168 223 270 324 318c18 9 40 13 62 13c51 0 104 -23 130 -77c8 -17 12 -35 12 -53c0 -49 -30 -97 -78 -121zM1169 283c0 -56 5 -170 15 -283c-133 6 -318 6 -449 6c-139 0 -450 0 -676 -6v41c125 6 146 27 146 176v811
c0 150 -23 170 -146 176v41c226 -6 537 -6 676 -6c119 0 287 0 408 6c-10 -104 -15 -211 -15 -262c0 -49 2 -96 7 -127h-48c-57 254 -182 342 -356 342h-26c-72 0 -105 -14 -105 -108v-443h47c146 0 213 135 232 230h47c-6 -65 -7 -116 -7 -157c0 -37 1 -67 1 -93
c0 -56 2 -125 12 -250h-47c-19 121 -97 229 -238 229h-47v-450c0 -95 33 -109 105 -109h47c180 0 317 98 376 383h48c-5 -39 -7 -90 -7 -147z" />
    <glyph glyph-name="ebreve.smcp" horiz-adv-x="1268" 
d="M625 1376c-279 0 -436 162 -490 299l25 23c80 -51 227 -119 465 -119c237 0 385 68 465 119l24 -23c-53 -137 -211 -299 -489 -299zM1169 283c0 -56 5 -170 15 -283c-133 6 -318 6 -449 6c-139 0 -450 0 -676 -6v41c125 6 146 27 146 176v811c0 150 -23 170 -146 176v41
c226 -6 537 -6 676 -6c119 0 287 0 408 6c-10 -104 -15 -211 -15 -262c0 -49 2 -96 7 -127h-48c-57 254 -182 342 -356 342h-26c-72 0 -105 -14 -105 -108v-443h47c146 0 213 135 232 230h47c-6 -65 -7 -116 -7 -157c0 -37 1 -67 1 -93c0 -56 2 -125 12 -250h-47
c-19 121 -97 229 -238 229h-47v-450c0 -95 33 -109 105 -109h47c180 0 317 98 376 383h48c-5 -39 -7 -90 -7 -147z" />
    <glyph glyph-name="ecaron.smcp" horiz-adv-x="1268" 
d="M644 1350h-37c-97 129 -264 266 -445 352l11 31c188 -29 387 -80 493 -125c90 45 256 96 412 125l10 -31c-178 -84 -344 -221 -444 -352zM1169 283c0 -56 5 -170 15 -283c-133 6 -318 6 -449 6c-139 0 -450 0 -676 -6v41c125 6 146 27 146 176v811
c0 150 -23 170 -146 176v41c226 -6 537 -6 676 -6c119 0 287 0 408 6c-10 -104 -15 -211 -15 -262c0 -49 2 -96 7 -127h-48c-57 254 -182 342 -356 342h-26c-72 0 -105 -14 -105 -108v-443h47c146 0 213 135 232 230h47c-6 -65 -7 -116 -7 -157c0 -37 1 -67 1 -93
c0 -56 2 -125 12 -250h-47c-19 121 -97 229 -238 229h-47v-450c0 -95 33 -109 105 -109h47c180 0 317 98 376 383h48c-5 -39 -7 -90 -7 -147z" />
    <glyph glyph-name="ecircumflex.smcp" horiz-adv-x="1268" 
d="M588 1491c-90 -45 -256 -96 -411 -125l-11 31c178 84 344 221 445 352h37c96 -129 264 -266 444 -352l-10 -31c-189 29 -387 80 -494 125zM1169 283c0 -56 5 -170 15 -283c-133 6 -318 6 -449 6c-139 0 -450 0 -676 -6v41c125 6 146 27 146 176v811
c0 150 -23 170 -146 176v41c226 -6 537 -6 676 -6c119 0 287 0 408 6c-10 -104 -15 -211 -15 -262c0 -49 2 -96 7 -127h-48c-57 254 -182 342 -356 342h-26c-72 0 -105 -14 -105 -108v-443h47c146 0 213 135 232 230h47c-6 -65 -7 -116 -7 -157c0 -37 1 -67 1 -93
c0 -56 2 -125 12 -250h-47c-19 121 -97 229 -238 229h-47v-450c0 -95 33 -109 105 -109h47c180 0 317 98 376 383h48c-5 -39 -7 -90 -7 -147z" />
    <glyph glyph-name="edieresis.smcp" horiz-adv-x="1268" 
d="M363 1411c-98 0 -178 80 -178 178c0 94 80 178 178 178c94 0 178 -84 178 -178c0 -98 -84 -178 -178 -178zM891 1411c-98 0 -178 80 -178 178c0 94 80 178 178 178c94 0 178 -84 178 -178c0 -98 -84 -178 -178 -178zM1169 283c0 -56 5 -170 15 -283c-133 6 -318 6 -449 6
c-139 0 -450 0 -676 -6v41c125 6 146 27 146 176v811c0 150 -23 170 -146 176v41c226 -6 537 -6 676 -6c119 0 287 0 408 6c-10 -104 -15 -211 -15 -262c0 -49 2 -96 7 -127h-48c-57 254 -182 342 -356 342h-26c-72 0 -105 -14 -105 -108v-443h47c146 0 213 135 232 230h47
c-6 -65 -7 -116 -7 -157c0 -37 1 -67 1 -93c0 -56 2 -125 12 -250h-47c-19 121 -97 229 -238 229h-47v-450c0 -95 33 -109 105 -109h47c180 0 317 98 376 383h48c-5 -39 -7 -90 -7 -147z" />
    <glyph glyph-name="edotaccent.smcp" horiz-adv-x="1268" 
d="M623 1413c-131 0 -203 60 -203 176c0 117 72 176 203 176c129 0 202 -59 202 -176c0 -116 -73 -176 -202 -176zM1169 283c0 -56 5 -170 15 -283c-133 6 -318 6 -449 6c-139 0 -450 0 -676 -6v41c125 6 146 27 146 176v811c0 150 -23 170 -146 176v41
c226 -6 537 -6 676 -6c119 0 287 0 408 6c-10 -104 -15 -211 -15 -262c0 -49 2 -96 7 -127h-48c-57 254 -182 342 -356 342h-26c-72 0 -105 -14 -105 -108v-443h47c146 0 213 135 232 230h47c-6 -65 -7 -116 -7 -157c0 -37 1 -67 1 -93c0 -56 2 -125 12 -250h-47
c-19 121 -97 229 -238 229h-47v-450c0 -95 33 -109 105 -109h47c180 0 317 98 376 383h48c-5 -39 -7 -90 -7 -147z" />
    <glyph glyph-name="egrave.smcp" horiz-adv-x="1268" 
d="M318 1493c-48 24 -78 72 -78 121c0 18 4 36 12 53c26 54 79 77 130 77c23 0 44 -4 63 -13c100 -48 125 -150 323 -318l-14 -24c-240 73 -342 55 -436 104zM1169 283c0 -56 5 -170 15 -283c-133 6 -318 6 -449 6c-139 0 -450 0 -676 -6v41c125 6 146 27 146 176v811
c0 150 -23 170 -146 176v41c226 -6 537 -6 676 -6c119 0 287 0 408 6c-10 -104 -15 -211 -15 -262c0 -49 2 -96 7 -127h-48c-57 254 -182 342 -356 342h-26c-72 0 -105 -14 -105 -108v-443h47c146 0 213 135 232 230h47c-6 -65 -7 -116 -7 -157c0 -37 1 -67 1 -93
c0 -56 2 -125 12 -250h-47c-19 121 -97 229 -238 229h-47v-450c0 -95 33 -109 105 -109h47c180 0 317 98 376 383h48c-5 -39 -7 -90 -7 -147z" />
    <glyph glyph-name="emacron.smcp" horiz-adv-x="1268" 
d="M1065 1530h-885v51h885v-51zM1169 283c0 -56 5 -170 15 -283c-133 6 -318 6 -449 6c-139 0 -450 0 -676 -6v41c125 6 146 27 146 176v811c0 150 -23 170 -146 176v41c226 -6 537 -6 676 -6c119 0 287 0 408 6c-10 -104 -15 -211 -15 -262c0 -49 2 -96 7 -127h-48
c-57 254 -182 342 -356 342h-26c-72 0 -105 -14 -105 -108v-443h47c146 0 213 135 232 230h47c-6 -65 -7 -116 -7 -157c0 -37 1 -67 1 -93c0 -56 2 -125 12 -250h-47c-19 121 -97 229 -238 229h-47v-450c0 -95 33 -109 105 -109h47c180 0 317 98 376 383h48
c-5 -39 -7 -90 -7 -147z" />
    <glyph glyph-name="eogonek.smcp" horiz-adv-x="1268" 
d="M991 -262c45 0 105 20 135 47l27 -31c-80 -98 -170 -139 -313 -139c-134 0 -203 53 -203 145c0 117 155 200 414 244c-108 2 -225 2 -316 2c-139 0 -450 0 -676 -6v41c125 6 146 27 146 176v811c0 150 -23 170 -146 176v41c226 -6 537 -6 676 -6c119 0 287 0 408 6
c-10 -104 -15 -211 -15 -262c0 -49 2 -96 7 -127h-48c-57 254 -182 342 -356 342h-26c-72 0 -105 -14 -105 -108v-443h47c146 0 213 135 232 230h47c-6 -65 -7 -116 -7 -157c0 -37 1 -67 1 -93c0 -56 2 -125 12 -250h-47c-19 121 -97 229 -238 229h-47v-450
c0 -95 33 -109 105 -109h47c180 0 317 98 376 383h48c-5 -39 -7 -90 -7 -147c0 -56 5 -170 15 -283l-55 2c-161 -56 -220 -130 -220 -186s27 -78 82 -78z" />
    <glyph glyph-name="f.smcp" horiz-adv-x="1180" 
d="M1143 1245c-10 -104 -15 -211 -15 -262c0 -49 2 -96 7 -127h-48c-57 254 -182 342 -356 342h-26c-72 0 -105 -14 -105 -108v-443h47c146 0 213 135 232 230h47c-6 -65 -7 -116 -7 -157c0 -37 1 -67 1 -93c0 -56 2 -125 12 -250h-47c-19 121 -97 229 -238 229h-47v-368
c0 -156 59 -191 227 -197v-41c-92 4 -252 6 -403 6c-148 0 -287 -2 -365 -6v41c125 6 146 27 146 176v811c0 150 -23 170 -146 176v41c226 -6 537 -6 676 -6c119 0 287 0 408 6z" />
    <glyph glyph-name="g.smcp" horiz-adv-x="1491" 
d="M846 1274c190 0 280 -64 377 -133c16 -13 30 -20 41 -20c27 0 43 37 51 124h47c-6 -88 -8 -203 -8 -409h-47c-19 90 -47 176 -103 241c-65 68 -139 131 -260 131c-285 0 -463 -233 -463 -587c0 -426 131 -609 375 -609c39 0 70 15 90 37c19 23 29 53 29 94v201
c0 166 -31 191 -187 197v41c99 -4 254 -7 371 -7c123 0 230 3 295 7v-41c-72 -6 -84 -25 -84 -176v-365h-41c-4 41 -16 94 -51 94c-31 0 -66 -16 -109 -39c-51 -26 -184 -84 -346 -84c-471 0 -751 232 -751 627c0 416 319 676 774 676z" />
    <glyph glyph-name="gacute.smcp" horiz-adv-x="1491" 
d="M934 1731c18 9 40 13 62 13c51 0 104 -23 130 -77c8 -17 12 -35 12 -53c0 -49 -30 -97 -78 -121c-94 -49 -196 -31 -436 -104l-14 24c199 168 223 270 324 318zM846 1274c190 0 280 -64 377 -133c16 -13 30 -20 41 -20c27 0 43 37 51 124h47c-6 -88 -8 -203 -8 -409h-47
c-19 90 -47 176 -103 241c-65 68 -139 131 -260 131c-285 0 -463 -233 -463 -587c0 -426 131 -609 375 -609c39 0 70 15 90 37c19 23 29 53 29 94v201c0 166 -31 191 -187 197v41c99 -4 254 -7 371 -7c123 0 230 3 295 7v-41c-72 -6 -84 -25 -84 -176v-365h-41
c-4 41 -16 94 -51 94c-31 0 -66 -16 -109 -39c-51 -26 -184 -84 -346 -84c-471 0 -751 232 -751 627c0 416 319 676 774 676z" />
    <glyph glyph-name="gbreve.smcp" horiz-adv-x="1491" 
d="M1278 1698l24 -23c-53 -137 -211 -299 -489 -299c-279 0 -436 162 -490 299l25 23c80 -51 227 -119 465 -119c237 0 385 68 465 119zM846 1274c190 0 280 -64 377 -133c16 -13 30 -20 41 -20c27 0 43 37 51 124h47c-6 -88 -8 -203 -8 -409h-47c-19 90 -47 176 -103 241
c-65 68 -139 131 -260 131c-285 0 -463 -233 -463 -587c0 -426 131 -609 375 -609c39 0 70 15 90 37c19 23 29 53 29 94v201c0 166 -31 191 -187 197v41c99 -4 254 -7 371 -7c123 0 230 3 295 7v-41c-72 -6 -84 -25 -84 -176v-365h-41c-4 41 -16 94 -51 94
c-31 0 -66 -16 -109 -39c-51 -26 -184 -84 -346 -84c-471 0 -751 232 -751 627c0 416 319 676 774 676z" />
    <glyph glyph-name="gcircumflex.smcp" horiz-adv-x="1491" 
d="M799 1749h37c96 -129 264 -266 444 -352l-10 -31c-189 29 -387 80 -494 125c-90 -45 -256 -96 -411 -125l-11 31c178 84 344 221 445 352zM846 1274c190 0 280 -64 377 -133c16 -13 30 -20 41 -20c27 0 43 37 51 124h47c-6 -88 -8 -203 -8 -409h-47
c-19 90 -47 176 -103 241c-65 68 -139 131 -260 131c-285 0 -463 -233 -463 -587c0 -426 131 -609 375 -609c39 0 70 15 90 37c19 23 29 53 29 94v201c0 166 -31 191 -187 197v41c99 -4 254 -7 371 -7c123 0 230 3 295 7v-41c-72 -6 -84 -25 -84 -176v-365h-41
c-4 41 -16 94 -51 94c-31 0 -66 -16 -109 -39c-51 -26 -184 -84 -346 -84c-471 0 -751 232 -751 627c0 416 319 676 774 676z" />
    <glyph glyph-name="gcommaaccent.smcp" horiz-adv-x="1491" 
d="M846 1274c190 0 280 -64 377 -133c16 -13 30 -20 41 -20c27 0 43 37 51 124h47c-6 -88 -8 -203 -8 -409h-47c-19 90 -47 176 -103 241c-65 68 -139 131 -260 131c-285 0 -463 -233 -463 -587c0 -426 131 -609 375 -609c39 0 70 15 90 37c19 23 29 53 29 94v201
c0 166 -31 191 -187 197v41c99 -4 254 -7 371 -7c123 0 230 3 295 7v-41c-72 -6 -84 -25 -84 -176v-365h-41c-4 41 -16 94 -51 94c-31 0 -66 -16 -109 -39c-51 -26 -184 -84 -346 -84c-471 0 -751 232 -751 627c0 416 319 676 774 676zM846 -92c109 0 190 -55 190 -168
c0 -137 -94 -236 -276 -240l-4 45c117 15 172 43 188 103c-20 -19 -51 -31 -108 -31c-109 0 -172 47 -172 141c0 97 63 150 182 150z" />
    <glyph glyph-name="gdotaccent.smcp" horiz-adv-x="1491" 
d="M846 1765c129 0 202 -59 202 -176c0 -116 -73 -176 -202 -176c-131 0 -203 60 -203 176c0 117 72 176 203 176zM846 1274c190 0 280 -64 377 -133c16 -13 30 -20 41 -20c27 0 43 37 51 124h47c-6 -88 -8 -203 -8 -409h-47c-19 90 -47 176 -103 241
c-65 68 -139 131 -260 131c-285 0 -463 -233 -463 -587c0 -426 131 -609 375 -609c39 0 70 15 90 37c19 23 29 53 29 94v201c0 166 -31 191 -187 197v41c99 -4 254 -7 371 -7c123 0 230 3 295 7v-41c-72 -6 -84 -25 -84 -176v-365h-41c-4 41 -16 94 -51 94
c-31 0 -66 -16 -109 -39c-51 -26 -184 -84 -346 -84c-471 0 -751 232 -751 627c0 416 319 676 774 676z" />
    <glyph glyph-name="h.smcp" horiz-adv-x="1661" 
d="M1602 1245v-41c-125 -6 -146 -26 -146 -176v-811c0 -149 23 -170 146 -176v-41c-70 4 -193 6 -324 6c-135 0 -279 -2 -363 -6v41c125 6 146 27 146 176v389h-461v-389c0 -149 23 -170 145 -176v-41c-83 4 -227 6 -362 6c-131 0 -254 -2 -324 -6v41c125 6 146 27 146 176
v811c0 150 -23 170 -146 176v41c70 -4 193 -6 324 -6c135 0 279 2 362 6v-41c-124 -6 -145 -26 -145 -176v-381h461v381c0 150 -23 170 -146 176v41c84 -4 228 -6 363 -6c131 0 254 2 324 6z" />
    <glyph glyph-name="hbar.smcp" horiz-adv-x="1661" 
d="M1602 1245v-41c-125 -6 -146 -26 -146 -176v-80h146v-41h-146v-690c0 -149 23 -170 146 -176v-41c-70 4 -193 6 -324 6c-135 0 -279 -2 -363 -6v41c125 6 146 27 146 176v389h-461v-389c0 -149 23 -170 145 -176v-41c-83 4 -227 6 -362 6c-131 0 -254 -2 -324 -6v41
c125 6 146 27 146 176v690h-146v41h146v80c0 150 -23 170 -146 176v41c70 -4 193 -6 324 -6c135 0 279 2 362 6v-41c-124 -6 -145 -26 -145 -176v-80h461v80c0 150 -23 170 -146 176v41c84 -4 228 -6 363 -6c131 0 254 2 324 6zM1061 907h-461v-260h461v260z" />
    <glyph glyph-name="hcircumflex.smcp" horiz-adv-x="1661" 
d="M822 1749h37c96 -129 264 -266 444 -352l-10 -31c-189 29 -387 80 -494 125c-90 -45 -256 -96 -411 -125l-11 31c178 84 344 221 445 352zM1602 1245v-41c-125 -6 -146 -26 -146 -176v-811c0 -149 23 -170 146 -176v-41c-70 4 -193 6 -324 6c-135 0 -279 -2 -363 -6v41
c125 6 146 27 146 176v389h-461v-389c0 -149 23 -170 145 -176v-41c-83 4 -227 6 -362 6c-131 0 -254 -2 -324 -6v41c125 6 146 27 146 176v811c0 150 -23 170 -146 176v41c70 -4 193 -6 324 -6c135 0 279 2 362 6v-41c-124 -6 -145 -26 -145 -176v-381h461v381
c0 150 -23 170 -146 176v41c84 -4 228 -6 363 -6c131 0 254 2 324 6z" />
    <glyph glyph-name="i.smcp" horiz-adv-x="805" 
d="M745 1245v-41c-124 -6 -145 -26 -145 -176v-811c0 -149 21 -170 145 -176v-41c-75 4 -213 6 -331 6c-140 0 -281 -2 -355 -6v41c125 6 146 27 146 176v811c0 150 -23 170 -146 176v41c74 -4 215 -6 355 -6c118 0 256 2 331 6z" />
    <glyph glyph-name="iacute.smcp" horiz-adv-x="805" 
d="M522 1731c18 9 40 13 62 13c51 0 104 -23 130 -77c8 -17 12 -35 12 -53c0 -49 -30 -97 -78 -121c-94 -49 -196 -31 -436 -104l-14 24c199 168 223 270 324 318zM745 1245v-41c-124 -6 -145 -26 -145 -176v-811c0 -149 21 -170 145 -176v-41c-75 4 -213 6 -331 6
c-140 0 -281 -2 -355 -6v41c125 6 146 27 146 176v811c0 150 -23 170 -146 176v41c74 -4 215 -6 355 -6c118 0 256 2 331 6z" />
    <glyph glyph-name="ibreve.smcp" horiz-adv-x="805" 
d="M866 1698l24 -23c-53 -137 -211 -299 -489 -299c-279 0 -436 162 -490 299l25 23c80 -51 227 -119 465 -119c237 0 385 68 465 119zM745 1245v-41c-124 -6 -145 -26 -145 -176v-811c0 -149 21 -170 145 -176v-41c-75 4 -213 6 -331 6c-140 0 -281 -2 -355 -6v41
c125 6 146 27 146 176v811c0 150 -23 170 -146 176v41c74 -4 215 -6 355 -6c118 0 256 2 331 6z" />
    <glyph glyph-name="icircumflex.smcp" horiz-adv-x="805" 
d="M387 1749h37c96 -129 264 -266 444 -352l-10 -31c-189 29 -387 80 -494 125c-90 -45 -256 -96 -411 -125l-11 31c178 84 344 221 445 352zM745 1245v-41c-124 -6 -145 -26 -145 -176v-811c0 -149 21 -170 145 -176v-41c-75 4 -213 6 -331 6c-140 0 -281 -2 -355 -6v41
c125 6 146 27 146 176v811c0 150 -23 170 -146 176v41c74 -4 215 -6 355 -6c118 0 256 2 331 6z" />
    <glyph glyph-name="idieresis.smcp" horiz-adv-x="805" 
d="M139 1767c94 0 178 -84 178 -178c0 -98 -84 -178 -178 -178c-98 0 -178 80 -178 178c0 94 80 178 178 178zM667 1767c94 0 178 -84 178 -178c0 -98 -84 -178 -178 -178c-98 0 -178 80 -178 178c0 94 80 178 178 178zM745 1245v-41c-124 -6 -145 -26 -145 -176v-811
c0 -149 21 -170 145 -176v-41c-75 4 -213 6 -331 6c-140 0 -281 -2 -355 -6v41c125 6 146 27 146 176v811c0 150 -23 170 -146 176v41c74 -4 215 -6 355 -6c118 0 256 2 331 6z" />
    <glyph glyph-name="i.loclTRK.smcp" horiz-adv-x="805" 
d="M399 1765c129 0 202 -59 202 -176c0 -116 -73 -176 -202 -176c-131 0 -203 60 -203 176c0 117 72 176 203 176zM745 1245v-41c-124 -6 -145 -26 -145 -176v-811c0 -149 21 -170 145 -176v-41c-75 4 -213 6 -331 6c-140 0 -281 -2 -355 -6v41c125 6 146 27 146 176v811
c0 150 -23 170 -146 176v41c74 -4 215 -6 355 -6c118 0 256 2 331 6z" />
    <glyph glyph-name="igrave.smcp" horiz-adv-x="805" 
d="M221 1731c100 -48 125 -150 323 -318l-14 -24c-240 73 -342 55 -436 104c-48 24 -78 72 -78 121c0 18 4 36 12 53c26 54 79 77 130 77c23 0 44 -4 63 -13zM745 1245v-41c-124 -6 -145 -26 -145 -176v-811c0 -149 21 -170 145 -176v-41c-75 4 -213 6 -331 6
c-140 0 -281 -2 -355 -6v41c125 6 146 27 146 176v811c0 150 -23 170 -146 176v41c74 -4 215 -6 355 -6c118 0 256 2 331 6z" />
    <glyph glyph-name="ij.smcp" horiz-adv-x="1587" 
d="M745 1245v-41c-124 -6 -145 -26 -145 -176v-811c0 -149 21 -170 145 -176v-41c-75 4 -213 6 -331 6c-140 0 -281 -2 -355 -6v41c125 6 146 27 146 176v811c0 150 -23 170 -146 176v41c74 -4 215 -6 355 -6c118 0 256 2 331 6zM1540 1245v-41c-125 -6 -145 -26 -145 -176
v-545c0 -52 1 -110 1 -168c0 -131 -5 -268 -36 -366c-59 -189 -260 -334 -555 -334c-72 0 -166 8 -229 39c-74 37 -103 88 -103 153c0 97 80 158 201 158c113 0 184 -51 184 -151c0 -60 -35 -123 -119 -154c17 -2 35 -4 56 -4c61 0 104 27 137 63c45 50 68 138 68 306v1003
c0 150 -23 170 -146 176v41c70 -4 193 -6 324 -6c135 0 278 2 362 6z" />
    <glyph glyph-name="imacron.smcp" horiz-adv-x="805" 
d="M841 1530h-885v51h885v-51zM745 1245v-41c-124 -6 -145 -26 -145 -176v-811c0 -149 21 -170 145 -176v-41c-75 4 -213 6 -331 6c-140 0 -281 -2 -355 -6v41c125 6 146 27 146 176v811c0 150 -23 170 -146 176v41c74 -4 215 -6 355 -6c118 0 256 2 331 6z" />
    <glyph glyph-name="iogonek.smcp" horiz-adv-x="805" 
d="M745 1245v-41c-124 -6 -145 -26 -145 -176v-811c0 -149 21 -170 145 -176v-41l-51 2c-162 -56 -221 -130 -221 -186s27 -78 82 -78c45 0 105 20 135 47l27 -31c-80 -98 -170 -139 -313 -139c-134 0 -203 53 -203 145c0 117 155 201 415 244c-64 1 -136 2 -202 2
c-140 0 -281 -2 -355 -6v41c125 6 146 27 146 176v811c0 150 -23 170 -146 176v41c74 -4 215 -6 355 -6c118 0 256 2 331 6z" />
    <glyph glyph-name="itilde.smcp" horiz-adv-x="805" 
d="M212 1757c219 0 277 -135 453 -135c73 0 139 31 198 109l29 -15c-55 -223 -176 -313 -303 -313c-221 0 -279 137 -455 137c-73 0 -139 -33 -198 -110l-29 14c55 223 176 313 305 313zM745 1245v-41c-124 -6 -145 -26 -145 -176v-811c0 -149 21 -170 145 -176v-41
c-75 4 -213 6 -331 6c-140 0 -281 -2 -355 -6v41c125 6 146 27 146 176v811c0 150 -23 170 -146 176v41c74 -4 215 -6 355 -6c118 0 256 2 331 6z" />
    <glyph glyph-name="j.smcp" horiz-adv-x="782" 
d="M735 1245v-41c-125 -6 -145 -26 -145 -176v-545c0 -52 1 -110 1 -168c0 -131 -5 -268 -36 -366c-59 -189 -260 -334 -555 -334c-72 0 -166 8 -229 39c-74 37 -103 88 -103 153c0 97 80 158 201 158c113 0 184 -51 184 -151c0 -60 -35 -123 -119 -154c17 -2 35 -4 56 -4
c61 0 104 27 137 63c45 50 68 138 68 306v1003c0 150 -23 170 -146 176v41c70 -4 193 -6 324 -6c135 0 278 2 362 6z" />
    <glyph glyph-name="jcircumflex.smcp" horiz-adv-x="782" 
d="M349 1749h37c96 -129 264 -266 444 -352l-10 -31c-189 29 -387 80 -494 125c-90 -45 -256 -96 -411 -125l-11 31c178 84 344 221 445 352zM735 1245v-41c-125 -6 -145 -26 -145 -176v-545c0 -52 1 -110 1 -168c0 -131 -5 -268 -36 -366c-59 -189 -260 -334 -555 -334
c-72 0 -166 8 -229 39c-74 37 -103 88 -103 153c0 97 80 158 201 158c113 0 184 -51 184 -151c0 -60 -35 -123 -119 -154c17 -2 35 -4 56 -4c61 0 104 27 137 63c45 50 68 138 68 306v1003c0 150 -23 170 -146 176v41c70 -4 193 -6 324 -6c135 0 278 2 362 6z" />
    <glyph glyph-name="k.smcp" horiz-adv-x="1536" 
d="M987 824l447 -658c41 -57 63 -92 125 -125v-41c-115 4 -252 6 -369 6c-64 0 -152 0 -293 -6v41c85 4 118 13 118 39c0 13 -8 30 -22 53l-266 389c-31 44 -64 93 -127 98v-403c0 -149 21 -170 145 -176v-41c-75 4 -213 6 -331 6c-148 0 -277 -2 -355 -6v41
c125 6 146 27 146 176v811c0 150 -23 170 -146 176v41c78 -4 207 -6 355 -6c118 0 256 2 331 6v-41c-124 -6 -145 -26 -145 -176v-363c137 14 232 67 348 177l47 45c69 66 97 126 97 176c0 84 -78 139 -174 143v39c114 -4 210 -6 364 -6c88 0 152 2 207 6v-39
c-92 -24 -199 -86 -297 -182z" />
    <glyph glyph-name="kcommaaccent.smcp" horiz-adv-x="1536" 
d="M987 824l447 -658c41 -57 63 -92 125 -125v-41c-115 4 -252 6 -369 6c-64 0 -152 0 -293 -6v41c85 4 118 13 118 39c0 13 -8 30 -22 53l-266 389c-31 44 -64 93 -127 98v-403c0 -149 21 -170 145 -176v-41c-75 4 -213 6 -331 6c-148 0 -277 -2 -355 -6v41
c125 6 146 27 146 176v811c0 150 -23 170 -146 176v41c78 -4 207 -6 355 -6c118 0 256 2 331 6v-41c-124 -6 -145 -26 -145 -176v-363c137 14 232 67 348 177l47 45c69 66 97 126 97 176c0 84 -78 139 -174 143v39c114 -4 210 -6 364 -6c88 0 152 2 207 6v-39
c-92 -24 -199 -86 -297 -182zM864 -92c109 0 190 -55 190 -168c0 -137 -94 -236 -276 -240l-4 45c117 15 172 43 188 103c-20 -19 -51 -31 -108 -31c-109 0 -172 47 -172 141c0 97 63 150 182 150z" />
    <glyph glyph-name="l.smcp" horiz-adv-x="1227" 
d="M745 1245v-41c-124 -6 -145 -26 -145 -176v-852c0 -113 33 -129 105 -129h47c159 0 317 117 376 445h48c-5 -46 -7 -103 -7 -168c0 -64 5 -195 15 -324c-133 6 -318 6 -449 6c-139 0 -450 0 -676 -6v41c125 6 146 27 146 176v811c0 150 -23 170 -146 176v41
c78 -4 217 -6 365 -6c119 0 246 2 321 6z" />
    <glyph glyph-name="lacute.smcp" horiz-adv-x="1227" 
d="M543 1731c18 9 40 13 62 13c51 0 104 -23 130 -77c8 -17 12 -35 12 -53c0 -49 -30 -97 -78 -121c-94 -49 -196 -31 -436 -104l-14 24c199 168 223 270 324 318zM745 1245v-41c-124 -6 -145 -26 -145 -176v-852c0 -113 33 -129 105 -129h47c159 0 317 117 376 445h48
c-5 -46 -7 -103 -7 -168c0 -64 5 -195 15 -324c-133 6 -318 6 -449 6c-139 0 -450 0 -676 -6v41c125 6 146 27 146 176v811c0 150 -23 170 -146 176v41c78 -4 217 -6 365 -6c119 0 246 2 321 6z" />
    <glyph glyph-name="lcaron.smcp" horiz-adv-x="1227" 
d="M1139 1257c6 -14 10 -49 10 -73c0 -88 -110 -213 -280 -410l-29 8c33 209 41 297 41 338c0 54 -10 82 -61 82v43c48 -3 88 -4 124 -4c79 0 134 6 195 16zM745 1245v-41c-124 -6 -145 -26 -145 -176v-852c0 -113 33 -129 105 -129h47c159 0 317 117 376 445h48
c-5 -46 -7 -103 -7 -168c0 -64 5 -195 15 -324c-133 6 -318 6 -449 6c-139 0 -450 0 -676 -6v41c125 6 146 27 146 176v811c0 150 -23 170 -146 176v41c78 -4 217 -6 365 -6c119 0 246 2 321 6z" />
    <glyph glyph-name="lcommaaccent.smcp" horiz-adv-x="1227" 
d="M745 1245v-41c-124 -6 -145 -26 -145 -176v-852c0 -113 33 -129 105 -129h47c159 0 317 117 376 445h48c-5 -46 -7 -103 -7 -168c0 -64 5 -195 15 -324c-133 6 -318 6 -449 6c-139 0 -450 0 -676 -6v41c125 6 146 27 146 176v811c0 150 -23 170 -146 176v41
c78 -4 217 -6 365 -6c119 0 246 2 321 6zM696 -92c109 0 190 -55 190 -168c0 -137 -94 -236 -276 -240l-4 45c117 15 172 43 188 103c-20 -19 -51 -31 -108 -31c-109 0 -172 47 -172 141c0 97 63 150 182 150z" />
    <glyph glyph-name="ldot.smcp" horiz-adv-x="1229" 
d="M743 1245v-41c-124 -6 -145 -26 -145 -176v-852c0 -113 33 -129 105 -129h47c159 0 317 117 376 445h48c-5 -46 -7 -103 -7 -168c0 -64 5 -195 15 -324c-133 6 -318 6 -449 6c-139 0 -450 0 -676 -6v41c125 6 146 27 146 176v811c0 150 -23 170 -146 176v41
c78 -4 217 -6 365 -6c119 0 246 2 321 6zM987 942c129 0 203 -60 203 -177c0 -116 -74 -176 -203 -176c-131 0 -203 60 -203 176c0 117 72 177 203 177z" />
    <glyph glyph-name="cacute.loclPLK.smcp" horiz-adv-x="1366" 
d="M850 1860c55 -23 80 -67 80 -114c0 -20 -4 -40 -13 -60c-30 -76 -110 -107 -233 -254l-27 12c4 34 6 64 7 91c0 16 1 31 1 45c0 48 -3 86 -3 119s3 61 14 89c21 49 65 83 119 83c17 0 36 -3 55 -11zM760 1274c192 0 278 -64 360 -133c16 -13 29 -20 40 -20
c29 0 45 41 52 124h48c-7 -92 -9 -213 -9 -430h-47c-28 150 -45 199 -102 262c-72 80 -164 135 -264 135c-217 0 -357 -223 -357 -594c0 -380 164 -585 371 -585c100 0 203 51 272 135c58 70 74 137 95 283h47c0 -228 2 -355 8 -451h-47c-7 83 -23 124 -51 124
c-12 0 -25 -7 -41 -20c-86 -71 -197 -133 -369 -133c-401 0 -694 232 -694 639c0 398 303 664 688 664z" />
    <glyph glyph-name="nacute.loclPLK.smcp" horiz-adv-x="1419" 
d="M908 1860c55 -23 80 -67 80 -114c0 -20 -4 -40 -13 -60c-30 -76 -110 -107 -233 -254l-27 12c4 34 6 64 7 91c0 16 1 31 1 45c0 48 -3 86 -3 119s3 61 14 89c21 49 65 83 119 83c17 0 36 -3 55 -11zM1368 1245v-41c-125 -26 -145 -67 -145 -258v-946c-24 2 -50 3 -75 3
s-50 -1 -75 -3l-819 940v-641c0 -190 39 -231 227 -258v-41c-67 4 -155 6 -250 6c-61 0 -129 -2 -170 -6v41c125 27 146 68 146 258v729c0 150 -23 170 -146 176v41c41 -4 109 -6 170 -6c109 0 209 2 291 6l654 -745v446c0 191 -39 232 -228 258v41c68 -4 156 -6 250 -6
c62 0 129 2 170 6z" />
    <glyph glyph-name="oacute.loclPLK.smcp" horiz-adv-x="1608" 
d="M916 1860c55 -23 80 -67 80 -114c0 -20 -4 -40 -13 -60c-30 -76 -110 -107 -233 -254l-27 12c4 34 6 64 7 91c0 16 1 31 1 45c0 48 -3 86 -3 119s3 61 14 89c21 49 65 83 119 83c17 0 36 -3 55 -11zM805 1274c438 0 731 -232 731 -639c0 -397 -303 -664 -733 -664
c-438 0 -731 232 -731 639c0 398 303 664 733 664zM797 1237c-193 0 -316 -256 -316 -619c0 -374 148 -610 330 -610c193 0 315 256 315 619c0 374 -147 610 -329 610z" />
    <glyph glyph-name="sacute.loclPLK.smcp" horiz-adv-x="1241" 
d="M756 1860c55 -23 80 -67 80 -114c0 -20 -4 -40 -13 -60c-30 -76 -110 -107 -233 -254l-27 12c4 34 6 64 7 91c0 16 1 31 1 45c0 48 -3 86 -3 119s3 61 14 89c21 49 65 83 119 83c17 0 36 -3 55 -11zM637 1274c141 0 244 -39 311 -76c33 -18 51 -29 70 -29
c26 0 37 33 45 91h47c-6 -80 -10 -177 -10 -459h-47c-39 286 -195 424 -394 424c-131 0 -213 -54 -213 -133c0 -113 134 -193 334 -320c187 -110 385 -233 385 -453c0 -231 -231 -348 -563 -348c-151 0 -264 52 -340 82c-35 15 -55 23 -72 23c-26 0 -36 -31 -45 -90h-47
c6 92 8 219 8 532h48c20 -315 176 -495 434 -495c102 0 211 43 211 157c0 103 -76 164 -252 273c-232 139 -438 282 -438 481c0 227 223 340 528 340z" />
    <glyph glyph-name="zacute.loclPLK.smcp" horiz-adv-x="1190" 
d="M713 1860c55 -23 80 -67 80 -114c0 -20 -4 -40 -13 -60c-30 -76 -110 -107 -233 -254l-27 12c4 34 6 64 7 91c0 16 1 31 1 45c0 48 -3 86 -3 119s3 61 14 89c21 49 65 83 119 83c17 0 36 -3 55 -11zM1096 1204l-590 -1157h61c258 0 408 123 480 465h47
c-4 -57 -7 -127 -7 -209c0 -59 5 -182 15 -303c-139 6 -342 6 -479 6c-174 0 -371 0 -539 -6v41l590 1157h-72c-246 0 -389 -113 -459 -424h-47c4 43 6 115 6 189c0 55 -4 170 -14 282c158 -6 375 -6 530 -6c156 0 328 0 478 6v-41z" />
    <glyph glyph-name="lslash.smcp" horiz-adv-x="1227" 
d="M1169 324c0 -64 5 -195 15 -324c-133 6 -318 6 -449 6c-139 0 -450 0 -676 -6v41c125 6 146 27 146 176v196l-146 -83v47l146 83v568c0 150 -23 170 -146 176v41c78 -4 217 -6 365 -6c119 0 246 2 321 6v-41c-124 -6 -145 -26 -145 -176v-405l322 182v-47l-322 -182v-400
c0 -113 33 -129 105 -129h47c159 0 317 117 376 445h48c-5 -46 -7 -103 -7 -168z" />
    <glyph glyph-name="m.smcp" horiz-adv-x="1849" 
d="M1800 1245v-41c-139 -6 -166 -26 -166 -176v-811c0 -149 27 -170 166 -176v-41c-80 4 -215 6 -342 6c-164 0 -319 -2 -405 -6v41c139 6 166 27 166 176v899l-453 -1126h-33l-475 1124v-815c0 -190 39 -231 227 -258v-41c-67 4 -155 6 -249 6c-62 0 -130 -2 -170 -6v41
c124 27 145 68 145 258v729c0 150 -27 170 -166 176v41c90 -4 256 -6 416 -6c67 0 137 2 188 6l291 -696l279 690h239c127 0 262 2 342 6z" />
    <glyph glyph-name="n.smcp" horiz-adv-x="1419" 
d="M1368 1245v-41c-125 -26 -145 -67 -145 -258v-946c-24 2 -50 3 -75 3s-50 -1 -75 -3l-819 940v-641c0 -190 39 -231 227 -258v-41c-67 4 -155 6 -250 6c-61 0 -129 -2 -170 -6v41c125 27 146 68 146 258v729c0 150 -23 170 -146 176v41c41 -4 109 -6 170 -6
c109 0 209 2 291 6l654 -745v446c0 191 -39 232 -228 258v41c68 -4 156 -6 250 -6c62 0 129 2 170 6z" />
    <glyph glyph-name="nacute.smcp" horiz-adv-x="1419" 
d="M912 1731c18 9 40 13 62 13c51 0 104 -23 130 -77c8 -17 12 -35 12 -53c0 -49 -30 -97 -78 -121c-94 -49 -196 -31 -436 -104l-14 24c199 168 223 270 324 318zM1368 1245v-41c-125 -26 -145 -67 -145 -258v-946c-24 2 -50 3 -75 3s-50 -1 -75 -3l-819 940v-641
c0 -190 39 -231 227 -258v-41c-67 4 -155 6 -250 6c-61 0 -129 -2 -170 -6v41c125 27 146 68 146 258v729c0 150 -23 170 -146 176v41c41 -4 109 -6 170 -6c109 0 209 2 291 6l654 -745v446c0 191 -39 232 -228 258v41c68 -4 156 -6 250 -6c62 0 129 2 170 6z" />
    <glyph glyph-name="ncaron.smcp" horiz-adv-x="1419" 
d="M1244 1733l10 -31c-178 -84 -344 -221 -444 -352h-37c-97 129 -264 266 -445 352l11 31c188 -29 387 -80 493 -125c90 45 256 96 412 125zM1368 1245v-41c-125 -26 -145 -67 -145 -258v-946c-24 2 -50 3 -75 3s-50 -1 -75 -3l-819 940v-641c0 -190 39 -231 227 -258v-41
c-67 4 -155 6 -250 6c-61 0 -129 -2 -170 -6v41c125 27 146 68 146 258v729c0 150 -23 170 -146 176v41c41 -4 109 -6 170 -6c109 0 209 2 291 6l654 -745v446c0 191 -39 232 -228 258v41c68 -4 156 -6 250 -6c62 0 129 2 170 6z" />
    </font>
</defs>
</svg>
